<svg id="Layer_1" xmlns="http://www.w3.org/2000/svg" viewBox="0 0 960 560"><style>.st0{fill:#00ff1c}</style><g id="XMLID_1_"><g id="XMLID_13_"><path id="XMLID_17_" class="st0" d="M19.9 42.2C36.4 64.6 54.4 86 75.3 104.4c13.4 11.7 31.4 27.2 50.4 27 21.6-.2 26.4-23 24.6-40.3-.7-7-1.9-13.9-3.4-20.8-.2-.8-.6-4.3-.3-1-.1-.8-.1-1.6-.2-2.4 0-.8.3-2 .1-2.7-.3-1-.1.9-.2 1.2.2-.6.2-1.2.4-1.8.3-.8.5-1.6.8-2.5-.5 1.7-.7 1.4.1.1.4-.7.9-1.5 1.4-2.2 1.3-2.2-1.3 1.1.5-.6 1.4-1.3 2.7-2.6 4.1-3.9 1-.8-.7.5-.7.6.5-.3.9-.7 1.4-1 .9-.6 1.7-1.1 2.6-1.6 1.9-1.1 3.8-2 5.7-3 2.4-1.2-.7.2 1.2-.6 1.3-.5 2.5-1 3.8-1.4 4.7-1.7 9.5-3 14.4-4 2.4-.5 4.8-1 7.2-1.4l3.9-.6c.8-.1 1.5-.2 2.3-.3-1.3.2-.4.1.3 0 5.4-.6 10.8-1.1 16.3-1.3 10.5-.5 21.1-.3 31.5.8l3 .3c3 .3-.8-.2 1.3.2 2.5.4 5 .8 7.5 1.3 6.3 1.4 10.6 3.1 16 6.2 22.7 12.7 39.4 34.7 61.9 48.8 28.1 17.6 62.2 18.4 93.5 10.5 32.9-8.3 62-26 91.8-41.4 14.6-7.5 29.4-14.4 45.2-19.2 16-4.9 32.6-8 49.2-9.5 33.4-3.1 68.4-2.5 101.7 2.3 29.1 4.2 58.7 13.8 81.3 31.7 40.5 32.1 62.7 83.5 67.1 133.5 5.1 57.8-11.3 120.1-52.7 162.1-42.1 42.7-101.9 61.9-157.5 80.2-68.4 22.5-137.9 42.9-209.2 53.7-65.1 9.8-134 11.9-197.6-3.7-50.6-12.4-101.9-37.2-130.9-81.3-7.3-11.1-14.9-24.1-16.1-37.6-1.3-14.4 7.6-24 19.3-30.9 25.3-14.9 56.8-14.5 84.5-7.9 34.1 8 65.4 24.2 98 36.3 30.7 11.4 62.6 18.7 95.1 22.8 63.7 7.9 130 1.1 190.2-21.4 53-19.8 122.7-57.9 110-125.4-3-16.2-11.1-31.5-20.3-45-8.9-13-18.9-25.4-29.8-36.7-22.5-23.2-50.8-40.5-84-40.2-17.7.2-35.1 4.5-51.7 10.5-14.3 5.1-28.4 11.2-41.4 19-24.2 14.5-45.9 36.1-49.4 65.3-3.5 29.4 15.4 55.9 39.6 70.4 29.9 18 66.1 16.1 99 9.4 26.7-5.4 72.4-12.7 70.9-49-1.5-35.7-41.3-50.7-71.9-51.2-15.3-.3-31 5.7-37.3 20.5-5.4 12.7-2.7 29 10.3 35.9 5.7 3 13 1.5 16.4-4.3 3.2-5.4 1.4-13.3-4.3-16.4-.1-.1-1.8-.7-.6-.2 1.1.5-1.1 0-.1 0 1.4-.1-1 .3-.2-.5-.1.1.8 1.8.2.5-.2-.3-.7-2.5-.4-1 .3 1.3 0-.3 0-.6V237c0-1.2-.5 1.3.2-.7.2-.6 1.1-3.1.4-1.4.3-.7 1.8-3.1 1.5-2.6-.5 1 .4-.3.6-.5-.5.4-2 1.1.6-.4 1.2-.7 2.3-1.2 3.5-1.6 5.9-1.9 12.8-1.2 18.9-.1 6.5 1.2 13.3 2.6 19.4 5.1 5.6 2.3 11.5 5.9 14.9 10.8 1.7 2.4 2.6 4.4 3.4 7.2.6 2.4.8 5.1.3 7.2-1.2 4.7-4.3 7.2-8.7 9.6-5.1 2.8-10.8 4.4-17 6-30.6 7.9-64.9 16.4-95.8 5.3-11.1-4-21.5-11.3-29.4-20.6-7.2-8.5-11.4-19.3-10.9-30.3.4-10 5.4-20.7 12.2-28.6 8.6-10 18.6-17 30.1-23.5 12.9-7.2 25.2-12.2 39.2-16.7 15.5-5 32-8.5 48.3-6.4 28.1 3.6 50 24.3 67.4 45.1 17.3 20.6 37.8 48.7 33 76.3-4.4 25.3-25.4 43.6-47 56.6-25.6 15.3-54.2 25.9-83 33.4-59.6 15.5-122.9 16.1-182.9 2.8-32.2-7.2-62.5-19.1-92.9-31.7-30.4-12.6-61.5-24.1-94.8-25.3-29.5-1-64.7 6.7-84.9 30-23.2 26.7-10 61.8 7.4 87.7 30.8 45.9 81.5 73.7 133.7 88.3 62.4 17.5 129.4 17.7 193.3 10.2 70.5-8.3 139.2-26.4 206.8-47.7 30.3-9.6 60.7-19.2 90.2-30.8 27.8-10.9 55.1-23.6 79.4-41.1 24.8-17.9 45.8-40.3 60.6-67.3 15.2-27.9 23.8-58.7 27.2-90.2 5.7-52.9-6.2-109.3-35.8-153.9-14.6-22-33.5-41.2-56.2-55-27.8-16.8-59.9-23.8-91.8-26.9-33.6-3.3-68.1-3.9-101.6.5-17.2 2.2-34.1 5.6-50.6 11.3-15.9 5.5-31.2 12.8-46.1 20.6C476 62.4 448.4 79.2 417 86.4c-13.9 3.2-28.8 4.7-42.9 2.2-13.9-2.4-26.1-8.3-37.3-16.7C317.1 56.7 300 35.4 276.5 25c-19.8-8.8-43-9.6-64.5-8.6-32.9 1.5-96.8 11.3-88.2 58.1 2 10.9 4.2 18.7 3 30.1.2-1.8.3-1.4-.1 0-.2.8-.5 1.6-.6 2.4-.5 2.3 1-1.3.1-.1-.3.4-.9 1.3-1 1.8-.1.2 1.9-2 .3-.5-1.4 1.3 2.3-1.7.8-.6-.2.2-.6.4-.9.5-1.1.5.5-.1.5-.2.1.3 1.6-.8.4-.2-.3.2-.9.3-1.3.3-.3 0 3.2 0 .7-.2-.5 0-1.2-.1-1.8-.1-1.7.2 2.8.7.3 0-.8-.2-1.5-.4-2.3-.6-.8-.2-1.6-.6-2.4-.8-2.5-.7 1.5.8-.4-.1-1.8-.9-3.6-1.7-5.4-2.7-9.6-5.4-14.8-9.8-22.6-16.7-18.9-16.8-35.8-36.2-51-56.4-3.8-5-10.1-7.6-16-4.2-5 3-7.9 10.9-4.2 16z"/></g></g></svg>