<svg xmlns="http://www.w3.org/2000/svg" viewBox="-421.5 139.8 455 234"><path d="M-272.4 237.7l-30.1 13.3-.2-.4c.7-.5 1.5-1 2-1.6.7-.6 1.1-1.3 1.4-1.9.1-.3.1-.6.1-1s-.1-.8-.3-1.3c-.1-.5-.3-1-.5-1.5l-.6-1.5c-.2-.4-.4-1-.7-1.7s-.6-1.5-1-2.3c-.4-.9-.7-1.7-1.1-2.5-.4-.9-.8-1.8-1.2-2.5l-3.8-8.5c-.2-.5-.5-1.1-.7-1.6s-.5-1-.7-1.5c-.3-.4-.5-.8-.8-1.1-.3-.3-.5-.5-.8-.7-.7-.3-1.5-.4-2.2-.4-.9.1-1.7.2-2.5.5l-.2-.5 15-6.6.2.5c-.4.2-.8.6-1.4.9-.5.4-1 .8-1.4 1.3-.4.5-.7 1.1-.8 1.7-.1.7-.1 1.4.3 2.1.4 1.1.8 1.9 1.2 2.8s.7 1.7 1.1 2.5c.4.8.7 1.7 1.1 2.5s.8 1.9 1.3 2.9.9 1.9 1.2 2.7c.4.8.7 1.6 1.1 2.3.3.8.7 1.6 1.1 2.3.4.8.8 1.7 1.3 2.7.5.9.9 1.8 1.3 2.6s.9 1.4 1.4 1.7c.2.1.5.1 1 .1s1-.1 1.6-.2c.6-.1 1.2-.3 1.9-.5s1.3-.5 1.9-.7c.3-.1.7-.3 1.2-.6l1.8-.9c.7-.3 1.3-.7 1.9-1.1.7-.4 1.2-.8 1.7-1.2 1.1-.9 1.9-1.8 2.5-2.6.6-.9 1.1-1.9 1.4-2.7.3-1 .5-1.9.5-2.9s.1-2 .1-3l.5-.1 1.9 10.2zm30.5-6.9l-.1-.5c.1 0 .3-.1.7-.3l1.2-.6c.4-.3.7-.6 1-.9.3-.4.3-.8.2-1.2-.1-.3-.3-.7-.6-1.4-.3-.6-.8-1.4-1.3-2.1-.6-.9-1.2-1.8-1.9-2.8s-1.5-2-2.1-3.2l-13.3 2.9c-.2 1.3-.5 2.5-.7 3.7-.2 1.2-.5 2.3-.7 3.6-.3 1.9-.4 3.1-.3 3.8.1.4.3.7.6.9s.7.4 1.2.4c.5.1 1 .1 1.5.1s1-.1 1.5-.1l.1.5-10.7 2.3-.1-.5c.9-.3 1.6-.7 2-1.2.6-.5.9-.8.9-1 .2-.3.5-.9.8-1.8.4-1 .8-2.2 1.2-4 .4-1.7.8-3.5 1.3-5.6.5-2 .9-4.2 1.4-6.3.5-2.1 1-4.4 1.4-6.6.5-2.2.9-4.3 1.3-6.2l-.8-.9c.6-.4 1-.8 1.5-1.3.4-.5.8-.9 1.1-1.4.3-.5.5-.9.7-1.3.2-.4.3-.7.4-1l.4-.1c1.7 2.3 3.1 4.6 4.6 6.7 1.5 2.1 2.8 4.2 4.2 6.1 1.4 1.9 2.6 3.9 3.9 5.6 1.3 1.9 2.5 3.6 3.7 5.5.6.9 1.1 1.7 1.6 2.1.5.6 1 1.2 1.6 1.9l.6.6c.3.3.7.5 1.2.8.5.2 1 .4 1.7.6.6.1 1.4.1 2.1 0l.1.6-15.1 3.6zm-13-26.8c-.1.5-.3 1.2-.5 2.1s-.4 2.1-.7 3.5c-.3 1.4-.6 2.9-1 4.7-.3 1.8-.7 3.6-1.1 5.6l12.5-2.8c-.9-1.3-1.8-2.5-2.6-3.8-.9-1.3-1.8-2.5-2.6-3.7-.9-1.2-1.6-2.2-2.3-3.2-.6-1.1-1.2-1.9-1.7-2.4zm58.6 22.4v-.5c1.3-.1 2.3-.3 3.2-.6.9-.3 1.5-.7 1.7-1.1.1-.1.1-.3.2-.6s.1-.6.1-1 .1-.8.1-1.2v-1.2c0-1.1.1-2.1.1-3.2v-7.6l-20.3-.2-.1 10.3v2.7c0 .9.2 1.5.5 1.9.4.6 1 1 1.8 1.3.8.3 1.5.5 2.2.6v.5l-15.1-.1v-.4c.9-.1 1.7-.3 2.4-.6.8-.3 1.4-.7 1.9-1.1.1-.2.3-.4.3-.8.1-.4.2-.8.2-1.3.1-.5.1-1 .1-1.6 0-.6.1-1.1.1-1.6v-1.9c0-.8 0-1.6.1-2.5V209l.1-9.4v-1.8c0-.6 0-1.1-.1-1.6 0-.5-.1-1-.2-1.4-.1-.4-.3-.7-.5-1-.5-.6-1.1-1-1.8-1.2-.7-.3-1.5-.4-2.3-.5v-.1l15.3.1v.5c-.5.1-1 .2-1.6.3s-1.1.3-1.5.6c-.5.3-.8.7-1.2 1.1-.3.5-.5 1.1-.5 1.9 0 1.1-.1 2.3-.1 3.6 0 1.3 0 2.5-.1 3.7v4.9l20.3.2v-10.5c0-.6-.1-1.3-.1-1.9 0-.7-.2-1.2-.5-1.7-.6-.9-1.3-1.4-2-1.7-.8-.2-1.6-.3-2.3-.4v-.5l15.5.1v.5c-.8.1-1.7.3-2.4.6-.8.3-1.4.8-1.8 1.5-.1.2-.2.5-.3 1-.1.4-.1.9-.2 1.4 0 .5-.1 1-.1 1.6v1.5l-.1 8.2v11.9c0 1 0 1.8.1 2.5 0 .8.2 1.4.4 1.7.5.7 1.1 1.1 1.8 1.4.8.3 1.6.5 2.4.6v.5l-15.7-.8zm46.2 6.8l.1-.5c.1 0 .4 0 .8.1.4 0 .8 0 1.3-.1s.9-.2 1.3-.4.6-.5.7-1c.1-.3.1-.8 0-1.5 0-.7-.1-1.6-.2-2.5s-.3-2.1-.5-3.3c-.2-1.3-.4-2.5-.6-3.8l-13.3-3c-.8 1.1-1.6 2-2.2 3-.7 1-1.5 1.9-2.1 2.9-1.1 1.6-1.8 2.6-1.9 3.3-.1.4 0 .8.2 1.1s.5.6.9.9.8.5 1.3.7c.5.2.9.4 1.4.5l-.1.5-10.6-2.4.1-.5c.9.1 1.7.1 2.3-.1.7-.2 1.1-.4 1.3-.5.3-.2.8-.6 1.5-1.3.7-.7 1.7-1.8 2.8-3.1 1.1-1.3 2.2-2.8 3.5-4.5 1.3-1.7 2.6-3.4 4-5.2 1.4-1.8 2.7-3.5 4.1-5.4 1.4-1.9 2.6-3.5 3.9-5.1l-.3-1.2c.7-.1 1.3-.3 1.9-.5.6-.2 1.1-.5 1.6-.8.5-.3.9-.6 1.2-.9s.6-.5.8-.7l.3.2c.4 2.8.9 5.6 1.3 8.1s.8 5 1.2 7.3.7 4.6 1.1 6.8c.3 2.2.7 4.4 1.1 6.5.1 1.1.3 1.9.5 2.6s.4 1.6.6 2.4c0 .1.1.4.3.8.2.4.4.8.7 1.2.3.4.7.8 1.3 1.2.5.4 1.2.7 1.9.9l-.1.6-15.4-3.3zm0-29.8c-.3.4-.8 1-1.4 1.8-.6.8-1.3 1.8-2.1 2.8-.9 1.1-1.9 2.3-2.8 3.8-1.1 1.5-2.1 2.9-3.4 4.6l12.5 2.8c-.3-1.6-.5-3-.8-4.6s-.5-3-.8-4.5c-.3-1.5-.5-2.7-.7-3.9-.2-1.2-.4-2.1-.5-2.8zm56.9 16.8c-.8 0-1.5.1-2.2.4-.8.2-1.5.6-2.2 1-.8.4-1.7 1-2.5 1.5-.6.4-1.5.9-2.5 1.6-1.1.7-2.2 1.4-3.4 2-1.2.7-2.2 1.4-3.3 2-1.1.7-1.9 1.2-2.5 1.5l-3.9 8.8c-.4.9-.7 1.7-1.1 2.5-.3.8-.4 1.5-.3 1.9.2.9.6 1.6 1.3 2 .7.6 1.3 1 1.9 1.5l-.2.5-14.4-6.4.2-.5c.9.3 1.7.5 2.3.5.7.1 1.6-.1 2.5-.5.2-.1.5-.3.7-.6.2-.3.5-.7.7-1.1.2-.4.5-.9.7-1.4.2-.5.5-1 .7-1.5.4-.8.9-1.8 1.4-2.9.5-1.1 1.2-2.4 1.9-4.1 0-.1-.1-.5-.2-1.1-.1-.6-.2-1.4-.4-2.2s-.3-1.9-.5-2.9-.4-2.1-.5-3.2-.4-2-.5-2.9-.3-1.7-.4-2.2c-.2-1.1-.4-2.1-.6-3-.2-.9-.4-1.8-.7-2.4-.3-.7-.6-1.4-1-1.9s-.9-.9-1.5-1.3l.2-.5 14.2 6.3-.2.5c-.5-.2-1-.4-1.5-.5-.5-.2-1-.3-1.5-.3s-.9 0-1.3.1-.6.4-.8.8c-.2.4-.2 1.1-.1 2 .1 1 .2 1.9.4 3 .1.7.2 1.5.4 2.4.1 1 .3 1.9.5 3s.4 2.1.6 3.3c.2 1.2.4 2.2.5 3.2.7-.4 1.5-.9 2.4-1.5 1-.6 1.9-1.2 3-1.9 1-.6 1.9-1.3 2.8-1.8.9-.6 1.7-1.1 2.1-1.4l.9-.6c.3-.2.7-.5 1-.7l.9-.9c.3-.3.5-.6.6-.9.2-.5.3-.9.1-1.3-.1-.4-.4-.7-.7-1.1-.3-.3-.7-.6-1.2-.9-.4-.3-.9-.6-1.3-.8l.2-.5 10.8 4.8-.2.5c-.8.2-1.6.1-2.3.1z" fill="none" stroke="#ff0" stroke-width="2"/><g fill="none" stroke="red" stroke-width="4"><path d="M-324.9 205.2c35.8-19.6 72.9-26.9 120.5-26.9 55.5 0 106.7 18.2 147.1 49.1 0 0-28.1 40.7-34.5 50.2-7.1-5.7-14.7-11-22.7-15.6-27.1-15.8-58.6-24.8-92.2-24.8-42.1 0-80.9 14.2-111.9 38.1l-38.3-49c10.6-8.3 21.3-15.3 32-21.1z"/><path d="M-335.2 254c-23.5 9.2-33.7 29.7-40.9 53.8 12.4-11.1 24.3-16.7 35.4-14.5-4.5 14.1-2.1 24.2.7 34 13.9-20.6 30.5-35.7 51.5-41-9.1-6-12.8-14.2-5.7-26.9m217.8-4.5c15.7 11.7 28.1 30.5 38.8 52.8-11.6-7.8-23.4-13.5-35.5-14.5 3.8 9.5 2.2 21.3-1 33.7-3.4-25.4-43.1-44.7-52-39.4 0 0 20-21.3 8.4-27.4"/></g></svg>