<svg class="coat" id="Layer_1" xmlns="http://www.w3.org/2000/svg" x="100" y="100" viewBox="0 0 100 100"><style>.st0{fill:#534741;stroke:#ff0;stroke-width:12;stroke-miterlimit:10}.st1{fill:#ff0}.st2{fill:#fffe45}.st3{fill:#fff}.st4{fill:red}</style><ellipse id="XMLID_366_" class="st0" cx="180.5" cy="214" rx="171.5" ry="210"/><g id="XMLID_329_"><path id="XMLID_415_" class="st1" d="M172.3 125.8c1.9-4.2 5.8-7.2 10.1-8.9 4.3-1.7 8.9-2.3 13.5-2.9-1.2 1.6-2.3 3.3-3.5 4.9 2-.7 4.1-1.1 6.2-1.1-.5 1.6-1.1 3.1-1.6 4.7 2.1 1.2 5.3-2.2 7-.4.9 1 .2 2.7-.4 3.9-3.6 6.7-4.6 14.5-5.6 22.1-.1 1.1-.3 2.3.2 3.3s1.8 1.7 2.7 1.1c.4-.2.7-.7.9-1.1 3.2-5.9-.1-13.6 2.7-19.6 1.3 2.6 2.7 5.1 4 7.7.4.7.7 1.4 1.4 1.7 1.7.9 3.5-1 4.8-2.5 1.3-1.5 4-2.6 4.8-.8.2.4.2.9.2 1.3-.3 5-5.1 8.2-8.6 11.7-.6.6-1.2 1.3-1.5 2.2-.7 2.1.9 4.2.7 6.4-.2 2.5-2.6 4.4-5.1 4.7-2.5.3-5-.6-7.2-1.6-6.2-2.7-11.9-6.5-16.9-11-.8-.7-1.6-1.5-2.6-1.8-1.1-.3-2.3 0-3.5.3-2.1.6-4.2 1.4-6.4 1.5-2.2.1-4.6-.5-6-2.3-1.4-1.7-1.3-4.6.5-5.9.7-.5 1.6-.7 2.4-.8 5.1-.8 11.1-.3 14.7-4-5.3-2.8-11.6 0-17.6.5-1.3.1-2.7.1-3.6-.9-1.3-1.4-.5-3.9 1.1-4.9s3.7-1 5.6-1c5.5 0 10.9-.3 16.4-.9 1.2-.1 2.8-.9 2.3-2-.2-.4-.7-.7-1.2-.8-1.9-.6-4-.7-5.9-.4-.1-2-1.7-3.8-3.7-4.3"/><g id="XMLID_397_"><path id="XMLID_359_" class="st2" d="M173.6 126.6c4.3-8.4 13.8-10 22.3-11-.4-.8-.9-1.5-1.3-2.3-1.2 1.6-2.3 3.3-3.5 4.9-.8 1.1.5 2.6 1.7 2.2 1.9-.6 3.8-1 5.8-1-.5-.6-1-1.3-1.4-1.9-.5 1.6-1.1 3.1-1.6 4.7-.3.8.3 1.6 1 1.8 1.2.4 5-1 5.4-.7 1.4.9-2.2 7.7-2.6 8.9-1.2 3.9-1.9 8-2.4 12.1-.3 2.4-1.3 5.5-.2 7.8 1.7 3.4 5.1 2.4 6.6-.4 3.1-5.9.2-13.1 2.5-19.2-.9.1-1.8.2-2.7.4 1.4 2.8 3.1 8.6 6.2 10.1.8.4 1.8.4 2.6.1 1.5-.4 5-4.6 6.1-2.6 1.4 2.5-7.7 9.1-9 10.9-.8 1.1-1.1 2.3-1.1 3.6.1 2.3.4 1.9-.4 4.7.3 2.1-.5 3.1-2.3 3-1.4.5-2.7.4-4.1-.2-5-1.5-10-4.6-14.1-7.7-3.2-2.3-6.2-6.7-10.5-6.3-2.5.2-6.8 2.9-9.1 1.7-1.7.2-2.1-.8-1.3-3-1.1-2.6-.4-3.7 2.3-3.2 1-.1 1.9-.2 2.9-.3 3.8-.4 7.1-1.3 10-3.8.7-.6.6-2-.3-2.4-4.7-2-8.9-1.3-13.8-.4-1.5.3-3 .5-4.5.7.5-1.3 1.1-2.5 1.6-3.8.6-.4 4.4 0 5.1-.1 3.3-.1 6.7-.3 10-.6 2.1-.2 7.3-.4 6.5-4-.8-3.1-6.4-2.7-8.6-2.5.5.4 1 .7 1.4 1.1-.6-2.7-2.1-4.3-4.7-5.3-1.8-.7-2.6 2.2-.8 2.9.9 1.1 1.7 2.2 2.6 3.2.1.6.8 1.2 1.4 1.1.9-.1 2.8-.7 3 .4 0 0-4.3.3-4.5.4-3.3.2-6.7.3-10 .3-3.2.1-7.2.4-8.5 3.9-1.1 3 .7 5.4 3.7 5.8 6.3 1 12.1-3.5 18.5-.7l-.3-2.4c-3.5 3-7.9 2.8-12.2 3.4-2.1.3-4.3.5-5.7 2.2-2.6 3.1-.6 7.5 2.6 9.1 2.1 1 4.5 1 6.7.7 1.6-.3 3.2-1.1 4.8-1.3 3.9-.4 5.8 2.3 8.5 4.4 5 3.9 11.1 7.9 17.2 9.4 3.8 1 8.9.1 10.4-4.2 1.3-3.9-1.5-6.2 1.7-10.1 1.8-2.2 4.4-3.8 6-6.3 1.7-2.6 3.9-8.7-.9-9.3-2-.2-3 1.3-4.6 2.1-.3.4-.7.8-1 1.1-2 .7-3.2.2-3.6-1.7-1.4-1.5-2.3-4.3-3.2-6.2-.7-1.2-2.3-.8-2.7.4-1.8 4.7-.9 9.3-1.3 14.1.6 2.1.2 3-1.3 2.5-1.3.2-1.5-.4-.7-1.8-.2-1.5.4-3.4.7-4.9.5-3.2 1.2-6.4 2.2-9.4.9-2.6 5.1-7.9 2.6-10.8-2.3-2.7-5.1.6-7.8-.2.3.6.7 1.2 1 1.8.5-1.6 1.1-3.1 1.6-4.7.3-.9-.5-1.9-1.4-1.9-2.3.1-4.4.4-6.6 1.1.6.7 1.1 1.5 1.7 2.2 1.2-1.6 2.3-3.3 3.5-4.9.6-.9-.2-2.4-1.3-2.3-9.6 1.2-20.1 3.1-24.9 12.5-1.1 2.3 1.5 3.8 2.4 2.1z"/></g></g><g id="XMLID_324_"><path id="XMLID_395_" class="st3" d="M159.9 195.6c5.3-2 8-7.9 9-13.4.6-3.1.8-6.4-.4-9.4-1.1-3-3.8-5.5-7-5.6 5.6-3.3 11.3-6.3 17.1-9.3 1-.5 2.1-1 3.2-1 1.2 0 2.3.7 3.4 1.2 4.6 2.3 10 2.6 15 3.7 5 1.2 10.3 3.8 12.2 8.6-4.7 1.9-7.6 7.1-8.2 12.1-.6 5.1.8 10.2 2.6 15-15.8-.6-31.5-1.3-47.3-1.9"/><g id="XMLID_390_"><path id="XMLID_352_" class="st2" d="M160.6 196.9c10.3-4.7 16.4-29 1.3-31.2.1.9.2 1.8.4 2.7 4.5-2.6 9.1-5.1 13.7-7.5 1.8-.9 4.6-2.8 6.7-2.4 1.8.3 3.7 1.7 5.4 2.3 8 2.6 18.9 1.5 23.1 10.4.2-.7.4-1.4.5-2.1-11.3 5.5-9.7 19-6.3 28.9.5-.6 1-1.3 1.4-1.9-15.8-.6-31.5-1.3-47.3-1.9-1.9-.1-1.9 2.9 0 3 15.8.6 31.5 1.3 47.3 1.9.9 0 1.8-1 1.4-1.9-3-8.6-5.2-20.6 4.9-25.5.8-.4.9-1.4.5-2.1-4.5-9.5-15.4-8.9-24.1-11.5-4.2-1.3-6.7-3.6-11-1.9-6.2 2.4-12.2 6.3-17.9 9.6-1 .6-1 2.5.4 2.7 12.5 1.9 5.9 22.1-2 25.7-1.6.9-.1 3.5 1.6 2.7z"/></g></g><g id="XMLID_323_"><path id="XMLID_388_" class="st4" d="M227.7 199.9c-5.5-3-12.2-2.3-18.5-2.7-.6 0-1.3-.1-1.8-.5s-.7-1.2-.8-1.9c-.9-4.8-1.6-9.7-2-14.6 3.5-.2 7 .7 10.5.7s7.4-1.2 9-4.4c1.7-3.4-.4-7.8-3.5-9.9-3.1-2.2-7.1-2.7-10.9-3.2-.4-2 .7-4.1 2.3-5.4s3.6-2 5.5-2.6c5.7-1.9 12.7-3.6 17.1.5-.8-5.7 3.7-10.6 8-14.4.8-.7 1.7-1.5 2.8-1.5 1.4-.1 2.6 1.1 3.4 2.3 5.8 8 5.5 19.8-.7 27.5-3.1 3.8-7.3 6.5-10.5 10.2-4.8 5.5-7.2 12.6-9.3 19.6-6.1-2.1-12.8-2.8-19.2-2"/><g id="XMLID_383_"><path id="XMLID_342_" class="st2" d="M228.5 198.6c-4.8-2.2-9.7-2.6-14.9-2.8-3.8-.1-5.3.1-6-4.1-.7-3.8-1.1-7.6-1.4-11.4l-1.5 1.5c6.7-.1 20.6 3.4 21.5-7.2.8-9.1-9.5-11.8-16.4-12.6l1.5 1.5c-.2-8.3 17.7-10.2 22.4-6.5.9.7 2.6.4 2.6-1.1-.3-4.6 2.1-8 5.2-11.2 2-2 3.6-4.2 7-.6 1 1.1 1.7 3.3 2.2 4.7 2 6.3 1 13.5-2.8 18.9-3.7 5.3-9.7 8.6-13.4 13.9-3.6 5.2-5.5 11.3-7.4 17.3.6-.3 1.2-.7 1.8-1-6.4-2.1-12.9-2.8-19.6-2.1-1.9.2-1.9 3.2 0 3 6.5-.7 12.7 0 18.8 2 .8.3 1.6-.3 1.8-1 1.6-5.2 3.3-10.6 6.2-15.2 2.9-4.7 7.2-7.7 11.1-11.5 5.4-5.5 8.2-12.8 7.3-20.6-.5-4.2-3.2-14.5-9.1-14.1-3.3.2-6.4 4.4-8.2 6.7-2.6 3.2-4.1 6.6-3.8 10.8.9-.4 1.7-.7 2.6-1.1-4.7-3.7-10.3-3.2-15.9-1.7-5.4 1.5-11.8 3.7-11.6 10.3 0 .9.7 1.4 1.5 1.5 3.4.4 6.9.9 9.8 2.9 3.3 2.3 5.5 7.3 1.3 10.3-4.4 3.1-11.3.6-16.1.7-.8 0-1.6.7-1.5 1.5.3 3.8.8 7.6 1.4 11.3.3 1.9.4 4.9 2 6.3 1.6 1.3 4.3.9 6.1 1 4.9.2 9.7.2 14.2 2.4 1.5.7 3-1.9 1.3-2.7z"/></g></g><g id="XMLID_322_"><path id="XMLID_381_" class="st3" d="M251.9 166.3c5.2 5.1 13.5 5.3 19.6 9.3 4.8 3 8 8.4 8.5 14-8.9-4.8-19.9-5.5-29.4-1.9 7.9 3 16.5 6.7 20 14.5 3.6 8.2-.1 17.7-3.8 25.9-.8-8.3-5-16.3-11.4-21.8.4 6.1 2 12.1 1.8 18.1s-2.9 12.6-8.4 15.1c-.4-3.3-2.8-6-5.4-8-2.6-2.1-5.5-3.8-7.7-6.3-4.1-4.7-4.8-11.5-5-17.8-.3-9.1.2-19 5.9-26.1 1.9-2.3 4.2-4.2 6.9-5.5 1.9-.9 4.1-1.8 5.1-3.6 1-1.9.7-4.9 2.8-5.5"/><g id="XMLID_376_"><path id="XMLID_341_" class="st2" d="M250.9 167.4c4 3.6 8.7 4.9 13.6 6.6 7.4 2.6 13 7.3 14 15.5.8-.4 1.5-.9 2.3-1.3-9.6-4.9-20.4-5.6-30.5-2-1.4.5-1.4 2.4 0 2.9 6.6 2.5 14.3 5.5 18.1 11.9 4.9 8.3.7 18.3-2.9 26.2.9.3 1.9.5 2.8.8-1.1-8.9-5.1-16.8-11.9-22.8-.9-.8-2.7-.3-2.6 1.1.9 10.3 5.9 25.9-5.9 31.9.7.3 1.5.6 2.2.9-1.5-7-7.7-9.1-12.3-13.8-6.1-6.2-6-15.9-5.8-24 .2-8.4 2.2-17.5 9.6-22.7 2.3-1.6 5.4-2.3 7.2-4.4 1.5-1.7 1.3-5.2 3.2-6.3 1.7-1 .2-3.6-1.5-2.6-2.3 1.4-2 3.2-3.1 5.4-1.8 3.5-7.2 4.7-10 7.4-5.4 5-7.5 12.2-8.2 19.3-.7 7.5-.8 16.5 2.1 23.6 1.3 3.3 3.4 5.8 6.2 8.1 3.9 3.1 8.5 5.6 9.6 10.8.2 1 1.4 1.3 2.2.9 13-6.7 8.4-23 7.4-34.5-.9.4-1.7.7-2.6 1.1 6.1 5.5 9.9 12.5 11 20.7.2 1.3 2.1 2.3 2.8.8 3.9-8.6 8.1-18.9 3.5-28-3.9-7.9-12.8-11.5-20.5-14.5v2.9c9.4-3.4 19.3-2.8 28.2 1.7.9.5 2.4-.1 2.3-1.3-.7-5.8-3.3-11-8.1-14.5-6.2-4.6-14.7-4.6-20.5-9.8-1.2-1.4-3.4.7-1.9 2z"/></g></g><g id="XMLID_311_"><path id="XMLID_374_" class="st4" d="M257.3 230.6c2.2 3.4 4.8 6.5 6.7 10.1 5.6 10.7 3.9 23.5 2 35.4 0-4.3-2-8.5-4.8-11.8s-6.2-6-9.7-8.6c1.9 5.1 3.6 10.3 3.4 15.7s-2.6 11-7.3 13.6l-5.7-28.2c-1.5 6.8-3.9 13.5-7.2 19.6-1.9-2.5-2.2-5.9-2.4-9.1-.6-13.5 1-27.1 4.5-40.1 5 3.7 9.7 8 13.8 12.7 1.8-3.6 4.1-6.9 6.9-9.7"/><g id="XMLID_369_"><path id="XMLID_340_" class="st2" d="M256 231.4c4.7 7 9.2 13 10.1 21.7.8 7.6-.3 15.2-1.5 22.7 1 .1 2 .3 2.9.4-.6-9.9-7.8-16.1-15.2-21.7-1-.8-2.6.5-2.2 1.7 3.2 8.9 6.6 21.5-3.2 27.6.7.3 1.5.6 2.2.9l-5.7-28.2c-.3-1.4-2.6-1.4-2.9 0-1.5 6.7-3.9 13.1-7.1 19.2h2.6c-4-6.4-2.4-16.8-1.9-24 .6-8.2 2.1-16.2 4.2-24.1-.7.3-1.5.6-2.2.9 4.9 3.7 9.4 7.9 13.5 12.5.6.7 1.9.5 2.4-.3 1.8-3.5 4-6.5 6.7-9.4 1.3-1.4-.8-3.5-2.1-2.1-2.9 3-5.2 6.2-7.2 10l2.4-.3c-4.3-4.8-9-9-14.1-12.9-.8-.6-2 0-2.2.9-2.3 8.8-3.9 17.7-4.4 26.7-.5 7.4-1.7 17.1 2.4 23.7.6.9 2.1 1 2.6 0 3.3-6.3 5.8-13 7.4-20h-2.9l5.7 28.2c.2.9 1.4 1.4 2.2.9 11.1-6.9 8.3-20.6 4.6-31-.7.6-1.5 1.1-2.2 1.7 6.4 4.9 13.2 10.4 13.7 19.1.1 1.6 2.7 2.2 2.9.4 1.3-8.3 2.6-16.7 1.4-25.1-1.2-8.6-5.6-14.6-10.3-21.6-1.1-1.7-3.7-.2-2.6 1.5z"/></g></g><g id="XMLID_305_"><path id="XMLID_367_" class="st4" d="M158.4 195.7c.9-3.4 3.5-6 5.6-8.7s4.1-6.1 3.5-9.5c-4.9-3.2-12.1 3.4-16.8.1-.9-.7-1.6-1.6-2.1-2.7-1.5-3.7 0-8.2 3.1-10.7s7.5-3 11.4-2c-1.7-4.5-5.6-8.2-10.3-9.6s-9.9-.7-13.9 2.1c-2.5-2.9-4.5-6.3-5.6-9.9-.9-2.9-2.3-6.7-5.3-6.6-1.2 0-2.4.8-3.3 1.5-4 3.2-7.2 8.2-5.9 13.2.6 2.4 2.2 4.4 3.8 6.3 8.1 10 15.9 21 17.8 33.8.1.5.2 1 .5 1.4.4.4 1 .4 1.5.4 6-.1 12-.1 17.9-.2"/><g id="XMLID_362_"><path id="XMLID_339_" class="st2" d="M159.8 196.1c1.2-3.5 15.5-18.2 6.6-20.7-3.7-1-7.1 1.1-10.7 1.5-5.4.5-7.6-4.4-5.2-8.9 2.4-4.5 7.7-5.3 12.2-4.4 1.4.3 2.2-1 1.7-2.2-4.6-10.4-16.6-14-26.3-8.1.6.1 1.2.2 1.8.2-2.5-3-4.1-6.1-5.4-9.8-.6-1.6-1.1-3.3-2.2-4.7-1.6-2.1-3.8-3-6.4-2.1-8.1 3.1-11.2 13.6-6.6 20.4 6.7 9.9 14.8 18.2 18.2 30.1.8 2.8.4 7.2 3.5 8.4 1.9.8 5.1.1 7.2 0 4 0 8-.1 12-.1 1.9 0 1.9-3 0-3-4.7 0-9.3.1-14 .1-3.2 0-3.9.8-4.9-2.3-.5-1.6-.7-3.3-1.2-4.8-2.3-7.4-6.3-14.1-10.8-20.3-2.1-3-4.5-5.8-6.7-8.7-3.8-5.1-3.3-10.2 1.1-14.7 5.1-5.1 6.9.5 8.5 4.6 1.3 3.3 3.2 6.1 5.4 8.8.4.5 1.3.6 1.8.2 8.4-5.1 18.2-1.9 22.2 7 .6-.7 1.1-1.5 1.7-2.2-5.4-1.2-11.5-.3-14.9 4.6-2.5 3.6-3.1 9.2.2 12.6 3.5 3.7 8.3 1.6 12.5.7 3.5-.8 6-.8 3.9 3.9-.8 1.7-2 3.2-3.2 4.7-2.1 2.6-4 5-5.1 8.2-.4 2 2.5 2.8 3.1 1z"/></g></g><g id="XMLID_310_"><path id="XMLID_360_" class="st3" d="M120.1 160.4c-12.9 4-24.4 12.3-32.3 23.3 8.2 3.3 17.8-.8 26.3 1.7-7.3 2.1-13.6 7.2-17.2 13.8-3.6 6.7-4.3 14.8-2 21.9 4.3-8.1 10.9-14.9 18.8-19.4-2.9 4.8-5.3 10-5.8 15.6s.9 11.5 4.7 15.6c.4.4.8.8 1.3.9.5.1 1-.1 1.5-.4 9.2-4.6 15.6-14.4 16.2-24.7.2-2.9-.1-5.9.7-8.8 1-3.3 3.3-6.1 4-9.5 1.2-5.4-2.1-10.7-5.2-15.3-2.9-4.3-5.8-8.6-8.8-12.9-.8-1.2-1.9-2.5-3.3-2.3"/><g id="XMLID_355_"><path id="XMLID_336_" class="st2" d="M119.7 158.9c-13.4 4.4-24.8 12.6-33.2 24-.6.8.1 1.9.9 2.2 8.6 2.9 17.6-.4 26.3 1.7v-2.9c-16.1 5.1-24.9 21.4-20.2 37.6.3 1.2 2.1 1.5 2.7.4 4.4-7.9 10.5-14.3 18.3-18.9l-2.1-2.1c-5.6 9.3-9.3 22-2 31.6 6.1 8.1 16.8-6.3 19.6-11.8 2.5-5.1 3-10 3.3-15.6.4-6.4 5.3-11.6 4.9-18-.4-5.7-4.2-10.7-7.3-15.2-2.2-3.2-4.3-6.5-6.6-9.6-1.4-1.9-2.4-3.3-4.7-3.8-1.9-.4-2.7 2.5-.8 2.9 2.7.6 4.2 4.3 5.7 6.4 1.5 2.1 2.9 4.3 4.4 6.4 2.4 3.5 5.4 7.4 6.1 11.7.9 5.4-2.7 8.7-4 13.5-1.1 4-.4 8.3-1.2 12.4-.7 4-2.4 7.8-4.7 11.1-1.3 1.9-2.9 3.7-4.6 5.2-2.3 2-3.6 3.6-6.4 2.4-4.5-2-5.1-8.8-4.6-13.3.5-5.4 2.8-10.3 5.6-14.9.8-1.3-.8-2.8-2.1-2.1-8.2 4.9-14.8 11.6-19.4 20 .9.1 1.8.2 2.7.4-4.2-14.6 3.6-29.4 18.1-33.9 1.4-.4 1.5-2.5 0-2.9-8.7-2.1-17.8 1.2-26.3-1.7.3.7.6 1.5.9 2.2 7.9-10.7 18.8-18.5 31.4-22.6 2-.5 1.2-3.4-.7-2.8z"/></g></g><g id="XMLID_304_"><path id="XMLID_353_" class="st4" d="M107 228.6c-8.6 11.4-12.9 26-11.8 40.2 6.1-4.1 8.3-12.5 14.3-16.8-3.4 8.8-1.5 19.5 4.7 26.6 4.1-8.1 5.7-17.5 4.3-26.5.9 6.5 4.2 12.7 9.2 16.9.3-14.2-.8-28.5-3.4-42.5-1.7 2.3-3.4 4.7-5.9 6.1-2.5 1.4-6 1.3-7.9-.9-.8-1-1.3-2.3-2.3-3-1.1-.7-3-.1-2.7 1.2"/><g id="XMLID_348_"><path id="XMLID_331_" class="st2" d="M105.7 227.8c-8.7 11.9-12.9 26.3-12 41 .1 1 1.3 2 2.3 1.3 6.2-4.6 8.6-12.3 14.6-17-.8-.5-1.7-1-2.5-1.5-3.4 9.7-1.4 20.1 5.1 28.1.6.7 2 .5 2.4-.3 4.2-8.6 5.8-17.8 4.5-27.3-1 .1-2 .3-2.9.4 1.1 7 4.4 12.9 9.6 17.6 1 .9 2.5.3 2.6-1.1.3-14.4-.9-28.7-3.4-42.9-.3-1.4-2.1-1.3-2.7-.4-1.8 2.5-4.6 6.5-8.2 6.3-4.2-.3-3.3-3.3-6-4.7-2-1-4.3-.1-4.7 2.1-.3 1.9 2.6 2.7 2.9.8-.1.5 3.9 3.8 4.7 4.1 1.4.6 3.1.7 4.6.5 4.3-.7 7-4.3 9.4-7.6-.9-.1-1.8-.2-2.7-.4 2.5 13.9 3.6 28 3.3 42.1.9-.4 1.7-.7 2.6-1.1-4.9-4.4-7.8-9.8-8.9-16.3-.3-1.7-3.2-1.3-2.9.4 1.2 8.9-.2 17.6-4.1 25.7l2.4-.3c-5.8-7.2-7.3-16.5-4.3-25.1.5-1.6-1.5-2.3-2.5-1.5-5.8 4.6-8.1 12.2-14 16.6.8.4 1.5.9 2.3 1.3-.9-14.2 3.1-28 11.6-39.4.6-1.4-2-2.9-3.1-1.4z"/></g></g><g id="XMLID_292_"><path id="XMLID_337_" class="st4" d="M137.2 196.6c17.5-.6 35 2 52.5 2.3 14 .2 28.3-1 42 2.5.3 11.5.2 23.1-.2 34.7-.4 9.9-1 19.8-1.7 29.7-.3 4.9-.7 9.8-2.1 14.4-4.2 13.1-17.2 21.7-30.4 25.4-6.8 1.9-14.1 2.9-19.9 6.9-1.8-3.4-5.4-5.4-8.8-7.3-9.1-5-18-10.5-26.5-16.5-2.6-1.8-5.1-3.7-6.8-6.3-2.5-3.9-2.7-8.9-2.8-13.6-.1-6.8-.2-13.6.4-20.4.4-4.7 1.2-9.4 1.8-14.2.7-6 1-12.1 1.3-18.2.3-6.6.7-13.2 1-19.8"/><g id="XMLID_332_"><path id="XMLID_299_" class="st2" d="M137.2 198.1c15.9-.4 31.7 1.6 47.6 2.2 15.5.6 31.2-1.1 46.4 2.6-.4-.5-.7-1-1.1-1.4.3 12.5.2 25.1-.3 37.6-.3 6.3-.6 12.6-1 18.8-.4 6.7-.4 13.7-2.1 20.2-2.7 10.4-11.1 18-20.5 22.5-9.5 4.6-20.7 4.8-29.7 10.6.7.2 1.4.4 2.1.5-2.2-3.4-5.2-5.5-8.7-7.4-5-2.8-10-5.7-14.9-8.7-5.2-3.3-11.1-6.6-15.7-10.8-5-4.6-5.3-10.6-5.4-16.9-.2-11.7 1-22.9 2.3-34.5 1.4-12.3 1.6-24.7 2.2-37.1.1-1.9-2.9-1.9-3 0-.6 12.6-.8 25.4-2.3 38-1.4 12.4-2.6 24.4-2.1 36.9.2 4.4.7 8.9 3.4 12.6 2.7 3.8 6.9 6.3 10.7 8.8 5.1 3.4 10.2 6.7 15.5 9.8 5.2 3 12.2 5.5 15.5 10.8.4.7 1.4 1 2.1.5 9.6-6.1 21.7-6.2 31.7-11.6 8.2-4.4 15.5-11.2 18.9-20.2 2.1-5.5 2.4-11.4 2.8-17.2.5-6.9.9-13.9 1.3-20.8.7-14.2.9-28.4.5-42.6 0-.6-.5-1.3-1.1-1.4-14.9-3.5-30.1-2.1-45.3-2.6-16.5-.5-33-2.7-49.5-2.3-2.3.1-2.3 3.1-.3 3.1z"/></g></g><g id="XMLID_338_"><path id="XMLID_330_" class="st3" d="M168.2 213.2l16.8-9c1.5-.8 4-1.1 4.1.6.1.7-.4 1.3-.1 2 .2.6.9.8 1.5 1.1 1.7.7 2.9 2.3 3.3 4-1 .6-1.9 1.5-2.5 2.6 2 .6 4.1 1.1 6.1 1.7-1.1.7-.3 2.4.9 3 1.1.5 2.6.6 3.4 1.5 1.1 1.2.7 3 .2 4.5-1.3 4.2-2.5 8.4-3.8 12.6-.5 1.6-.9 3.2-.5 4.8.3 1.1 1 2 1.8 2.9 2.7 3.3 5.3 6.6 8 9.9.4.5.8 1 1.4 1.2 2.1.8 3.5-2.2 3.5-4.4.1-4.4-.6-8.8-.3-13.2.2-4.4 1.6-9 5.1-11.7.6 3 .8 6.1.7 9.2 1.6-1.5 3.8-3 5.8-2.1 1.9.9 2.1 3.6 1.3 5.5s-2.4 3.4-3.3 5.2c-1.8 3.4-1.4 7.6-2.2 11.4-.5 2.8-1.7 5.4-2.7 8-3 7.7-5.1 15.7-7.5 23.6-.8 2.6-1.6 5.2-3.3 7.2-1.7 2-4.6 3.3-7.1 2.4-1.4-.5-2.6-1.8-2.5-3.3.1-1.8 1.9-3 3.1-4.3 2.1-2.4 2.5-6 1.8-9.1s-2.5-5.9-4.2-8.7c-.3-.4-.6-.9-1.1-1.1-.9-.4-1.8.4-2.5 1.1-2.7 2.6-5.9 4.8-9.3 6.4-2.7 1.3-5.8 2.2-8.6 1.3-2.8-.9-4.8-4.5-3.3-7 1.9-3 6.6-2.3 9.3-4.6 2.3-2.1 2.1-5.6 2.1-8.7 0-3.1.8-6.8 3.7-7.7-2.1-2.5-4.4-5.1-7.5-6.2-5.5-1.8-11.2 1.8-17 2.2-4.7.3-9.6-1.8-12.6-5.4-.2-.3-.4-.6-.4-.9 0-.8 1-1.2 1.9-1.2 7.5-.3 15.3 1.5 22.2-1.3.5-.2 1.1-.6 1-1.1-.1-.4-.5-.7-.9-.8-7.8-3.6-17.8-.4-24.8-5.4-.4-.3-.8-.6-1-1.1-.5-1.3.8-2.6 2.1-3.1 7.2-3.1 15.4.4 22.6 3.4 1.3.5 3.3.7 3.5-.7.1-.9-.8-1.6-1-2.5-.4-1.8 1.8-2.9 3.5-3.5 1.7-.7 3.5-2.7 2.3-4-.5-.5-1.2-.6-1.9-.6-1.9-.1-3.9 0-5.8.3-1.4.2-2.9.6-4.3.4-1.4-.2-2.9-1.1-3.2-2.5-.3-1.3.4-2.6 1.3-3.6 1.7-2.1 4-3.6 6.5-4.4"/><g id="XMLID_325_"><path id="XMLID_298_" class="st2" d="M169 214.5c2.5-1.4 5-2.7 7.6-4.1 2.5-1.3 6-4 8.7-4.6 2.9-.7 1.3 0 2.5 1.7 1.5 2 3.6 1.8 4.7 4.8.2-.6.5-1.1.7-1.7-1.3.9-2.2 1.8-3.1 3.1-.6.8 0 2 .9 2.2 2 .6 4.1 1.1 6.1 1.7-.3-.7-.6-1.5-.9-2.2-1 1.4-.8 3 .5 4.3 1 1 2.5 1 3.4 2.2 1.6 1.9-.1 5-.8 7.4-1.2 4-3.8 9.1-2.9 13.3.7 3.3 4.2 6.4 6.2 8.9 2.5 3.1 7.6 10.8 10.8 3.8 1.5-3.2.6-7.2.5-10.6-.3-5.9-.1-12 4.6-16.3-.8-.2-1.7-.4-2.5-.7.5 3 .7 5.8.6 8.8 0 1.4 1.6 1.9 2.6 1.1 2.2-2.6 3.5-1.6 4 2.9-.3.4-.6.8-.9 1.3-.6 1.4-1.8 2.6-2.4 4.1-1.1 2.8-1 5.9-1.5 8.8-1.1 7.2-4.8 14.2-6.9 21.2-1.2 3.9-2.2 7.9-3.5 11.9-.6 1.9-1.1 3.9-2.2 5.6-.8.8-1.6 1.7-2.5 2.5-3.9-1.5-4.8-3.1-2.6-4.6.7-2.2 2.1-3.2 2.4-5.6.3-2.2-.1-4.4-.7-6.5-.9-2.7-3-8.8-6.2-9.3-2-.4-3.5 1.5-4.8 2.6-3 2.5-6.5 4.9-10.2 6-2.2.9-4.4.6-6.5-.8.1-1.6.1-3.2.2-4.8.5-.8 3.1-1 4.1-1.4 1.8-.6 3.5-1.4 4.6-2.9 3.2-4.3-.7-12.7 4.6-15.2.9-.4.9-1.7.3-2.4-4.7-5.5-9.3-8.1-16.6-6.5-4.3.9-8.4 2.7-12.8 1.8-1-.2-6.8-2.1-6.7-3.6.1-1.2 5.6-.5 6.4-.5 3.4.1 16.1 1.6 17.6-3.3 1.2-4.3-7.7-4.7-10.2-5-4.1-.4-8.4-.2-12.4-1.5-2.8-.3-3.2-1.6-1.3-3.9 1.4-.4 2.9-.6 4.4-.6 2.7 0 5.3.7 7.8 1.5 2.3.7 12.3 6.7 13.4 1.3.2-.9-.6-1.7-.5-2.4.2-2.6 2.2-2.3 3.6-3.5 1.2-.9 2.4-2.4 2.1-4-.4-1.9-2.1-2.3-3.8-2.6-2-.4-4.2 0-6.2.3-3.1 1.3-4.3-.2-3.7-4.4 1.4-1.3 3-2.3 4.8-2.9 1.8-.7 1-3.6-.8-2.9-3.6 1.4-9.8 4.9-8.9 9.7.3 1.5 1.5 2.7 2.9 3.3 3 1.3 6.4-1.2 9-.2 3.9 1.5-.4 2.3-1.7 4.1-.8 1.2-.3 3.8-1.4 4.3-.7.3-4-1.6-4.8-1.9-1.9-.7-3.8-1.4-5.7-1.9-3.1-.8-6.4-1.2-9.6-.6-3 .5-8.3 2.7-6.1 6.6 2.6 4.8 11.9 4.6 16.5 4.9 1.9.1 3.8.3 5.7.6 1.4.3 3.8.3 1.7 1.2-3.7 1.6-9.4.7-13.3.6-2.4-.1-9.8-1.4-9.4 3 .4 4.7 9.5 7.3 13.1 7.4 3.9.1 7.5-1.4 11.2-2.2 6.2-1.3 9.8 1.2 13.7 5.7l.3-2.4c-5.4 2.6-3.6 8.2-4.6 12.9-1.1 5-4.7 4.5-8.3 6.4-1.7.9-3 2.2-3.3 4.2-.8 4.7 3.9 7.9 8.1 7.8 2.8-.1 5.5-1.3 7.9-2.6 1.7-.9 3.2-1.9 4.7-3.1 1-.8 2.8-3 4-3 3 0 5.1 9.4 4.8 11.7-.4 4-4.7 5.4-5.1 9.1-.5 4.2 4.2 6.1 7.6 5.2 6.3-1.6 7.8-9 9.4-14.4 2.5-8.4 5.5-16.4 8.2-24.7 1.6-4.8.8-10.6 3.3-15 1.5-2.6 3.8-4.7 3.6-8-.5-6.3-6.7-4.6-10-1.8.9.4 1.7.7 2.6 1.1 0-3.2-.2-6.4-.7-9.6-.2-1.2-1.8-1.4-2.5-.7-3.7 3.4-5.2 7.9-5.5 12.8-.2 3.6 1 7.8.3 11.3.5 1.9-.3 3.2-2.4 3.9-.4-.5-.8-.9-1.1-1.4-1.5-1-2.9-3.5-4-4.9-1.7-2.1-3.5-3.7-3.9-6.4-.3-2.3.3-3.9 1-6.1 1-3.5 2.3-7 3.1-10.5.3-1.6.6-3.2-.3-4.6-.5-.8-4.6-3.4-4.6-3.5.6-.8 0-2-.9-2.2-2-.6-4.1-1.1-6.1-1.7.3.7.6 1.5.9 2.2.7-.7 1.3-1.4 2-2 .5-.4.9-1 .7-1.7-.4-1.2-.8-2.1-1.6-3.1-.9-1-2.5-1.5-3.2-2.6-.9-1.5.4-2.7-2.1-3.6-2.5-.9-5.6 1.4-7.6 2.5-4.5 2.4-9 4.8-13.4 7.2-2 1.2-.5 3.8 1.2 2.9z"/></g></g><g id="XMLID_120_"><g id="XMLID_318_"><path id="XMLID_286_" class="st1" d="M103.2 296.5c-5.5-2.7-10.4-6.2-14.6-10.7-1.1-1.2-3.3.4-2.4 1.8 3.5 5.1 6.3 10.6 8.3 16.5l1.8-1.8c-6.5-2.3-13.1-4.3-19.8-5.9-1.4-.3-2.6 1.5-1.5 2.5 4.5 4 8 8.1 11.6 12.8 3 3.8 7.6 6 10.8 9.7 2 2.2 4.6 6.5 8.1 6.4 1.7 0 3.2-1.3 4.6-2.1 2.6-1.6 5.2-3.3 7.8-4.9 1.6-1 .1-3.6-1.5-2.6-4.1 2.6-9.6 8.2-14.1 4.2-2.6-2.3-4.4-5.3-7.2-7.5-1.8-1.4-3.8-2.4-5.3-4.1-1.4-1.5-2.5-3.5-3.7-5.2-2.6-3.4-5.8-6.2-9-8.9-.5.8-1 1.7-1.5 2.5 6.7 1.6 13.3 3.6 19.8 5.9 1 .4 2.2-.8 1.8-1.8-2.1-6.1-5-11.8-8.6-17.2l-2.4 1.8c4.4 4.7 9.4 8.3 15.2 11.1 2.1.9 3.6-1.7 1.8-2.5z"/></g></g><g id="XMLID_118_"><g id="XMLID_312_"><path id="XMLID_280_" class="st1" d="M107.5 324.1c-2.2-7.7-4.7-15.2-7.7-22.7-.7-1.8-3.6-1-2.9.8 2.9 7.4 5.5 15 7.7 22.7.5 1.8 3.4 1.1 2.9-.8z"/></g></g><g id="XMLID_113_"><g id="XMLID_306_"><path id="XMLID_274_" class="st1" d="M101.2 303.8c7-4.6 13.9-9.1 20.9-13.7 2.1-1.3 2.5-2.5 4.8-1 1.1.7 2 2.8 2.7 3.9 1.5 2.3 3 4.6 4.8 6.7 8.4 10.2 23.3 14.3 35.9 16.1 28.1 4.1 55.9-4.7 80.3-18.2-.7-.3-1.5-.6-2.2-.9 1.4 7.1 4.7 13.3 9.9 18.4.2-.8.4-1.7.7-2.5-6.3 2.2-12 4.7-17.6 8.4-6.2 4-12.4 7.5-19.4 9.9-12.9 4.4-26.6 5.7-40.2 5.9-6.6.1-13.4.2-20-.5-8.4-.9-15.4-4.7-22.5-9-12.8-7.7-25.6-15.5-37-25.2-1.5-1.2-3.6.9-2.1 2.1 11.6 9.9 24.6 17.8 37.6 25.6 6.3 3.8 12.7 7.5 20.1 8.8 6.7 1.2 13.7 1.1 20.6 1.1 13.8 0 27.9-1 41.2-5 14.5-4.4 25.9-14.3 40.1-19.3 1-.4 1.5-1.7.7-2.5-4.8-4.8-7.8-10.4-9.1-17.1-.2-1-1.4-1.3-2.2-.9-26.2 14.4-56.8 23.6-86.6 16.2-7-1.7-14.4-4.2-20.4-8.4-6.2-4.3-8.4-11.4-13.5-16.5-2.9-2.9-4.8-.9-7.9 1.1-7 4.6-13.9 9.1-20.9 13.7-1.9 1.2-.4 3.8 1.3 2.8z"/></g></g><g id="XMLID_111_"><g id="XMLID_300_"><path id="XMLID_268_" class="st1" d="M253.5 308.2c8.6-3.1 16.4-7.2 25.5-9.1-.5-.8-1-1.7-1.5-2.5-4.9 3.9-9 8.4-12.5 13.6-.7 1 .2 2.2 1.3 2.3 7.2.2 13.7-3.8 20.9-3.1-.4-.9-.7-1.7-1.1-2.6-6.6 5.4-13.5 10.7-19.7 16.5-3.5 3.3-9.2 11.7-14.5 6.8-2.9-2.7-3.2-7.4-5.4-10.7-1.1-1.6-3.6-.1-2.6 1.5 2.5 3.8 2.8 9.1 6.5 12.1 3.3 2.7 7.3 1.9 10.6-.4 4.4-3.1 7.9-7.7 12-11.2 5-4.2 10.1-8.4 15.2-12.5 1.1-.9.1-2.4-1.1-2.6-7.3-.8-13.7 3.3-20.9 3.1.4.8.9 1.5 1.3 2.3 3.3-5 7.3-9.2 12-13 1.3-1-.1-2.8-1.5-2.5-9.1 2-16.8 6-25.5 9.1-1.6.7-.8 3.6 1 2.9z"/></g></g><g id="XMLID_106_"><g id="XMLID_294_"><path id="XMLID_262_" class="st1" d="M259.2 312.9c-2.9 6.3-6 12.6-7.6 19.5-.4 1.9 2.5 2.7 2.9.8 1.5-6.6 4.4-12.6 7.3-18.8.8-1.7-1.7-3.3-2.6-1.5z"/></g></g><g id="XMLID_97_"><g id="XMLID_288_"><path id="XMLID_255_" class="st1" d="M113.3 307.3c2.9-2.2 5.4-4.8 7.8-7.6-.9-.4-1.7-.7-2.6-1.1.4 3.4 0 6.6-1.5 9.7-.9 1.7 1.7 3.2 2.6 1.5 1.5-3 3.7-5.2 6.8-6.6-.8-.4-1.5-.9-2.3-1.3-.4 3.8-1 7.5-1.8 11.2-.4 1.9 2.5 2.7 2.9.8.9-4 1.6-8 2-12 .1-1.2-1.3-1.7-2.3-1.3-3.5 1.6-6.2 4.2-7.9 7.7.9.5 1.7 1 2.6 1.5 1.8-3.6 2.5-7.3 2-11.2-.1-1.1-1.6-2.2-2.6-1.1-2.3 2.8-4.9 5.3-7.8 7.6-1.6 1.3.6 3.4 2.1 2.2z"/></g></g><g id="XMLID_91_"><g id="XMLID_282_"><path id="XMLID_249_" class="st1" d="M131.5 307.8c-1.5 2.8-3.3 5.4-5.4 7.8-1.3 1.4.8 3.6 2.1 2.1 2.3-2.6 4.3-5.4 5.9-8.4.9-1.7-1.6-3.2-2.6-1.5z"/></g></g><g id="XMLID_133_"><g id="XMLID_276_"><path id="XMLID_243_" class="st1" d="M137.4 310.2c-1.8 2.9-3.6 5.7-5.4 8.6-1 1.6 1.6 3.1 2.6 1.5 1.8-2.9 3.6-5.7 5.4-8.6 1-1.6-1.5-3.1-2.6-1.5z"/></g></g><g id="XMLID_135_"><g id="XMLID_270_"><path id="XMLID_237_" class="st1" d="M143.2 313.2c-2.2.3-6.4 1.4-6.7 4.2-.2 1.5 1.1 2.6 2 3.7 1.4 1.7 2.8 3.5 4.2 5.2 1.2 1.5 3.3-.6 2.1-2.1-1.4-1.7-2.8-3.5-4.2-5.2-.4-.5-.7-.9-1.1-1.4-.1.6.2.5.7-.2.9-.6 1.9-1 3-1.1 1.9-.4 1.9-3.4 0-3.1z"/></g></g><g id="XMLID_141_"><g id="XMLID_264_"><path id="XMLID_230_" class="st1" d="M149.9 317.6c-1.1 3.3-2.3 6.6-3.4 9.9-.6 1.8 2.3 2.6 2.9.8 1.1-3.3 2.3-6.6 3.4-9.9.6-1.8-2.3-2.6-2.9-.8z"/></g></g><g id="XMLID_142_"><g id="XMLID_257_"><path id="XMLID_223_" class="st1" d="M151.3 320.3c1.6.3 3.2.6 4.8.8 1.9.3 2.7-2.6.8-2.9-1.6-.3-3.2-.6-4.8-.8-1.9-.3-2.7 2.5-.8 2.9z"/></g></g><g id="XMLID_147_"><g id="XMLID_251_"><path id="XMLID_216_" class="st1" d="M151.3 326c1.2-.1 2.4 0 3.6.4 1.9.5 2.6-2.4.8-2.9-1.4-.4-2.9-.6-4.4-.5-.8.1-1.5.6-1.5 1.5 0 .8.6 1.6 1.5 1.5z"/></g></g><g id="XMLID_149_"><g id="XMLID_245_"><path id="XMLID_209_" class="st1" d="M148.5 331c1.9 0 3.8.4 5.5 1.2 1.8.8 3.3-1.8 1.5-2.6-2.3-1-4.6-1.5-7.1-1.6-1.8 0-1.8 3 .1 3z"/></g></g><g id="XMLID_155_"><g id="XMLID_239_"><path id="XMLID_202_" class="st1" d="M161.7 321.5c.2 4-.1 7.8-1 11.7-.3 1.2.7 2 1.8 1.8 2.4-.4 4.7-.8 7.1-1.2 1.9-.3 1.1-3.2-.8-2.9-2.4.4-4.7.8-7.1 1.2l1.8 1.8c.9-4.1 1.3-8.3 1.1-12.5 0-1.8-3-1.8-2.9.1z"/></g></g><g id="XMLID_162_"><g id="XMLID_232_"><path id="XMLID_195_" class="st1" d="M175.1 335.5c1.8-4.6 1.9-9.9 4.7-14h-2.6c2.2 4 3.2 8.9 4.6 13.3.6 1.8 3.5 1 2.9-.8-1.5-4.6-2.6-9.7-4.9-14-.6-1-2-.9-2.6 0-3 4.4-3.2 9.9-5 14.8-.7 1.7 2.2 2.5 2.9.7z"/></g></g><g id="XMLID_169_"><g id="XMLID_225_"><path id="XMLID_188_" class="st1" d="M175.3 332.5l4.2-.3c1.9-.1 1.9-3.1 0-3l-4.2.3c-2 .2-2 3.2 0 3z"/></g></g><g id="XMLID_176_"><g id="XMLID_218_"><path id="XMLID_180_" class="st1" d="M185.4 322.9c.9 3.8 1.6 7.6 2.1 11.5.3 1.9 3.2 1.1 2.9-.8-.5-3.9-1.2-7.7-2.1-11.5-.5-1.9-3.4-1.1-2.9.8z"/></g></g><g id="XMLID_183_"><g id="XMLID_212_"><path id="XMLID_172_" class="st1" d="M189.7 328.1c.8-.1 1.7-.2 2.5-.3.8-.1 1.5-.6 1.5-1.5 0-.7-.7-1.6-1.5-1.5-.8.1-1.7.2-2.5.3-.8.1-1.5.6-1.5 1.5 0 .8.7 1.6 1.5 1.5z"/></g></g><g id="XMLID_190_"><g id="XMLID_205_"><path id="XMLID_165_" class="st1" d="M191.6 322.1c.6 3.7 1.1 7.5 2.8 10.9.8 1.7 3.4.2 2.6-1.5-1.5-3.2-1.9-6.8-2.5-10.2-.3-1.9-3.2-1.1-2.9.8z"/></g></g><g id="XMLID_197_"><g id="XMLID_198_"><path id="XMLID_157_" class="st1" d="M201.8 331.5c.5-4.4.9-8.8 1-13.2-.9.3-1.9.5-2.8.8 2.8 3.9 3 8.9 5.8 12.8 1.1 1.6 3.7.1 2.6-1.5-2.8-3.9-3.1-8.9-5.8-12.8-.8-1.2-2.7-.8-2.8.8-.1 4.4-.5 8.8-1 13.2-.2 1.8 2.8 1.8 3-.1z"/></g></g><g id="XMLID_204_"><g id="XMLID_191_"><path id="XMLID_150_" class="st1" d="M200.6 330.2c1 .2 1.9.1 2.9-.4.7-.3.9-1.4.5-2.1-.4-.8-1.3-.9-2.1-.5.2-.1-.5.1-.2.1h-.4c-.8-.1-1.7.2-1.8 1-.1.8.3 1.7 1.1 1.9z"/></g></g><g id="XMLID_211_"><g id="XMLID_184_"><path id="XMLID_136_" class="st1" d="M207.1 318.9c.8 1.7 1.9 3.2 3.2 4.5 1.4 1.4 3.5-.7 2.1-2.1-1.1-1.2-2-2.4-2.8-3.9-.8-1.7-3.4-.2-2.5 1.5z"/></g></g><g id="XMLID_222_"><g id="XMLID_174_"><path id="XMLID_134_" class="st1" d="M212.7 317.4c-.8 4.1-1.6 8.3-2.3 12.4-.3 1.9 2.6 2.7 2.9.8.7-4.2 1.4-8.3 2.3-12.4.4-1.9-2.5-2.7-2.9-.8z"/></g></g><g id="XMLID_229_"><g id="XMLID_167_"><path id="XMLID_132_" class="st1" d="M219.5 328.8v-.2c0-.8-.7-1.5-1.5-1.5s-1.5.7-1.5 1.5v.2c0 .8.7 1.5 1.5 1.5.8-.1 1.5-.7 1.5-1.5z"/></g></g><g id="XMLID_236_"><g id="XMLID_159_"><path id="XMLID_131_" class="st1" d="M224.3 315.2c-4.2.2-5.6 5.7-4.9 9.2 1 4.9 6 4.4 9.6 2.8 1.8-.8.2-3.4-1.5-2.6-1.8.8-4.8 1.8-5.2-1.1-.2-1.3.2-5.2 2-5.3 1.9-.1 1.9-3.1 0-3z"/></g></g><g id="XMLID_260_"><g id="XMLID_152_"><path id="XMLID_126_" class="st1" d="M232.6 312c-2.5 1.2-4 3.8-3.7 6.6.3 2.5 2.7 5.8 5.6 5.1 2.6-.7 3.9-4.3 3.8-6.7-.1-2.8-2.5-5.4-5.4-5.1-1.9.2-1.9 3.2 0 3 3.9-.4 2.3 6.3.4 5.7-1.1-.3-1.6-2.4-1.4-3.3.2-1.3 1.1-2.1 2.2-2.7 1.8-.9.3-3.5-1.5-2.6z"/></g></g><g id="XMLID_161_"><g id="XMLID_144_"><path id="XMLID_125_" class="st1" d="M242.4 318.2c.2-1.8.1-3.5-.4-5.2-.5-1.8-1.6-3.4-1.5-5.3-.9.4-1.7.7-2.6 1.1 1.4 1.2 2.8 2.4 4.1 3.6 1 .8 2.5.3 2.6-1.1 0-.5-.3-3.7 0-4-.5.1-1 .3-1.5.4.4.1 2 2.6 2.5 3.2 1 1.3 2.1 2.7 3.1 4 1.2 1.5 3.3-.6 2.1-2.1-1.3-1.7-2.6-3.4-4-5.1-.8-1-1.6-2.7-3-2.9-3.1-.5-2.3 4.9-2.3 6.5.9-.4 1.7-.7 2.6-1.1-1.4-1.2-2.8-2.4-4.1-3.6-1-.8-2.5-.3-2.6 1.1-.1 1.7.6 3 1.2 4.5.7 2 .9 3.9.7 6-.1 2 3 1.9 3.1 0z"/></g></g><g id="XMLID_78_"><g id="XMLID_127_"><path id="XMLID_90_" d="M135.5 342.5h-.2c-.8 0-1.5.7-1.5 1.5s.7 1.5 1.5 1.5h.2c.8 0 1.5-.7 1.5-1.5s-.7-1.5-1.5-1.5z"/></g></g><g id="XMLID_96_"><g id="XMLID_121_"><path id="XMLID_85_" d="M137 346.8c1.9 0 1.9-3 0-3s-1.9 3 0 3z"/></g></g><g id="XMLID_182_"><g id="XMLID_72_"><path id="XMLID_119_" class="st3" d="M136.1 343.9c-.4 4.8 2.2 9.5 5.8 12.8s8.1 5.3 12.6 7.2c4.2 1.7 8.4 3.3 12.8 4.3 8.8 2 18 1.6 27 .4 5.4-.7 10.8-1.7 16.1-3 1.4-.3 2.9-.7 4.1-1.6 2.2-1.5 3.1-4.4 3.3-7.1 4.3.2 8.7-.3 12.8-1.5 0-1.8-.4-3.5-1-5.1-4.9 1-9.9 1.6-14.9 1.5-.3 0-.7 0-1-.2-.3-.2-.5-.5-.7-.8-1.8-2.7-5.3-4-8.6-4s-6.5.8-9.7 1.3c-16.7 2.9-33.6-2.5-50.4-4.9-2.9-.4-5.9-.8-8.8-.2"/><g id="XMLID_114_"><path id="XMLID_84_" d="M134.6 343.9c-.2 8 5.1 14.1 11.8 17.8 7.9 4.5 17.2 7.8 26.2 8.9 10 1.2 20.3 0 30.1-1.8 8.1-1.5 15.5-2.3 16.5-11.8l-1.5 1.5c4.5.1 8.8-.4 13.2-1.6.6-.2 1.2-.8 1.1-1.4-.2-2-.5-3.6-1.1-5.5-.3-.8-1-1.2-1.8-1-3.8.8-11.3 3-15.1.9-2.4-1.3-3.3-3.3-6.4-4.1-6.8-1.7-14.5 1.5-21.3 1.7-9 .2-17.9-1.3-26.7-3-7.8-1.5-16.2-3.9-24.1-3-1.9.2-1.9 3.2 0 3 8.8-1.1 18.4 2 27.1 3.5 8.1 1.5 16.4 2.7 24.7 2.4 3.8-.2 7.4-.8 11.1-1.4 2-.3 4.1-.7 6.1-.7 3.6.2 4.8 1.8 7.5 3.6 4.6 3.2 12.7.9 18.1-.2-.6-.3-1.2-.7-1.8-1 .6 1.5.9 3.1 1 4.7.4-.5.7-1 1.1-1.4-4.1 1.1-8.2 1.6-12.4 1.5-.9 0-1.4.7-1.5 1.5-.6 5.7-4.9 6.9-9.8 8-3.6.8-7.2 1.4-10.8 1.9-8 1.1-16.4 1.7-24.4.5-7-1.1-14-3.7-20.4-6.8-6.8-3.3-13.3-8.4-13.2-16.7-.2-2-3.2-2-3.3 0z"/></g></g><g id="XMLID_175_"><path id="XMLID_112_" class="st3" d="M137.2 344.3c1.3.1 2 2 1 2.8 1-1.1 2-2.1 3-3.2-.6 1.8-1 3.7-1.2 5.6 1.5-1.3 3-2.5 4.5-3.9-.9 2.4-1.7 4.9-2.4 7.3 2.2-2.1 4.4-4.3 6.6-6.4-.8 2.6-1.6 5.2-2.4 7.7 1.7-2.4 3.4-4.7 5.1-7.1-1.5 3.4-2.7 7-3.5 10.6 1.3-2.4 2.6-4.8 4-7.3.5 1.7 2.4 2.6 4.1 3.3 7.4 2.9 15.3 4.3 23.2 5.4 2.4.3 4.8.7 7.2.6 2.1-.1 4.1-.4 6.1-.7 8.4-1.3 16.9-2.1 25.3-2.9 0-1-.5-2-1.4-2.5"/><g id="XMLID_107_"><path id="XMLID_79_" d="M136.4 345.6c.2.3.3.5.5.8-.7 1.5 1.1 3.1 2.4 1.8 1-1.1 2-2.1 3-3.2-.8-.5-1.7-1-2.5-1.5-.5 1.9-.9 3.7-1.2 5.6-.2 1.5 1.3 2.5 2.5 1.5l4.5-3.9c-.8-.5-1.7-1-2.5-1.5-.9 2.4-1.7 4.9-2.4 7.3-.4 1.5 1.5 2.5 2.5 1.5 2.2-2.1 4.4-4.3 6.6-6.4-.8-.5-1.7-1-2.5-1.5-.8 2.6-1.6 5.2-2.4 7.7-.5 1.7 1.8 2.5 2.7 1.2 1.7-2.4 3.4-4.7 5.1-7.1l-2.7-1.2c-1.4 3.5-2.6 7-3.5 10.6-.4 1.6 1.9 2.7 2.7 1.2 1.3-2.4 2.6-4.8 4-7.3h-2.6c2.1 3.9 7.1 4.9 11 6 6.2 1.8 12.6 2.8 18.9 3.6 4.9.6 9.4.1 14.3-.6 7.6-1.1 15.3-1.8 23-2.6 1-.1 1.6-.9 1.4-1.9-.2-1.4-.7-2.3-1.8-3.1-1.5-1.2-3.6.9-2.1 2.1.4.6.7 1.2 1.1 1.8.5-.6 1-1.3 1.4-1.9-5.5.5-11.1 1.1-16.6 1.7-4.9.6-9.9 1.7-14.9 1.9-5.3.2-10.8-1-15.9-2-4.5-.9-14.9-2.1-17.3-6.5-.5-1-2.1-1-2.6 0-1.3 2.4-2.6 4.8-4 7.3l2.7 1.2c.9-3.6 2.1-7.2 3.5-10.6.7-1.7-1.8-2.4-2.7-1.2-1.7 2.4-3.4 4.7-5.1 7.1l2.7 1.2c.8-2.6 1.6-5.2 2.4-7.7.5-1.5-1.5-2.5-2.5-1.5-2.2 2.1-4.4 4.3-6.6 6.4.8.5 1.7 1 2.5 1.5.7-2.5 1.5-4.9 2.4-7.3.6-1.5-1.5-2.4-2.5-1.5-1.5 1.3-2.9 2.6-4.5 3.9.8.5 1.7 1 2.5 1.5.3-1.9.7-3.7 1.2-5.6.4-1.4-1.5-2.6-2.5-1.5s-2 2.1-3 3.2l2.4 1.8c1-2 .6-4-1.6-4.9-1.6-.7-3.2 1.8-1.4 2.6z"/></g></g></g><g id="XMLID_3_"><g id="XMLID_7_"><g id="XMLID_98_"><path id="XMLID_65_" class="st1" d="M120.5 94.8c.5 2.6 1.3 5.1 2.8 7.4 1.6 2.5 3.8 4.6 4.7 7.5.3.9 1.4 1.4 2.2.9 3.3-2.1 6.8-3.4 10.7-3.9 1.9-.2 1.9-3.2 0-3-4.5.5-8.5 1.9-12.3 4.3.7.3 1.5.6 2.2.9-1.8-5.5-6.4-9-7.5-15-.2-1.8-3.1-1-2.8.9z"/></g></g><g id="XMLID_9_"><g id="XMLID_92_"><path id="XMLID_59_" class="st1" d="M152.2 104.6c.4-3.6.8-7.1 1.4-10.7.3-2.1.3-9.1 3.5-7.5 2.1 1 4.5 5.1 5.6 6.9 1.7 2.7 3 5.6 4 8.7.6 1.8 3.5 1 2.9-.8-1.5-4.4-3.5-8.4-6.2-12.1-1.6-2.2-4.5-6.7-7.7-6.8-3.2 0-3.9 3.7-4.3 6.1-1 5.4-1.6 10.8-2.2 16.2-.2 2 2.8 1.9 3 0z"/></g></g><g id="XMLID_10_"><g id="XMLID_86_"><path id="XMLID_52_" class="st1" d="M153.8 99.4c3.3-1.4 6.7-2.4 10.2-3.1 1.9-.4 1.1-3.3-.8-2.9-3.8.7-7.4 1.9-11 3.4-1.7.8-.2 3.4 1.6 2.6z"/></g></g><g id="XMLID_21_"><g id="XMLID_80_"><path id="XMLID_45_" class="st1" d="M179.7 83.7c.3 5.2.4 10.4.4 15.7 0 1.9 3 1.9 3 0 .1-5.2-.1-10.4-.4-15.7-.1-1.9-3.1-2-3 0z"/></g></g><g id="XMLID_22_"><g id="XMLID_74_"><path id="XMLID_38_" class="st1" d="M182.4 93.2c3.6-.9 7.2-1.2 10.9-1 1.9.1 1.9-2.9 0-3-4-.2-7.9.2-11.7 1.1-1.8.5-1 3.4.8 2.9z"/></g></g><g id="XMLID_26_"><g id="XMLID_68_"><path id="XMLID_31_" class="st1" d="M192.1 83.7l-.3 16c0 1.9 3 1.9 3 0l.3-16c0-2-3-2-3 0z"/></g></g><g id="XMLID_27_"><g id="XMLID_61_"><path id="XMLID_20_" class="st1" d="M207.9 102.7c3.8-5.9 7.9-11.5 12.3-16.8h-2.1c3.1 2.8 1.6 8.9 1.5 12.5 0 3.3.4 6.3 1.8 9.3.8 1.8 3.4.2 2.6-1.5-3-6.6 2-17.2-3.8-22.4-.6-.5-1.6-.6-2.1 0-4.6 5.6-8.9 11.4-12.8 17.4-1 1.6 1.6 3.1 2.6 1.5z"/></g></g><g id="XMLID_29_"><g id="XMLID_54_"><path id="XMLID_8_" class="st1" d="M211 100l10.3.3c1.9.1 1.9-2.9 0-3L211 97c-1.9-.1-1.9 2.9 0 3z"/></g></g><g id="XMLID_35_"><g id="XMLID_47_"><path id="XMLID_6_" class="st1" d="M238.5 92.7c-.1 3.7.2 7.4.9 11.1.4 1.9 3.3 1.1 2.9-.8-.6-3.4-.9-6.8-.8-10.3.1-2-2.9-2-3 0z"/></g></g><g id="XMLID_42_"><g id="XMLID_40_"><path id="XMLID_5_" class="st1" d="M251.6 95.7c-5.6 3.8-10.8 8.1-15.8 12.7.8.5 1.7 1 2.5 1.5 0-.2.1-.3.1-.5.4-1.9-2.5-2.7-2.9-.8 0 .2-.1.3-.1.5-.3 1.5 1.4 2.5 2.5 1.5 4.7-4.5 9.8-8.6 15.2-12.2 1.6-1.2.1-3.8-1.5-2.7z"/></g></g><g id="XMLID_49_"><g id="XMLID_33_"><path id="XMLID_4_" class="st1" d="M98.2 98.3c4.4 5.4 9.1 10.6 14.1 15.4 2.9 2.8 7.5 9.2 12.1 8.5 2.5-.4 5-2.1 7.3-3.2 3.7-1.8 7.5-3.7 11.3-5.2 7.4-2.9 15.2-4.5 23.1-5.2 14.4-1.3 28.9.2 43.2 1.7 8.3.9 16.1 2.3 23.6 6 6.6 3.3 13 7.2 19.5 10.8.6.3 1.4.3 1.8-.2 5.8-6.4 11.6-12.7 17.4-19.1 2.1-2.3 7.5-6.1 4.2-9.4-2.1-2.1-6.8-3.2-9.6-4.4-3.3-1.4-6.5-2.7-9.8-4.1-7.5-3-14.9-5.9-22.5-8.7-14.6-5.4-29.3-7.2-44.8-7.3-14.6-.1-29.5-.3-43.9 2.4-7.8 1.5-15.4 3.9-22.4 7.7-7.8 4.2-15 9.5-23.8 11.7-1.9.5-1.1 3.4.8 2.9 7.9-2 14.6-6.3 21.5-10.4 7.5-4.3 15.3-7.3 23.7-8.9 16.9-3.3 35.2-2.9 52.4-2.3 9.5.4 18.8 1.5 27.9 4.3 8.2 2.5 16.1 5.9 24.1 9 4.1 1.6 8.1 3.2 12.1 4.9 2.7 1.1 5.5 2.3 8.2 3.5 2.5 1.1 4.3.8 2.4 3.9-2.3 3.7-6.4 7-9.4 10.3-3.6 3.9-7.2 7.8-10.7 11.8.6-.1 1.2-.2 1.8-.2-12.2-6.8-23.7-14.4-37.8-16.4-13.8-2-28-3.2-41.9-2.9-13.7.3-26.6 3-39 8.8-3.1 1.5-9.5 5.9-13 4.6-2.3-.9-5.3-4.8-7.1-6.4-5.2-5-10.1-10.4-14.7-16-1.2-1.5-3.3.6-2.1 2.1z"/></g></g><g id="XMLID_56_"><g id="XMLID_24_"><path id="XMLID_2_" class="st1" d="M109 111.7l-22.2 23.4c-1 1 0 3.1 1.5 2.5 9.3-3.6 18.7-7.2 28-10.8-.6-.5-1.3-1-1.9-1.4-.8 6.8-6.3 11.9-7.7 18.6-.3 1.5 1.3 2.4 2.5 1.5 4.1-3.3 6-8.2 9.7-11.8 5-4.8 12-5.4 18.5-6 1-.1 1.7-.9 1.4-1.9-.7-3.3-1.7-6.3-3-9.4-.8-1.8-3.4-.2-2.6 1.5 1.2 2.8 2.1 5.7 2.7 8.6.5-.6 1-1.3 1.4-1.9-6.2.5-12.7 1.1-18 4.7-5.3 3.6-7.4 10-12.3 13.9.8.5 1.7 1 2.5 1.5 1.5-7 7-12.2 7.8-19.4.1-.9-1.1-1.8-1.9-1.4-9.3 3.6-18.7 7.2-28 10.8.5.8 1 1.7 1.5 2.5l22.2-23.4c1.4-1.4-.7-3.5-2.1-2.1z"/></g></g><g id="XMLID_67_"><g id="XMLID_16_"><path id="XMLID_1_" class="st1" d="M237.4 120.2c-1 3.8-2 7.7-2.8 11.5-.3 1.2.7 2 1.8 1.8 10.7-1.5 17.9 7.3 23.4 15 .9 1.2 2.6.8 2.8-.8.6-5.8.7-11.6.4-17.4-.6.5-1.3 1-1.9 1.4 6.3 2.4 12 5.6 17.3 9.7 1.1.8 2.4.3 2.6-1.1.4-4.8-3.3-8.6-5.8-12.3-3.3-4.8-6.7-9.7-10-14.5-1.1-1.6-3.7-.1-2.6 1.5 2.6 3.8 5.3 7.6 7.9 11.5 2.5 3.6 8 9.1 7.5 13.8.9-.4 1.7-.7 2.6-1.1-5.7-4.5-11.8-7.9-18.6-10.5-.9-.3-1.9.5-1.9 1.4.3 5.8.1 11.6-.4 17.4.9-.3 1.9-.5 2.8-.8-6.5-9.1-14.6-18.2-26.8-16.4l1.8 1.8c.9-3.9 1.8-7.7 2.8-11.5.5-1.5-2.4-2.3-2.9-.4z"/></g></g></g></svg>