<svg xmlns="http://www.w3.org/2000/svg" viewBox="0 0 960 560" style="width:400px"><path d="M5.8-233.5c5-7.8 11.7-14.4 19.8-19.1 3.6-2.1 8.9-5.4 13.3-4.6 7.6 1.3 2.3 10.1-.2 13.7-10.5 15-27.1 25-45 28.2 1.1 1.5 2.3 2.9 3.4 4.4 7.6-12.6 17.8-23.6 30-31.9 5.8-3.9 12.1-7.7 18.7-10.1 8.5-3.1 11.8 4 12.1 11.4.6 13.2-4.5 27.5-11.1 38.7-7.2 12.2-17.3 22.4-29.5 29.6l4.1 4.1c14.3-24.7 33.1-46.5 55.4-64.3 11.2-8.9 23.3-16.8 36.1-23.4 3-1.6 6.1-3.1 9.1-4.5 1.7-.8 3.3-1.5 5-2.3 2.6-1.1 5-2.5 7.2-.4 2.1 2.1.9 4.2-.3 6.5-.8 1.5-1.8 3-2.7 4.5-2.4 3.8-4.7 7.6-7.1 11.4-10.6 16.8-21.6 33.4-33 49.8-1.9 2.8 2.6 6.3 4.7 3.6 12.9-16.2 25.9-32.5 40.8-47 7.4-7.2 15.2-14 23.6-19.9 4-2.8 8.3-6.1 12.8-7.9 9.3-3.5 5.5 6.5 3.2 10.8-9.9 18.8-21.6 36.7-29.2 56.7-2.5 6.5-7.6 17.2-3.2 23.9 5.4 8.1 14.5 1.1 19.4-3.4 19.6-17.8 38.8-36.2 57.4-55l-4.2-4.2c-18.2 20.8-37.1 43.3-40 71.8-.3 2.6 3.5 4 5.1 2.1 10.3-11.6 20.1-24 31.1-34.8 2.7-2.6 6-5.5 10-5.1 2.8.3 5.2 2.2 7.4 3.8 4 2.8 7.8 5.7 13 5.1 2-.2 4.1-2.5 2.6-4.5-9.6-13.5-29.1 6-35.3 13.8-4.5 5.6-11 13.9-9.2 21.6 1.5 6.9 8.9 10.5 15.5 10.1 8.4-.5 16.4-5.9 23.4-10.1 7.5-4.5 14.6-9.4 21.4-14.8 13.7-10.8 25.8-23.4 36.3-37.3 5.9-7.9 11.6-16.3 16-25.2 3.6-7.4 5.6-16.1-.2-22.9-1.3-1.6-3.7-.9-4.7.6-24.3 35.7-42.5 75.3-53.8 117 1.9.5 3.9 1.1 5.8 1.6 3.8-16.6 12.4-31.6 25.2-42.9 2-1.7 5.2-5.3 7.4-2.3 1 1.4 1 4 1 5.7 0 4.8-.6 9.7-.9 14.5-.4 6.1-1.4 13.8 3 18.8 4.5 5.2 10.6 2.3 15.1-1.3 6.8-5.4 12.4-12 18-18.6 11.1-13.3 24.3-28.9 43.2-28.6v-6c-14.3.9-27.8 6.6-38.5 16.2-6.6 5.9-22.2 22.6-11.1 30.9 10 7.4 25.5-2.1 34.1-7.5 13-8.2 23.8-19.4 31.8-32.4 1.8-3-2.2-5.8-4.7-3.6-7.6 6.7-15.9 14.4-17.4 24.9-1.2 8.6 2.3 18.3 11 21.4 9.7 3.4 22-1.1 30.8-5.3 9.6-4.6 18.1-11.5 24.7-19.9 5-6.3 13.8-18 8.7-26.3-4.6-7.6-15.2-4.6-21.4-.9-8.8 5.4-17.9 14.4-19.5 25.1-1.4 9.9 4.8 18.3 13.7 22.1 11.1 4.7 23.2 1.2 33.8-3.1 10.4-4.2 20.3-9.3 29.7-15.3 18.8-12.1 35.2-27.7 48.2-45.8 7.9-11 28.4-40.1 8.8-50.3-9.5-4.9-20.3 2.1-27.5 7.9-8.6 6.9-15.9 15.7-20.8 25.6-10.9 22.1-8.8 50.1 9.5 67.7 20.8 20.1 51.3 21.5 78.5 22.1 3.9.1 3.9-5.9 0-6-20.2-.5-41.5-.9-59.9-10.3-16.7-8.6-28.1-23.9-28.8-43-.7-18.3 8-35.4 21.1-47.8 5.7-5.4 16.7-15.3 25.2-10.8 8 4.2 4 16.1.9 22.2-15.2 30.8-42.8 56.3-73.1 71.8-8 4.1-16.6 8.1-25.4 10.2-9.3 2.2-21.5 1.4-26.6-8.1-4.8-9 2.3-18.6 8.9-24.3 3.2-2.8 6.7-5.5 10.8-6.8 5.4-1.8 10.7-.5 8.7 6.4-2.6 8.7-9.8 16.9-16.5 22.7-7.2 6.4-15.9 11.1-25.2 13.6-5 1.4-11.5 3-16.4.5-4.2-2.1-6-6.9-6.2-11.3-.3-10.5 8.7-18.3 15.9-24.6-1.6-1.2-3.1-2.4-4.7-3.6-6.4 10.4-14.6 19.5-24.4 26.7-4.5 3.3-9.2 6.1-14.2 8.6-4.6 2.2-9.7 4.7-14.9 4-13.2-1.8 6-21.4 10.4-24.9 9.1-7.3 20.4-11.7 32-12.5 3.8-.2 3.9-5.9 0-6-31.1-.5-43.9 32.2-65.1 48.7-1.6 1.2-3.7 3.1-5.7 2.3-1.6-.6-2.1-2.7-2.4-4.2-.7-3.3-.2-6.8 0-10.2.4-6.7 2.1-14.6.2-21.3-1.2-4.4-4.6-7.9-9.4-7.2-5.6.9-10.5 6.9-14.2 10.8-10.4 11.3-17.6 25.1-21.1 40.1-.9 3.8 4.8 5.3 5.8 1.6 11.1-41.2 29.1-80.2 53.2-115.5-1.6.2-3.1.4-4.7.6 5.9 7-2 18.2-5.7 24.4-4.2 7-8.9 13.8-13.9 20.2-10.3 13-22.3 24.8-35.6 34.8-6.3 4.8-12.9 9.1-19.8 13.1-6.3 3.6-19 12.3-25.6 5.1-5.9-6.4 5.8-19.2 10.1-23.6 3.1-3.2 17.1-16.9 21.8-10.3.9-1.5 1.7-3 2.6-4.5-6.1.7-10.6-5.7-16-7.9-5.5-2.2-10.9-.6-15.4 2.9-6.2 4.8-11.1 11.6-16.3 17.4-6 6.8-12 13.6-18.1 20.3l5.1 2.1c2.8-26.8 21.2-48.2 38.3-67.6 2.5-2.9-1.5-7-4.2-4.2-16.6 16.8-33.6 33.2-51 49.2-1.9 1.7-3.8 3.4-5.7 5.2-1.9 1.7-4.5 4.8-7.1 5.4-7.8 1.9-2.7-11.3-1.6-14.5 3.6-10.7 8.6-20.8 14-30.6 5.2-9.6 10.8-19.1 16-28.8 3.1-5.8 7.6-14.7.8-19.7-6.5-4.8-15.1 1.4-20.5 4.9-8.4 5.5-16.2 11.7-23.5 18.5-17.2 15.7-31.8 34-46.2 52.2 1.6 1.2 3.1 2.4 4.7 3.6 11.7-16.9 23.1-34 34-51.4 4.1-6.4 11.3-14.5 11.4-22.5.1-6.7-5.9-9.6-11.8-8.3-7.6 1.7-15.2 6.4-22 10-7.1 3.8-14.1 8-20.7 12.6-13.6 9.3-26.2 19.9-37.6 31.8-12.8 13.4-24 28.3-33.2 44.4-1.5 2.6 1.5 5.6 4.1 4.1C43-181 59-203.8 63.3-229.2c1.5-9.2 2.9-23.5-6.8-29.1-5.1-2.9-10.6-.9-15.5 1.2-6.2 2.8-12.2 6.1-17.8 10C10.2-238.3-.3-227-8.2-214c-1.5 2.4.9 4.8 3.4 4.4 12-2.1 23.3-7.1 32.9-14.6 8.1-6.2 19.3-16.5 20.5-27.3.5-4.7-1.5-9.2-6-11-4.8-1.9-10.2-.1-14.6 1.9-11.3 5.1-20.7 13.6-27.4 24-2.1 3.3 3.1 6.3 5.2 3.1z" fill="red" stroke="#ff0" stroke-width="5"/><path d="M609.8-250.7c-5.1 5 1.5 11.4 6.2 13.4 6.8 3 15 1.8 21.8-.5 8.2-2.8 15.9-7.1 22.7-12.5 5-3.9 14.4-11.4 9.1-18.5-1.1-1.5-3.2-2.1-4.7-.6-22.2 22.1-10.1 56.8-26.1 81.6-6.7 10.4-20.4 21.2-33.6 17.6-2.8-.8-6.3-2.3-7.4-5.3-1.8-4.9 3.6-8.9 8-9.3 8.3-.7 16.7 5.4 23.3 9.7 13.8 8.9 28.5 18.7 45.8 14.9 3.8-.8 2.2-6.6-1.6-5.8-20.5 4.6-36.5-13.4-53.5-21.4-6.8-3.2-15.1-5.3-21.9-.9-5.3 3.4-8.3 10.2-5.2 16.1 6.5 12.4 25 9 34.8 3.4 13.9-8.1 21.9-22.8 24.9-38.3 3.7-19.6 1.5-42.9 16.8-58.1-1.6-.2-3.1-.4-4.7-.6 4.7 6.2-19.8 18.7-24 20.5-4.3 1.8-8.8 3.4-13.5 3.7-2.2.1-4.4.1-6.5-.5-.7-.2-7.3-3.4-6.3-4.4 2.6-2.7-1.7-6.9-4.4-4.2zm125.6 57.8c.7-5.4-2.8-10.2-7.8-12.2-5.1-2.1-10.7-.5-15.2 2.3-9.8 6.2-20.3 19.6-20.7 31.6-.2 4.9 1.9 10.1 6.3 12.6 5 2.8 10.9.9 15.4-2.1 10.4-7.1 17.3-19 19.4-31.3-1.9-.5-3.9-1.1-5.8-1.6-1.5 11-2.9 23.1 3.3 33 5.8 9.2 15.4 11.3 25.7 10.5 3.8-.3 3.9-6.3 0-6-8.6.7-16.8-.6-21.2-8.8-4.5-8.2-3.2-18.2-2-27.1.5-3.7-5.1-5.5-5.8-1.6-1.3 7.6-4.3 14.8-9.3 20.8-4.2 5.1-18.3 16.5-20 3.4-1-8 6.4-17.7 11.6-23 2.9-3 6.2-6 10.3-7.2 4.7-1.4 10.5 1 9.8 6.7-.5 3.9 5.5 3.8 6 0zm78.4-46.9c5.7 11.2-10.3 15.9-18.3 15.5-4.4-.3-10.4-1.7-11.8-6.7-1.5-5.4 5.1-10.1 8.8-12.8 12.2-8.7 36.3-18.5 49.3-6.5 13.9 13 5.9 33.7-2.4 47.2-9.4 15.2-21.7 28.6-36 39.4-3 2.3-.1 7.5 3 5.2 15.6-11.8 29-26.2 39-43 8.8-14.6 14.9-34.1 3.8-49.3-11.3-15.5-32-11.5-47.2-5.1-7.9 3.3-17 8.3-22 15.7-4.4 6.5-2.6 14.4 4 18.6 13.8 9 45.1-1.4 35-21.3-1.7-3.3-6.9-.3-5.2 3.1z"/><path d="M895.7-254.4c-13.3 31.9-26.5 63.8-39.8 95.7 1.8-.2 3.7-.5 5.5-.7-7-14.5-16.8-27.5-28.8-38.2-1 1.7-1.9 3.3-2.9 5 26.7 8.7 54.3 17 82.6 12-.8-1.8-1.5-3.7-2.3-5.5-10.8 8-22.1 15.6-32.5 24.2-5.5 4.5-10.3 14.7-2.1 19.5 7.7 4.6 17.8-5.8 22-11.3 6.1-8.1 9.1-18.2 8.1-28.4-.3-3.2-5-4.3-5.9-.8-3.2 11.9-10.5 24.9-2.7 36.7 6.9 10.6 19.7 7.3 26.9-1.2 4.1-4.8 6.2-10.8 9.3-16.2 1.3-2.2 4.6-8.2 7.7-7.3 3 1 1.2 7.4.9 9.9-.5 4-1 8-1.5 11.9-.4 3-1.3 6.5-.5 9.5 1.3 4.9 6.5 5.9 10.8 4.7 6.3-1.7 12.2-6.8 17.1-11.1 6-5.2 11.1-11.4 15.5-18-1.8-.2-3.7-.5-5.5-.7 5 32.8-19.8 62.9-52.8 64.7 1 1.3 1.9 2.5 2.9 3.8 2.1-9.1 12.6-15.6 19.2-21.5 7.3-6.5 14.7-13.1 22-19.6 15.2-13.5 30.3-27 45.5-40.5 2.9-2.6-1.4-6.8-4.2-4.2-16.1 14.4-32.3 28.8-48.4 43.1-7.8 7-15.6 13.9-23.5 20.9-6.4 5.7-14.3 11.3-16.3 20.2-.4 1.8.9 3.9 2.9 3.8 37.2-2 64.2-35.6 58.6-72.3-.4-2.7-4.2-2.7-5.5-.7-4.4 6.7-9.6 12.7-15.8 17.9-3.2 2.7-6.7 5.4-10.4 7.3-1.1.6-3.2 1.9-4.4 1.5-2.9-1-1.5-4.7-1.2-6.8.7-5.7 7.7-32.7-6-30.6-5.9.9-10.2 7.7-12.8 12.5-3.5 6.4-6.1 14.2-12.6 18.3-7.9 4.9-14.3-1.7-15.1-9.6-.9-8.4 3.9-16.8 6-24.6-2-.3-3.9-.5-5.9-.8.7 7.2-.6 14.2-4.2 20.6-2.3 4.2-10.6 15.7-16.3 13.6-8.4-3.1 9.5-14.8 12.1-16.8l21.9-16.2c2.7-2 1.1-6.1-2.3-5.5-27.1 4.8-53.9-3.8-79.4-12-2.8-.9-5.1 3-2.9 5 11.7 10.5 21 22.9 27.8 37 1.3 2.6 4.6 1.4 5.5-.7 13.3-31.9 26.5-63.8 39.8-95.7 1.1-3.8-4.7-5.3-6.1-1.8zM236-247v-1c0-1.6-1.4-3.1-3-3-1.6.1-3 1.3-3 3v1c0 1.6 1.4 3.1 3 3 1.6-.1 3-1.3 3-3z"/></svg>