<svg version="1.1" id="Layer_1" xmlns="http://www.w3.org/2000/svg" xmlns:xlink="http://www.w3.org/1999/xlink" x="0px" y="0px"
	 viewBox="0 0 960 500" style="enable-background:new 0 0 960 500;" xml:space="preserve">
	 <defs width='0' height='0' >
	 	<pattern id='pattern2' width='25' height='500' patternUnits='userSpaceOnUse' >
	<rect fill='green' y="0" class="st0" width="25" height="500"/>
<g fill='blue' >
	
<rect  y="475" class="st1" width="25" height="25"/>
<rect  x="1" y="451.2" class="st1" width="22.9" height="22.9"/>
<rect  x="2" y="426.8" class="st1" width="21" height="21"/>
<rect  x="2.9" y="403.3" class="st1" width="19.3" height="19.3"/>
<rect  x="3.7" y="380" class="st1" width="17.6" height="17.6"/>
<rect  x="4.4" y="356.5" class="st1" width="16.2" height="16.2"/>
<rect  x="5.1" y="333.1" class="st1" width="14.8" height="14.8"/>
<rect  x="5.7" y="308.4" class="st1" width="13.6" height="13.6"/>
<rect  x="6.3" y="285" class="st1" width="12.5" height="12.5"/>
<rect  x="6.8" y="262.5" class="st1" width="11.4" height="11.4"/>
<rect  x="7.3" y="241.1" class="st1" width="10.5" height="10.5"/>
<rect  x="7.7" y="220.6" class="st1" width="9.6" height="9.6"/>
<rect  x="8.1" y="197" class="st1" width="8.8" height="8.8"/>
<rect  x="8.5" y="172" class="st1" width="8.1" height="8.1"/>
<rect id="XMLID_18_" x="8.8" y="149.2" class="st1" width="7.4" height="7.4"/>
</g>
</pattern>
	 </defs>
<g id="XMLID_4_" fill='url(#pattern2)' >
	<path id="XMLID_5_" d="M20.3,407.9l109.4-20.2c8.7,7.6,17.2,11.8,25.4,12.5c8.3,0.7,17.3-1.8,27.2-7.4
		c10.8-6.2,17.9-13.2,21.2-21.2c2.7-6,2.5-11.6-0.4-16.8c-3.3-5.8-8.9-8.5-16.7-8.2c-5.6,0.2-18.7,4.1-39.3,11.4
		c-30.7,11-52.7,17.6-65.9,19.6c-13.2,2-26.4,0.3-39.5-5.4c-13.1-5.6-23.2-14.8-30.4-27.4c-7.9-13.8-10.6-28-8.3-42.6
		c2.3-14.6,9.1-28.4,20.4-41.3c11.3-13,28.8-26.2,52.5-39.7c25-14.3,44.6-22.9,58.7-25.9c14.1-3,27.4-2.7,40,0.8
		c12.6,3.5,25.4,10.6,38.4,21.3l-63.5,59.5c-5.8-5.6-20.4-17.2-26.8-17.7c-8.7-0.6-17.6,1.6-26.5,6.7c-9.1,5.2-14.8,10.6-17.1,16.2
		c-2.3,5.6-2.2,10.7,0.5,15.3c2.9,5.1,7.8,7.5,14.5,7.1c6.8-0.4,19.6-4.5,38.4-12.5c28.5-12.2,50.8-19.3,66.9-21.4
		c16.1-2,30.5,0,43.1,6c12.6,6.1,22.3,15.1,29.2,27.1c6.9,12.1,10,26,9.2,41.6c-0.8,15.6-7.1,31.3-19,47.1
		c-11.9,15.7-31.4,31.4-58.5,46.8c-38.3,21.8-68.8,31.9-91.3,30.3C89.6,467.8,36.4,425.4,20.3,407.9z"/>
	<path id="XMLID_7_" d="M197.9,131.9l94.8-17l73.1,142.4l20.9-159.3l99.8-24.3l-66.3,263.8l-93.8,57.1L197.9,131.9z"/>
	<path id="XMLID_12_" d="M695.9,373.3l71.3,58.7L715.3,495L644,436.3L695.9,373.3z M853.2,176.6l76.4,62.8l-48.3,58.7L769.6,403.9
		L722.4,365l82.5-129.7L853.2,176.6z"/>
<path id="XMLID_16_" d="M725.5,131.9c-5.4,14.5-15.5,24.5-23.8,36.3c11.7-43.6-28.5-82.1-68.1-91.1c-5.4-1.9-11-3.3-16.6-4.3
	c-22.5-3.8-46.1,0.2-66.2,15c-8.4,6.7-15.1,13.4-21.8,20.1c-5,6.7-10.1,13.4-14,19.6c-3.2,4.9-6.2,10.1-9.2,15.6
	c-15.5,29-21.7,55.7-18.6,80c2.1,17.1,7.3,31.9,15.5,44.2c2.7,4.1,5.8,8,9.2,11.6c27.1,28.5,69,60.3,107.6,36.8
	c-11.7,21.8-25.1,50.3-51.9,48.6c-20.1,0-41.9-11.7-46.9-33.5c0-3.4,1.7-8.4,0-11.7c-3.4-5-11.7-10.1-17.7-13.8
	c-2.8-1.9-5.7-3.9-8.7-6c-21.1-14.5-46.5-32-46.5-32c-2.7,4.4-4.7,7.9-6.2,10.6c-11.5,21.6-12.6,43-3.5,64.4
	c9.2,21.4,35.2,43.4,78,66.3c18.7,10,36.3,17.2,52.6,21.5c16.3,4.4,31.2,5.3,44.6,2.9c13.4-2.5,26.2-8.3,38.4-17.3
	c12.1-9.1,21.8-20.3,28.9-33.7l4.8-9.5c0,0,46-82.2,76.7-136.9c1.9-3.4,3.8-6.7,5.6-9.9c7.8-12,12.8-25.4,21.2-37.2
	c-21.8-15.1-43.6-30.2-59.2-51.5C727.1,133.8,725.5,131.9,725.5,131.9z M578.6,226c-6.3-1.2-12-4.4-16.9-8.6
	c-4.9-4.2-9.1-9.5-12.4-15.1c-2.1-3.3-3.7-6.8-4.9-10.5c-1.4-4.8-1.9-9.6-1.7-14.4c1.6-36,33.4-59.4,66.9-47.7
	c4.2,1.7,8,3.4,11.5,5.2c22,9.8,25.3,36.7,19.9,57.2c-1.3,4.3-3.1,8.4-5.3,12.2c-2.6,4.6-5.8,8.9-9.4,12.5
	c-10.1,10-21.8,16.7-34.8,13.1C587.2,229.2,582.9,227.9,578.6,226z"/>
</g>
</svg>