<?xml version="1.0" encoding="utf-8"?>
<!-- Generator: Adobe Illustrator 19.0.0, SVG Export Plug-In . SVG Version: 6.00 Build 0)  -->
<svg version="1.1" id="Layer_1" xmlns="http://www.w3.org/2000/svg" xmlns:xlink="http://www.w3.org/1999/xlink" x="0px" y="0px"
	 viewBox="0 0 960 560" style="enable-background:new 0 0 960 560;" xml:space="preserve">
<style type="text/css">
	.st0{fill:#00FF1C;}
</style>
<g id="XMLID_1_">
	<g id="XMLID_13_">
		<path id="XMLID_17_" class="st0" d="M19.9,42.2C36.4,64.6,54.4,86,75.3,104.4c13.4,11.7,31.4,27.2,50.4,27
			c21.6-0.2,26.4-23,24.6-40.3c-0.7-7-1.9-13.9-3.4-20.8c-0.2-0.8-0.6-4.3-0.3-1c-0.1-0.8-0.1-1.6-0.2-2.4c0-0.8,0.3-2,0.1-2.7
			c-0.3-1-0.1,0.9-0.2,1.2c0.2-0.6,0.2-1.2,0.4-1.8c0.3-0.8,0.5-1.6,0.8-2.5c-0.5,1.7-0.7,1.4,0.1,0.1c0.4-0.7,0.9-1.5,1.4-2.2
			c1.3-2.2-1.3,1.1,0.5-0.6c1.4-1.3,2.7-2.6,4.1-3.9c1-0.8-0.7,0.5-0.7,0.6c0.5-0.3,0.9-0.7,1.4-1c0.9-0.6,1.7-1.1,2.6-1.6
			c1.9-1.1,3.8-2,5.7-3c2.4-1.2-0.7,0.2,1.2-0.6c1.3-0.5,2.5-1,3.8-1.4c4.7-1.7,9.5-3,14.4-4c2.4-0.5,4.8-1,7.2-1.4
			c1.3-0.2,2.6-0.4,3.9-0.6c0.8-0.1,1.5-0.2,2.3-0.3c-1.3,0.2-0.4,0.1,0.3,0c5.4-0.6,10.8-1.1,16.3-1.3c10.5-0.5,21.1-0.3,31.5,0.8
			c1,0.1,2,0.2,3,0.3c3,0.3-0.8-0.2,1.3,0.2c2.5,0.4,5,0.8,7.5,1.3c6.3,1.4,10.6,3.1,16,6.2c22.7,12.7,39.4,34.7,61.9,48.8
			c28.1,17.6,62.2,18.4,93.5,10.5c32.9-8.3,62-26,91.8-41.4c14.6-7.5,29.4-14.4,45.2-19.2c16-4.9,32.6-8,49.2-9.5
			c33.4-3.1,68.4-2.5,101.7,2.3c29.1,4.2,58.7,13.8,81.3,31.7c40.5,32.1,62.7,83.5,67.1,133.5c5.1,57.8-11.3,120.1-52.7,162.1
			c-42.1,42.7-101.9,61.9-157.5,80.2c-68.4,22.5-137.9,42.9-209.2,53.7c-65.1,9.8-134,11.9-197.6-3.7
			c-50.6-12.4-101.9-37.2-130.9-81.3c-7.3-11.1-14.9-24.1-16.1-37.6c-1.3-14.4,7.6-24,19.3-30.9c25.3-14.9,56.8-14.5,84.5-7.9
			c34.1,8,65.4,24.2,98,36.3c30.7,11.4,62.6,18.7,95.1,22.8c63.7,7.9,130,1.1,190.2-21.4c53-19.8,122.7-57.9,110-125.4
			c-3-16.2-11.1-31.5-20.3-45c-8.9-13-18.9-25.4-29.8-36.7c-22.5-23.2-50.8-40.5-84-40.2c-17.7,0.2-35.1,4.5-51.7,10.5
			c-14.3,5.1-28.4,11.2-41.4,19c-24.2,14.5-45.9,36.1-49.4,65.3c-3.5,29.4,15.4,55.9,39.6,70.4c29.9,18,66.1,16.1,99,9.4
			c26.7-5.4,72.4-12.7,70.9-49c-1.5-35.7-41.3-50.7-71.9-51.2c-15.3-0.3-31,5.7-37.3,20.5c-5.4,12.7-2.7,29,10.3,35.9
			c5.7,3,13,1.5,16.4-4.3c3.2-5.4,1.4-13.3-4.3-16.4c-0.1-0.1-1.8-0.7-0.6-0.2c1.1,0.5-1.1,0-0.1,0c1.4-0.1-1,0.3-0.2-0.5
			c-0.1,0.1,0.8,1.8,0.2,0.5c-0.2-0.3-0.7-2.5-0.4-1c0.3,1.3,0-0.3,0-0.6c0-0.6,0-1.1,0-1.7c0-1.2-0.5,1.3,0.2-0.7
			c0.2-0.6,1.1-3.1,0.4-1.4c0.3-0.7,1.8-3.1,1.5-2.6c-0.5,1,0.4-0.3,0.6-0.5c-0.5,0.4-2,1.1,0.6-0.4c1.2-0.7,2.3-1.2,3.5-1.6
			c5.9-1.9,12.8-1.2,18.9-0.1c6.5,1.2,13.3,2.6,19.4,5.1c5.6,2.3,11.5,5.9,14.9,10.8c1.7,2.4,2.6,4.4,3.4,7.2
			c0.6,2.4,0.8,5.1,0.3,7.2c-1.2,4.7-4.3,7.2-8.7,9.6c-5.1,2.8-10.8,4.4-17,6c-30.6,7.9-64.9,16.4-95.8,5.3
			c-11.1-4-21.5-11.3-29.4-20.6c-7.2-8.5-11.4-19.3-10.9-30.3c0.4-10,5.4-20.7,12.2-28.6c8.6-10,18.6-17,30.1-23.5
			c12.9-7.2,25.2-12.2,39.2-16.7c15.5-5,32-8.5,48.3-6.4c28.1,3.6,50,24.3,67.4,45.1c17.3,20.6,37.8,48.7,33,76.3
			c-4.4,25.3-25.4,43.6-47,56.6c-25.6,15.3-54.2,25.9-83,33.4c-59.6,15.5-122.9,16.1-182.9,2.8c-32.2-7.2-62.5-19.1-92.9-31.7
			c-30.4-12.6-61.5-24.1-94.8-25.3c-29.5-1-64.7,6.7-84.9,30c-23.2,26.7-10,61.8,7.4,87.7c30.8,45.9,81.5,73.7,133.7,88.3
			c62.4,17.5,129.4,17.7,193.3,10.2c70.5-8.3,139.2-26.4,206.8-47.7c30.3-9.6,60.7-19.2,90.2-30.8c27.8-10.9,55.1-23.6,79.4-41.1
			c24.8-17.9,45.8-40.3,60.6-67.3c15.2-27.9,23.8-58.7,27.2-90.2c5.7-52.9-6.2-109.3-35.8-153.9c-14.6-22-33.5-41.2-56.2-55
			c-27.8-16.8-59.9-23.8-91.8-26.9c-33.6-3.3-68.1-3.9-101.6,0.5c-17.2,2.2-34.1,5.6-50.6,11.3c-15.9,5.5-31.2,12.8-46.1,20.6
			c-28.2,14.7-55.8,31.5-87.2,38.7c-13.9,3.2-28.8,4.7-42.9,2.2c-13.9-2.4-26.1-8.3-37.3-16.7C317.1,56.7,300,35.4,276.5,25
			c-19.8-8.8-43-9.6-64.5-8.6c-32.9,1.5-96.8,11.3-88.2,58.1c2,10.9,4.2,18.7,3,30.1c0.2-1.8,0.3-1.4-0.1,0
			c-0.2,0.8-0.5,1.6-0.6,2.4c-0.5,2.3,1-1.3,0.1-0.1c-0.3,0.4-0.9,1.3-1,1.8c-0.1,0.2,1.9-2,0.3-0.5c-1.4,1.3,2.3-1.7,0.8-0.6
			c-0.2,0.2-0.6,0.4-0.9,0.5c-1.1,0.5,0.5-0.1,0.5-0.2c0.1,0.3,1.6-0.8,0.4-0.2c-0.3,0.2-0.9,0.3-1.3,0.3c-0.3,0,3.2,0,0.7-0.2
			c-0.5,0-1.2-0.1-1.8-0.1c-1.7,0.2,2.8,0.7,0.3,0c-0.8-0.2-1.5-0.4-2.3-0.6c-0.8-0.2-1.6-0.6-2.4-0.8c-2.5-0.7,1.5,0.8-0.4-0.1
			c-1.8-0.9-3.6-1.7-5.4-2.7c-9.6-5.4-14.8-9.8-22.6-16.7C72.2,70,55.3,50.6,40.1,30.4c-3.8-5-10.1-7.6-16-4.2
			C19.1,29.2,16.2,37.1,19.9,42.2L19.9,42.2z"/>
	</g>
</g>
</svg>
