<?xml version="1.0" encoding="utf-8"?>
<!-- Generator: Adobe Illustrator 19.0.0, SVG Export Plug-In . SVG Version: 6.00 Build 0)  -->
<svg version="1.1" class='coat'  id="Layer_1" xmlns="http://www.w3.org/2000/svg" xmlns:xlink="http://www.w3.org/1999/xlink" x="100" y="100"
	 viewBox="0 0 100 100"  xml:space="preserve">
<style type="text/css">

	.st0{fill:#534741;stroke:#FFFF00;stroke-width:12;stroke-miterlimit:10;}
	.st1{fill:#FFFF00;}
	.st2{fill:#FFFE45;}
	.st3{fill:#FFFFFF;}
	.st4{fill:#FF0000;}
</style>

<ellipse id="XMLID_366_" class="st0" cx="180.5" cy="214" rx="171.5" ry="210"/>
<g id="XMLID_329_">
	<path id="XMLID_415_" class="st1" d="M172.3,125.8c1.9-4.2,5.8-7.2,10.1-8.9c4.3-1.7,8.9-2.3,13.5-2.9c-1.2,1.6-2.3,3.3-3.5,4.9
		c2-0.7,4.1-1.1,6.2-1.1c-0.5,1.6-1.1,3.1-1.6,4.7c2.1,1.2,5.3-2.2,7-0.4c0.9,1,0.2,2.7-0.4,3.9c-3.6,6.7-4.6,14.5-5.6,22.1
		c-0.1,1.1-0.3,2.3,0.2,3.3s1.8,1.7,2.7,1.1c0.4-0.2,0.7-0.7,0.9-1.1c3.2-5.9-0.1-13.6,2.7-19.6c1.3,2.6,2.7,5.1,4,7.7
		c0.4,0.7,0.7,1.4,1.4,1.7c1.7,0.9,3.5-1,4.8-2.5c1.3-1.5,4-2.6,4.8-0.8c0.2,0.4,0.2,0.9,0.2,1.3c-0.3,5-5.1,8.2-8.6,11.7
		c-0.6,0.6-1.2,1.3-1.5,2.2c-0.7,2.1,0.9,4.2,0.7,6.4c-0.2,2.5-2.6,4.4-5.1,4.7c-2.5,0.3-5-0.6-7.2-1.6c-6.2-2.7-11.9-6.5-16.9-11
		c-0.8-0.7-1.6-1.5-2.6-1.8c-1.1-0.3-2.3,0-3.5,0.3c-2.1,0.6-4.2,1.4-6.4,1.5c-2.2,0.1-4.6-0.5-6-2.3c-1.4-1.7-1.3-4.6,0.5-5.9
		c0.7-0.5,1.6-0.7,2.4-0.8c5.1-0.8,11.1-0.3,14.7-4c-5.3-2.8-11.6,0-17.6,0.5c-1.3,0.1-2.7,0.1-3.6-0.9c-1.3-1.4-0.5-3.9,1.1-4.9
		s3.7-1,5.6-1c5.5,0,10.9-0.3,16.4-0.9c1.2-0.1,2.8-0.9,2.3-2c-0.2-0.4-0.7-0.7-1.2-0.8c-1.9-0.6-4-0.7-5.9-0.4
		c-0.1-2-1.7-3.8-3.7-4.3"/>
	<g id="XMLID_397_">
		<path id="XMLID_359_" class="st2" d="M173.6,126.6c4.3-8.4,13.8-10,22.3-11c-0.4-0.8-0.9-1.5-1.3-2.3c-1.2,1.6-2.3,3.3-3.5,4.9
			c-0.8,1.1,0.5,2.6,1.7,2.2c1.9-0.6,3.8-1,5.8-1c-0.5-0.6-1-1.3-1.4-1.9c-0.5,1.6-1.1,3.1-1.6,4.7c-0.3,0.8,0.3,1.6,1,1.8
			c1.2,0.4,5-1,5.4-0.7c1.4,0.9-2.2,7.7-2.6,8.9c-1.2,3.9-1.9,8-2.4,12.1c-0.3,2.4-1.3,5.5-0.2,7.8c1.7,3.4,5.1,2.4,6.6-0.4
			c3.1-5.9,0.2-13.1,2.5-19.2c-0.9,0.1-1.8,0.2-2.7,0.4c1.4,2.8,3.1,8.6,6.2,10.1c0.8,0.4,1.8,0.4,2.6,0.1c1.5-0.4,5-4.6,6.1-2.6
			c1.4,2.5-7.7,9.1-9,10.9c-0.8,1.1-1.1,2.3-1.1,3.6c0.1,2.3,0.4,1.9-0.4,4.7c0.3,2.1-0.5,3.1-2.3,3c-1.4,0.5-2.7,0.4-4.1-0.2
			c-5-1.5-10-4.6-14.1-7.7c-3.2-2.3-6.2-6.7-10.5-6.3c-2.5,0.2-6.8,2.9-9.1,1.7c-1.7,0.2-2.1-0.8-1.3-3c-1.1-2.6-0.4-3.7,2.3-3.2
			c1-0.1,1.9-0.2,2.9-0.3c3.8-0.4,7.1-1.3,10-3.8c0.7-0.6,0.6-2-0.3-2.4c-4.7-2-8.9-1.3-13.8-0.4c-1.5,0.3-3,0.5-4.5,0.7
			c0.5-1.3,1.1-2.5,1.6-3.8c0.6-0.4,4.4,0,5.1-0.1c3.3-0.1,6.7-0.3,10-0.6c2.1-0.2,7.3-0.4,6.5-4c-0.8-3.1-6.4-2.7-8.6-2.5
			c0.5,0.4,1,0.7,1.4,1.1c-0.6-2.7-2.1-4.3-4.7-5.3c-1.8-0.7-2.6,2.2-0.8,2.9c0.9,1.1,1.7,2.2,2.6,3.2c0.1,0.6,0.8,1.2,1.4,1.1
			c0.9-0.1,2.8-0.7,3,0.4c0,0-4.3,0.3-4.5,0.4c-3.3,0.2-6.7,0.3-10,0.3c-3.2,0.1-7.2,0.4-8.5,3.9c-1.1,3,0.7,5.4,3.7,5.8
			c6.3,1,12.1-3.5,18.5-0.7c-0.1-0.8-0.2-1.6-0.3-2.4c-3.5,3-7.9,2.8-12.2,3.4c-2.1,0.3-4.3,0.5-5.7,2.2c-2.6,3.1-0.6,7.5,2.6,9.1
			c2.1,1,4.5,1,6.7,0.7c1.6-0.3,3.2-1.1,4.8-1.3c3.9-0.4,5.8,2.3,8.5,4.4c5,3.9,11.1,7.9,17.2,9.4c3.8,1,8.9,0.1,10.4-4.2
			c1.3-3.9-1.5-6.2,1.7-10.1c1.8-2.2,4.4-3.8,6-6.3c1.7-2.6,3.9-8.7-0.9-9.3c-2-0.2-3,1.3-4.6,2.1c-0.3,0.4-0.7,0.8-1,1.1
			c-2,0.7-3.2,0.2-3.6-1.7c-1.4-1.5-2.3-4.3-3.2-6.2c-0.7-1.2-2.3-0.8-2.7,0.4c-1.8,4.7-0.9,9.3-1.3,14.1c0.6,2.1,0.2,3-1.3,2.5
			c-1.3,0.2-1.5-0.4-0.7-1.8c-0.2-1.5,0.4-3.4,0.7-4.9c0.5-3.2,1.2-6.4,2.2-9.4c0.9-2.6,5.1-7.9,2.6-10.8c-2.3-2.7-5.1,0.6-7.8-0.2
			c0.3,0.6,0.7,1.2,1,1.8c0.5-1.6,1.1-3.1,1.6-4.7c0.3-0.9-0.5-1.9-1.4-1.9c-2.3,0.1-4.4,0.4-6.6,1.1c0.6,0.7,1.1,1.5,1.7,2.2
			c1.2-1.6,2.3-3.3,3.5-4.9c0.6-0.9-0.2-2.4-1.3-2.3c-9.6,1.2-20.1,3.1-24.9,12.5C170.1,126.8,172.7,128.3,173.6,126.6L173.6,126.6z
			"/>
	</g>
</g>
<g id="XMLID_324_">
	<path id="XMLID_395_" class="st3" d="M159.9,195.6c5.3-2,8-7.9,9-13.4c0.6-3.1,0.8-6.4-0.4-9.4c-1.1-3-3.8-5.5-7-5.6
		c5.6-3.3,11.3-6.3,17.1-9.3c1-0.5,2.1-1,3.2-1c1.2,0,2.3,0.7,3.4,1.2c4.6,2.3,10,2.6,15,3.7c5,1.2,10.3,3.8,12.2,8.6
		c-4.7,1.9-7.6,7.1-8.2,12.1c-0.6,5.1,0.8,10.2,2.6,15c-15.8-0.6-31.5-1.3-47.3-1.9"/>
	<g id="XMLID_390_">
		<path id="XMLID_352_" class="st2" d="M160.6,196.9c10.3-4.7,16.4-29,1.3-31.2c0.1,0.9,0.2,1.8,0.4,2.7c4.5-2.6,9.1-5.1,13.7-7.5
			c1.8-0.9,4.6-2.8,6.7-2.4c1.8,0.3,3.7,1.7,5.4,2.3c8,2.6,18.9,1.5,23.1,10.4c0.2-0.7,0.4-1.4,0.5-2.1c-11.3,5.5-9.7,19-6.3,28.9
			c0.5-0.6,1-1.3,1.4-1.9c-15.8-0.6-31.5-1.3-47.3-1.9c-1.9-0.1-1.9,2.9,0,3c15.8,0.6,31.5,1.3,47.3,1.9c0.9,0,1.8-1,1.4-1.9
			c-3-8.6-5.2-20.6,4.9-25.5c0.8-0.4,0.9-1.4,0.5-2.1c-4.5-9.5-15.4-8.9-24.1-11.5c-4.2-1.3-6.7-3.6-11-1.9
			c-6.2,2.4-12.2,6.3-17.9,9.6c-1,0.6-1,2.5,0.4,2.7c12.5,1.9,5.9,22.1-2,25.7C157.4,195.1,158.9,197.7,160.6,196.9L160.6,196.9z"/>
	</g>
</g>
<g id="XMLID_323_">
	<path id="XMLID_388_" class="st4" d="M227.7,199.9c-5.5-3-12.2-2.3-18.5-2.7c-0.6,0-1.3-0.1-1.8-0.5c-0.5-0.4-0.7-1.2-0.8-1.9
		c-0.9-4.8-1.6-9.7-2-14.6c3.5-0.2,7,0.7,10.5,0.7c3.5,0,7.4-1.2,9-4.4c1.7-3.4-0.4-7.8-3.5-9.9c-3.1-2.2-7.1-2.7-10.9-3.2
		c-0.4-2,0.7-4.1,2.3-5.4s3.6-2,5.5-2.6c5.7-1.9,12.7-3.6,17.1,0.5c-0.8-5.7,3.7-10.6,8-14.4c0.8-0.7,1.7-1.5,2.8-1.5
		c1.4-0.1,2.6,1.1,3.4,2.3c5.8,8,5.5,19.8-0.7,27.5c-3.1,3.8-7.3,6.5-10.5,10.2c-4.8,5.5-7.2,12.6-9.3,19.6
		c-6.1-2.1-12.8-2.8-19.2-2"/>
	<g id="XMLID_383_">
		<path id="XMLID_342_" class="st2" d="M228.5,198.6c-4.8-2.2-9.7-2.6-14.9-2.8c-3.8-0.1-5.3,0.1-6-4.1c-0.7-3.8-1.1-7.6-1.4-11.4
			c-0.5,0.5-1,1-1.5,1.5c6.7-0.1,20.6,3.4,21.5-7.2c0.8-9.1-9.5-11.8-16.4-12.6c0.5,0.5,1,1,1.5,1.5c-0.2-8.3,17.7-10.2,22.4-6.5
			c0.9,0.7,2.6,0.4,2.6-1.1c-0.3-4.6,2.1-8,5.2-11.2c2-2,3.6-4.2,7-0.6c1,1.1,1.7,3.3,2.2,4.7c2,6.3,1,13.5-2.8,18.9
			c-3.7,5.3-9.7,8.6-13.4,13.9c-3.6,5.2-5.5,11.3-7.4,17.3c0.6-0.3,1.2-0.7,1.8-1c-6.4-2.1-12.9-2.8-19.6-2.1c-1.9,0.2-1.9,3.2,0,3
			c6.5-0.7,12.7,0,18.8,2c0.8,0.3,1.6-0.3,1.8-1c1.6-5.2,3.3-10.6,6.2-15.2c2.9-4.7,7.2-7.7,11.1-11.5c5.4-5.5,8.2-12.8,7.3-20.6
			c-0.5-4.2-3.2-14.5-9.1-14.1c-3.3,0.2-6.4,4.4-8.2,6.7c-2.6,3.2-4.1,6.6-3.8,10.8c0.9-0.4,1.7-0.7,2.6-1.1
			c-4.7-3.7-10.3-3.2-15.9-1.7c-5.4,1.5-11.8,3.7-11.6,10.3c0,0.9,0.7,1.4,1.5,1.5c3.4,0.4,6.9,0.9,9.8,2.9
			c3.3,2.3,5.5,7.3,1.3,10.3c-4.4,3.1-11.3,0.6-16.1,0.7c-0.8,0-1.6,0.7-1.5,1.5c0.3,3.8,0.8,7.6,1.4,11.3c0.3,1.9,0.4,4.9,2,6.3
			c1.6,1.3,4.3,0.9,6.1,1c4.9,0.2,9.7,0.2,14.2,2.4C228.7,202,230.2,199.4,228.5,198.6L228.5,198.6z"/>
	</g>
</g>
<g id="XMLID_322_">
	<path id="XMLID_381_" class="st3" d="M251.9,166.3c5.2,5.1,13.5,5.3,19.6,9.3c4.8,3,8,8.4,8.5,14c-8.9-4.8-19.9-5.5-29.4-1.9
		c7.9,3,16.5,6.7,20,14.5c3.6,8.2-0.1,17.7-3.8,25.9c-0.8-8.3-5-16.3-11.4-21.8c0.4,6.1,2,12.1,1.8,18.1s-2.9,12.6-8.4,15.1
		c-0.4-3.3-2.8-6-5.4-8c-2.6-2.1-5.5-3.8-7.7-6.3c-4.1-4.7-4.8-11.5-5-17.8c-0.3-9.1,0.2-19,5.9-26.1c1.9-2.3,4.2-4.2,6.9-5.5
		c1.9-0.9,4.1-1.8,5.1-3.6c1-1.9,0.7-4.9,2.8-5.5"/>
	<g id="XMLID_376_">
		<path id="XMLID_341_" class="st2" d="M250.9,167.4c4,3.6,8.7,4.9,13.6,6.6c7.4,2.6,13,7.3,14,15.5c0.8-0.4,1.5-0.9,2.3-1.3
			c-9.6-4.9-20.4-5.6-30.5-2c-1.4,0.5-1.4,2.4,0,2.9c6.6,2.5,14.3,5.5,18.1,11.9c4.9,8.3,0.7,18.3-2.9,26.2c0.9,0.3,1.9,0.5,2.8,0.8
			c-1.1-8.9-5.1-16.8-11.9-22.8c-0.9-0.8-2.7-0.3-2.6,1.1c0.9,10.3,5.9,25.9-5.9,31.9c0.7,0.3,1.5,0.6,2.2,0.9
			c-1.5-7-7.7-9.1-12.3-13.8c-6.1-6.2-6-15.9-5.8-24c0.2-8.4,2.2-17.5,9.6-22.7c2.3-1.6,5.4-2.3,7.2-4.4c1.5-1.7,1.3-5.2,3.2-6.3
			c1.7-1,0.2-3.6-1.5-2.6c-2.3,1.4-2,3.2-3.1,5.4c-1.8,3.5-7.2,4.7-10,7.4c-5.4,5-7.5,12.2-8.2,19.3c-0.7,7.5-0.8,16.5,2.1,23.6
			c1.3,3.3,3.4,5.8,6.2,8.1c3.9,3.1,8.5,5.6,9.6,10.8c0.2,1,1.4,1.3,2.2,0.9c13-6.7,8.4-23,7.4-34.5c-0.9,0.4-1.7,0.7-2.6,1.1
			c6.1,5.5,9.9,12.5,11,20.7c0.2,1.3,2.1,2.3,2.8,0.8c3.9-8.6,8.1-18.9,3.5-28c-3.9-7.9-12.8-11.5-20.5-14.5c0,1,0,1.9,0,2.9
			c9.4-3.4,19.3-2.8,28.2,1.7c0.9,0.5,2.4-0.1,2.3-1.3c-0.7-5.8-3.3-11-8.1-14.5c-6.2-4.6-14.7-4.6-20.5-9.8
			C251.6,164,249.4,166.1,250.9,167.4L250.9,167.4z"/>
	</g>
</g>
<g id="XMLID_311_">
	<path id="XMLID_374_" class="st4" d="M257.3,230.6c2.2,3.4,4.8,6.5,6.7,10.1c5.6,10.7,3.9,23.5,2,35.4c0-4.3-2-8.5-4.8-11.8
		s-6.2-6-9.7-8.6c1.9,5.1,3.6,10.3,3.4,15.7s-2.6,11-7.3,13.6c-1.9-9.4-3.8-18.8-5.7-28.2c-1.5,6.8-3.9,13.5-7.2,19.6
		c-1.9-2.5-2.2-5.9-2.4-9.1c-0.6-13.5,1-27.1,4.5-40.1c5,3.7,9.7,8,13.8,12.7c1.8-3.6,4.1-6.9,6.9-9.7"/>
	<g id="XMLID_369_">
		<path id="XMLID_340_" class="st2" d="M256,231.4c4.7,7,9.2,13,10.1,21.7c0.8,7.6-0.3,15.2-1.5,22.7c1,0.1,2,0.3,2.9,0.4
			c-0.6-9.9-7.8-16.1-15.2-21.7c-1-0.8-2.6,0.5-2.2,1.7c3.2,8.9,6.6,21.5-3.2,27.6c0.7,0.3,1.5,0.6,2.2,0.9
			c-1.9-9.4-3.8-18.8-5.7-28.2c-0.3-1.4-2.6-1.4-2.9,0c-1.5,6.7-3.9,13.1-7.1,19.2c0.9,0,1.7,0,2.6,0c-4-6.4-2.4-16.8-1.9-24
			c0.6-8.2,2.1-16.2,4.2-24.1c-0.7,0.3-1.5,0.6-2.2,0.9c4.9,3.7,9.4,7.9,13.5,12.5c0.6,0.7,1.9,0.5,2.4-0.3c1.8-3.5,4-6.5,6.7-9.4
			c1.3-1.4-0.8-3.5-2.1-2.1c-2.9,3-5.2,6.2-7.2,10c0.8-0.1,1.6-0.2,2.4-0.3c-4.3-4.8-9-9-14.1-12.9c-0.8-0.6-2,0-2.2,0.9
			c-2.3,8.8-3.9,17.7-4.4,26.7c-0.5,7.4-1.7,17.1,2.4,23.7c0.6,0.9,2.1,1,2.6,0c3.3-6.3,5.8-13,7.4-20c-1,0-1.9,0-2.9,0
			c1.9,9.4,3.8,18.8,5.7,28.2c0.2,0.9,1.4,1.4,2.2,0.9c11.1-6.9,8.3-20.6,4.6-31c-0.7,0.6-1.5,1.1-2.2,1.7
			c6.4,4.9,13.2,10.4,13.7,19.1c0.1,1.6,2.7,2.2,2.9,0.4c1.3-8.3,2.6-16.7,1.4-25.1c-1.2-8.6-5.6-14.6-10.3-21.6
			C257.5,228.2,254.9,229.7,256,231.4L256,231.4z"/>
	</g>
</g>
<g id="XMLID_305_">
	<path id="XMLID_367_" class="st4" d="M158.4,195.7c0.9-3.4,3.5-6,5.6-8.7s4.1-6.1,3.5-9.5c-4.9-3.2-12.1,3.4-16.8,0.1
		c-0.9-0.7-1.6-1.6-2.1-2.7c-1.5-3.7,0-8.2,3.1-10.7c3.1-2.5,7.5-3,11.4-2c-1.7-4.5-5.6-8.2-10.3-9.6s-9.9-0.7-13.9,2.1
		c-2.5-2.9-4.5-6.3-5.6-9.9c-0.9-2.9-2.3-6.7-5.3-6.6c-1.2,0-2.4,0.8-3.3,1.5c-4,3.2-7.2,8.2-5.9,13.2c0.6,2.4,2.2,4.4,3.8,6.3
		c8.1,10,15.9,21,17.8,33.8c0.1,0.5,0.2,1,0.5,1.4c0.4,0.4,1,0.4,1.5,0.4c6-0.1,12-0.1,17.9-0.2"/>
	<g id="XMLID_362_">
		<path id="XMLID_339_" class="st2" d="M159.8,196.1c1.2-3.5,15.5-18.2,6.6-20.7c-3.7-1-7.1,1.1-10.7,1.5c-5.4,0.5-7.6-4.4-5.2-8.9
			c2.4-4.5,7.7-5.3,12.2-4.4c1.4,0.3,2.2-1,1.7-2.2c-4.6-10.4-16.6-14-26.3-8.1c0.6,0.1,1.2,0.2,1.8,0.2c-2.5-3-4.1-6.1-5.4-9.8
			c-0.6-1.6-1.1-3.3-2.2-4.7c-1.6-2.1-3.8-3-6.4-2.1c-8.1,3.1-11.2,13.6-6.6,20.4c6.7,9.9,14.8,18.2,18.2,30.1
			c0.8,2.8,0.4,7.2,3.5,8.4c1.9,0.8,5.1,0.1,7.2,0c4,0,8-0.1,12-0.1c1.9,0,1.9-3,0-3c-4.7,0-9.3,0.1-14,0.1c-3.2,0-3.9,0.8-4.9-2.3
			c-0.5-1.6-0.7-3.3-1.2-4.8c-2.3-7.4-6.3-14.1-10.8-20.3c-2.1-3-4.5-5.8-6.7-8.7c-3.8-5.1-3.3-10.2,1.1-14.7
			c5.1-5.1,6.9,0.5,8.5,4.6c1.3,3.3,3.2,6.1,5.4,8.8c0.4,0.5,1.3,0.6,1.8,0.2c8.4-5.1,18.2-1.9,22.2,7c0.6-0.7,1.1-1.5,1.7-2.2
			c-5.4-1.2-11.5-0.3-14.9,4.6c-2.5,3.6-3.1,9.2,0.2,12.6c3.5,3.7,8.3,1.6,12.5,0.7c3.5-0.8,6-0.8,3.9,3.9c-0.8,1.7-2,3.2-3.2,4.7
			c-2.1,2.6-4,5-5.1,8.2C156.3,197.1,159.2,197.9,159.8,196.1L159.8,196.1z"/>
	</g>
</g>
<g id="XMLID_310_">
	<path id="XMLID_360_" class="st3" d="M120.1,160.4c-12.9,4-24.4,12.3-32.3,23.3c8.2,3.3,17.8-0.8,26.3,1.7
		c-7.3,2.1-13.6,7.2-17.2,13.8c-3.6,6.7-4.3,14.8-2,21.9c4.3-8.1,10.9-14.9,18.8-19.4c-2.9,4.8-5.3,10-5.8,15.6s0.9,11.5,4.7,15.6
		c0.4,0.4,0.8,0.8,1.3,0.9c0.5,0.1,1-0.1,1.5-0.4c9.2-4.6,15.6-14.4,16.2-24.7c0.2-2.9-0.1-5.9,0.7-8.8c1-3.3,3.3-6.1,4-9.5
		c1.2-5.4-2.1-10.7-5.2-15.3c-2.9-4.3-5.8-8.6-8.8-12.9c-0.8-1.2-1.9-2.5-3.3-2.3"/>
	<g id="XMLID_355_">
		<path id="XMLID_336_" class="st2" d="M119.7,158.9c-13.4,4.4-24.8,12.6-33.2,24c-0.6,0.8,0.1,1.9,0.9,2.2
			c8.6,2.9,17.6-0.4,26.3,1.7c0-1,0-1.9,0-2.9c-16.1,5.1-24.9,21.4-20.2,37.6c0.3,1.2,2.1,1.5,2.7,0.4c4.4-7.9,10.5-14.3,18.3-18.9
			c-0.7-0.7-1.4-1.4-2.1-2.1c-5.6,9.3-9.3,22-2,31.6c6.1,8.1,16.8-6.3,19.6-11.8c2.5-5.1,3-10,3.3-15.6c0.4-6.4,5.3-11.6,4.9-18
			c-0.4-5.7-4.2-10.7-7.3-15.2c-2.2-3.2-4.3-6.5-6.6-9.6c-1.4-1.9-2.4-3.3-4.7-3.8c-1.9-0.4-2.7,2.5-0.8,2.9
			c2.7,0.6,4.2,4.3,5.7,6.4c1.5,2.1,2.9,4.3,4.4,6.4c2.4,3.5,5.4,7.4,6.1,11.7c0.9,5.4-2.7,8.7-4,13.5c-1.1,4-0.4,8.3-1.2,12.4
			c-0.7,4-2.4,7.8-4.7,11.1c-1.3,1.9-2.9,3.7-4.6,5.2c-2.3,2-3.6,3.6-6.4,2.4c-4.5-2-5.1-8.8-4.6-13.3c0.5-5.4,2.8-10.3,5.6-14.9
			c0.8-1.3-0.8-2.8-2.1-2.1c-8.2,4.9-14.8,11.6-19.4,20c0.9,0.1,1.8,0.2,2.7,0.4c-4.2-14.6,3.6-29.4,18.1-33.9
			c1.4-0.4,1.5-2.5,0-2.9c-8.7-2.1-17.8,1.2-26.3-1.7c0.3,0.7,0.6,1.5,0.9,2.2c7.9-10.7,18.8-18.5,31.4-22.6
			C122.4,161.2,121.6,158.3,119.7,158.9L119.7,158.9z"/>
	</g>
</g>
<g id="XMLID_304_">
	<path id="XMLID_353_" class="st4" d="M107,228.6c-8.6,11.4-12.9,26-11.8,40.2c6.1-4.1,8.3-12.5,14.3-16.8
		c-3.4,8.8-1.5,19.5,4.7,26.6c4.1-8.1,5.7-17.5,4.3-26.5c0.9,6.5,4.2,12.7,9.2,16.9c0.3-14.2-0.8-28.5-3.4-42.5
		c-1.7,2.3-3.4,4.7-5.9,6.1c-2.5,1.4-6,1.3-7.9-0.9c-0.8-1-1.3-2.3-2.3-3c-1.1-0.7-3-0.1-2.7,1.2"/>
	<g id="XMLID_348_">
		<path id="XMLID_331_" class="st2" d="M105.7,227.8c-8.7,11.9-12.9,26.3-12,41c0.1,1,1.3,2,2.3,1.3c6.2-4.6,8.6-12.3,14.6-17
			c-0.8-0.5-1.7-1-2.5-1.5c-3.4,9.7-1.4,20.1,5.1,28.1c0.6,0.7,2,0.5,2.4-0.3c4.2-8.6,5.8-17.8,4.5-27.3c-1,0.1-2,0.3-2.9,0.4
			c1.1,7,4.4,12.9,9.6,17.6c1,0.9,2.5,0.3,2.6-1.1c0.3-14.4-0.9-28.7-3.4-42.9c-0.3-1.4-2.1-1.3-2.7-0.4c-1.8,2.5-4.6,6.5-8.2,6.3
			c-4.2-0.3-3.3-3.3-6-4.7c-2-1-4.3-0.1-4.7,2.1c-0.3,1.9,2.6,2.7,2.9,0.8c-0.1,0.5,3.9,3.8,4.7,4.1c1.4,0.6,3.1,0.7,4.6,0.5
			c4.3-0.7,7-4.3,9.4-7.6c-0.9-0.1-1.8-0.2-2.7-0.4c2.5,13.9,3.6,28,3.3,42.1c0.9-0.4,1.7-0.7,2.6-1.1c-4.9-4.4-7.8-9.8-8.9-16.3
			c-0.3-1.7-3.2-1.3-2.9,0.4c1.2,8.9-0.2,17.6-4.1,25.7c0.8-0.1,1.6-0.2,2.4-0.3c-5.8-7.2-7.3-16.5-4.3-25.1
			c0.5-1.6-1.5-2.3-2.5-1.5c-5.8,4.6-8.1,12.2-14,16.6c0.8,0.4,1.5,0.9,2.3,1.3c-0.9-14.2,3.1-28,11.6-39.4
			C109.4,227.8,106.8,226.3,105.7,227.8L105.7,227.8z"/>
	</g>
</g>
<g id="XMLID_292_">
	<path id="XMLID_337_" class="st4" d="M137.2,196.6c17.5-0.6,35,2,52.5,2.3c14,0.2,28.3-1,42,2.5c0.3,11.5,0.2,23.1-0.2,34.7
		c-0.4,9.9-1,19.8-1.7,29.7c-0.3,4.9-0.7,9.8-2.1,14.4c-4.2,13.1-17.2,21.7-30.4,25.4c-6.8,1.9-14.1,2.9-19.9,6.9
		c-1.8-3.4-5.4-5.4-8.8-7.3c-9.1-5-18-10.5-26.5-16.5c-2.6-1.8-5.1-3.7-6.8-6.3c-2.5-3.9-2.7-8.9-2.8-13.6
		c-0.1-6.8-0.2-13.6,0.4-20.4c0.4-4.7,1.2-9.4,1.8-14.2c0.7-6,1-12.1,1.3-18.2c0.3-6.6,0.7-13.2,1-19.8"/>
	<g id="XMLID_332_">
		<path id="XMLID_299_" class="st2" d="M137.2,198.1c15.9-0.4,31.7,1.6,47.6,2.2c15.5,0.6,31.2-1.1,46.4,2.6c-0.4-0.5-0.7-1-1.1-1.4
			c0.3,12.5,0.2,25.1-0.3,37.6c-0.3,6.3-0.6,12.6-1,18.8c-0.4,6.7-0.4,13.7-2.1,20.2c-2.7,10.4-11.1,18-20.5,22.5
			c-9.5,4.6-20.7,4.8-29.7,10.6c0.7,0.2,1.4,0.4,2.1,0.5c-2.2-3.4-5.2-5.5-8.7-7.4c-5-2.8-10-5.7-14.9-8.7
			c-5.2-3.3-11.1-6.6-15.7-10.8c-5-4.6-5.3-10.6-5.4-16.9c-0.2-11.7,1-22.9,2.3-34.5c1.4-12.3,1.6-24.7,2.2-37.1
			c0.1-1.9-2.9-1.9-3,0c-0.6,12.6-0.8,25.4-2.3,38c-1.4,12.4-2.6,24.4-2.1,36.9c0.2,4.4,0.7,8.9,3.4,12.6c2.7,3.8,6.9,6.3,10.7,8.8
			c5.1,3.4,10.2,6.7,15.5,9.8c5.2,3,12.2,5.5,15.5,10.8c0.4,0.7,1.4,1,2.1,0.5c9.6-6.1,21.7-6.2,31.7-11.6
			c8.2-4.4,15.5-11.2,18.9-20.2c2.1-5.5,2.4-11.4,2.8-17.2c0.5-6.9,0.9-13.9,1.3-20.8c0.7-14.2,0.9-28.4,0.5-42.6
			c0-0.6-0.5-1.3-1.1-1.4c-14.9-3.5-30.1-2.1-45.3-2.6c-16.5-0.5-33-2.7-49.5-2.3C135.2,195.1,135.2,198.1,137.2,198.1L137.2,198.1z
			"/>
	</g>
</g>
<g id="XMLID_338_">
	<path id="XMLID_330_" class="st3" d="M168.2,213.2c5.6-3,11.2-6,16.8-9c1.5-0.8,4-1.1,4.1,0.6c0.1,0.7-0.4,1.3-0.1,2
		c0.2,0.6,0.9,0.8,1.5,1.1c1.7,0.7,2.9,2.3,3.3,4c-1,0.6-1.9,1.5-2.5,2.6c2,0.6,4.1,1.1,6.1,1.7c-1.1,0.7-0.3,2.4,0.9,3
		c1.1,0.5,2.6,0.6,3.4,1.5c1.1,1.2,0.7,3,0.2,4.5c-1.3,4.2-2.5,8.4-3.8,12.6c-0.5,1.6-0.9,3.2-0.5,4.8c0.3,1.1,1,2,1.8,2.9
		c2.7,3.3,5.3,6.6,8,9.9c0.4,0.5,0.8,1,1.4,1.2c2.1,0.8,3.5-2.2,3.5-4.4c0.1-4.4-0.6-8.8-0.3-13.2c0.2-4.4,1.6-9,5.1-11.7
		c0.6,3,0.8,6.1,0.7,9.2c1.6-1.5,3.8-3,5.8-2.1c1.9,0.9,2.1,3.6,1.3,5.5c-0.8,1.9-2.4,3.4-3.3,5.2c-1.8,3.4-1.4,7.6-2.2,11.4
		c-0.5,2.8-1.7,5.4-2.7,8c-3,7.7-5.1,15.7-7.5,23.6c-0.8,2.6-1.6,5.2-3.3,7.2c-1.7,2-4.6,3.3-7.1,2.4c-1.4-0.5-2.6-1.8-2.5-3.3
		c0.1-1.8,1.9-3,3.1-4.3c2.1-2.4,2.5-6,1.8-9.1s-2.5-5.9-4.2-8.7c-0.3-0.4-0.6-0.9-1.1-1.1c-0.9-0.4-1.8,0.4-2.5,1.1
		c-2.7,2.6-5.9,4.8-9.3,6.4c-2.7,1.3-5.8,2.2-8.6,1.3c-2.8-0.9-4.8-4.5-3.3-7c1.9-3,6.6-2.3,9.3-4.6c2.3-2.1,2.1-5.6,2.1-8.7
		c0-3.1,0.8-6.8,3.7-7.7c-2.1-2.5-4.4-5.1-7.5-6.2c-5.5-1.8-11.2,1.8-17,2.2c-4.7,0.3-9.6-1.8-12.6-5.4c-0.2-0.3-0.4-0.6-0.4-0.9
		c0-0.8,1-1.2,1.9-1.2c7.5-0.3,15.3,1.5,22.2-1.3c0.5-0.2,1.1-0.6,1-1.1c-0.1-0.4-0.5-0.7-0.9-0.8c-7.8-3.6-17.8-0.4-24.8-5.4
		c-0.4-0.3-0.8-0.6-1-1.1c-0.5-1.3,0.8-2.6,2.1-3.1c7.2-3.1,15.4,0.4,22.6,3.4c1.3,0.5,3.3,0.7,3.5-0.7c0.1-0.9-0.8-1.6-1-2.5
		c-0.4-1.8,1.8-2.9,3.5-3.5c1.7-0.7,3.5-2.7,2.3-4c-0.5-0.5-1.2-0.6-1.9-0.6c-1.9-0.1-3.9,0-5.8,0.3c-1.4,0.2-2.9,0.6-4.3,0.4
		c-1.4-0.2-2.9-1.1-3.2-2.5c-0.3-1.3,0.4-2.6,1.3-3.6c1.7-2.1,4-3.6,6.5-4.4"/>
	<g id="XMLID_325_">
		<path id="XMLID_298_" class="st2" d="M169,214.5c2.5-1.4,5-2.7,7.6-4.1c2.5-1.3,6-4,8.7-4.6c2.9-0.7,1.3,0,2.5,1.7
			c1.5,2,3.6,1.8,4.7,4.8c0.2-0.6,0.5-1.1,0.7-1.7c-1.3,0.9-2.2,1.8-3.1,3.1c-0.6,0.8,0,2,0.9,2.2c2,0.6,4.1,1.1,6.1,1.7
			c-0.3-0.7-0.6-1.5-0.9-2.2c-1,1.4-0.8,3,0.5,4.3c1,1,2.5,1,3.4,2.2c1.6,1.9-0.1,5-0.8,7.4c-1.2,4-3.8,9.1-2.9,13.3
			c0.7,3.3,4.2,6.4,6.2,8.9c2.5,3.1,7.6,10.8,10.8,3.8c1.5-3.2,0.6-7.2,0.5-10.6c-0.3-5.9-0.1-12,4.6-16.3c-0.8-0.2-1.7-0.4-2.5-0.7
			c0.5,3,0.7,5.8,0.6,8.8c0,1.4,1.6,1.9,2.6,1.1c2.2-2.6,3.5-1.6,4,2.9c-0.3,0.4-0.6,0.8-0.9,1.3c-0.6,1.4-1.8,2.6-2.4,4.1
			c-1.1,2.8-1,5.9-1.5,8.8c-1.1,7.2-4.8,14.2-6.9,21.2c-1.2,3.9-2.2,7.9-3.5,11.9c-0.6,1.9-1.1,3.9-2.2,5.6
			c-0.8,0.8-1.6,1.7-2.5,2.5c-3.9-1.5-4.8-3.1-2.6-4.6c0.7-2.2,2.1-3.2,2.4-5.6c0.3-2.2-0.1-4.4-0.7-6.5c-0.9-2.7-3-8.8-6.2-9.3
			c-2-0.4-3.5,1.5-4.8,2.6c-3,2.5-6.5,4.9-10.2,6c-2.2,0.9-4.4,0.6-6.5-0.8c0.1-1.6,0.1-3.2,0.2-4.8c0.5-0.8,3.1-1,4.1-1.4
			c1.8-0.6,3.5-1.4,4.6-2.9c3.2-4.3-0.7-12.7,4.6-15.2c0.9-0.4,0.9-1.7,0.3-2.4c-4.7-5.5-9.3-8.1-16.6-6.5
			c-4.3,0.9-8.4,2.7-12.8,1.8c-1-0.2-6.8-2.1-6.7-3.6c0.1-1.2,5.6-0.5,6.4-0.5c3.4,0.1,16.1,1.6,17.6-3.3c1.2-4.3-7.7-4.7-10.2-5
			c-4.1-0.4-8.4-0.2-12.4-1.5c-2.8-0.3-3.2-1.6-1.3-3.9c1.4-0.4,2.9-0.6,4.4-0.6c2.7,0,5.3,0.7,7.8,1.5c2.3,0.7,12.3,6.7,13.4,1.3
			c0.2-0.9-0.6-1.7-0.5-2.4c0.2-2.6,2.2-2.3,3.6-3.5c1.2-0.9,2.4-2.4,2.1-4c-0.4-1.9-2.1-2.3-3.8-2.6c-2-0.4-4.2,0-6.2,0.3
			c-3.1,1.3-4.3-0.2-3.7-4.4c1.4-1.3,3-2.3,4.8-2.9c1.8-0.7,1-3.6-0.8-2.9c-3.6,1.4-9.8,4.9-8.9,9.7c0.3,1.5,1.5,2.7,2.9,3.3
			c3,1.3,6.4-1.2,9-0.2c3.9,1.5-0.4,2.3-1.7,4.1c-0.8,1.2-0.3,3.8-1.4,4.3c-0.7,0.3-4-1.6-4.8-1.9c-1.9-0.7-3.8-1.4-5.7-1.9
			c-3.1-0.8-6.4-1.2-9.6-0.6c-3,0.5-8.3,2.7-6.1,6.6c2.6,4.8,11.9,4.6,16.5,4.9c1.9,0.1,3.8,0.3,5.7,0.6c1.4,0.3,3.8,0.3,1.7,1.2
			c-3.7,1.6-9.4,0.7-13.3,0.6c-2.4-0.1-9.8-1.4-9.4,3c0.4,4.7,9.5,7.3,13.1,7.4c3.9,0.1,7.5-1.4,11.2-2.2c6.2-1.3,9.8,1.2,13.7,5.7
			c0.1-0.8,0.2-1.6,0.3-2.4c-5.4,2.6-3.6,8.2-4.6,12.9c-1.1,5-4.7,4.5-8.3,6.4c-1.7,0.9-3,2.2-3.3,4.2c-0.8,4.7,3.9,7.9,8.1,7.8
			c2.8-0.1,5.5-1.3,7.9-2.6c1.7-0.9,3.2-1.9,4.7-3.1c1-0.8,2.8-3,4-3c3,0,5.1,9.4,4.8,11.7c-0.4,4-4.7,5.4-5.1,9.1
			c-0.5,4.2,4.2,6.1,7.6,5.2c6.3-1.6,7.8-9,9.4-14.4c2.5-8.4,5.5-16.4,8.2-24.7c1.6-4.8,0.8-10.6,3.3-15c1.5-2.6,3.8-4.7,3.6-8
			c-0.5-6.3-6.7-4.6-10-1.8c0.9,0.4,1.7,0.7,2.6,1.1c0-3.2-0.2-6.4-0.7-9.6c-0.2-1.2-1.8-1.4-2.5-0.7c-3.7,3.4-5.2,7.9-5.5,12.8
			c-0.2,3.6,1,7.8,0.3,11.3c0.5,1.9-0.3,3.2-2.4,3.9c-0.4-0.5-0.8-0.9-1.1-1.4c-1.5-1-2.9-3.5-4-4.9c-1.7-2.1-3.5-3.7-3.9-6.4
			c-0.3-2.3,0.3-3.9,1-6.1c1-3.5,2.3-7,3.1-10.5c0.3-1.6,0.6-3.2-0.3-4.6c-0.5-0.8-4.6-3.4-4.6-3.5c0.6-0.8,0-2-0.9-2.2
			c-2-0.6-4.1-1.1-6.1-1.7c0.3,0.7,0.6,1.5,0.9,2.2c0.7-0.7,1.3-1.4,2-2c0.5-0.4,0.9-1,0.7-1.7c-0.4-1.2-0.8-2.1-1.6-3.1
			c-0.9-1-2.5-1.5-3.2-2.6c-0.9-1.5,0.4-2.7-2.1-3.6c-2.5-0.9-5.6,1.4-7.6,2.5c-4.5,2.4-9,4.8-13.4,7.2
			C165.8,212.8,167.3,215.4,169,214.5L169,214.5z"/>
	</g>
</g>
<g id="XMLID_120_">
	<g id="XMLID_318_">
		<path id="XMLID_286_" class="st1" d="M103.2,296.5c-5.5-2.7-10.4-6.2-14.6-10.7c-1.1-1.2-3.3,0.4-2.4,1.8
			c3.5,5.1,6.3,10.6,8.3,16.5c0.6-0.6,1.2-1.2,1.8-1.8c-6.5-2.3-13.1-4.3-19.8-5.9c-1.4-0.3-2.6,1.5-1.5,2.5c4.5,4,8,8.1,11.6,12.8
			c3,3.8,7.6,6,10.8,9.7c2,2.2,4.6,6.5,8.1,6.4c1.7,0,3.2-1.3,4.6-2.1c2.6-1.6,5.2-3.3,7.8-4.9c1.6-1,0.1-3.6-1.5-2.6
			c-4.1,2.6-9.6,8.2-14.1,4.2c-2.6-2.3-4.4-5.3-7.2-7.5c-1.8-1.4-3.8-2.4-5.3-4.1c-1.4-1.5-2.5-3.5-3.7-5.2c-2.6-3.4-5.8-6.2-9-8.9
			c-0.5,0.8-1,1.7-1.5,2.5c6.7,1.6,13.3,3.6,19.8,5.9c1,0.4,2.2-0.8,1.8-1.8c-2.1-6.1-5-11.8-8.6-17.2c-0.8,0.6-1.6,1.2-2.4,1.8
			c4.4,4.7,9.4,8.3,15.2,11.1C103.5,299.9,105,297.3,103.2,296.5L103.2,296.5z"/>
	</g>
</g>
<g id="XMLID_118_">
	<g id="XMLID_312_">
		<path id="XMLID_280_" class="st1" d="M107.5,324.1c-2.2-7.7-4.7-15.2-7.7-22.7c-0.7-1.8-3.6-1-2.9,0.8c2.9,7.4,5.5,15,7.7,22.7
			C105.1,326.7,108,326,107.5,324.1L107.5,324.1z"/>
	</g>
</g>
<g id="XMLID_113_">
	<g id="XMLID_306_">
		<path id="XMLID_274_" class="st1" d="M101.2,303.8c7-4.6,13.9-9.1,20.9-13.7c2.1-1.3,2.5-2.5,4.8-1c1.1,0.7,2,2.8,2.7,3.9
			c1.5,2.3,3,4.6,4.8,6.7c8.4,10.2,23.3,14.3,35.9,16.1c28.1,4.1,55.9-4.7,80.3-18.2c-0.7-0.3-1.5-0.6-2.2-0.9
			c1.4,7.1,4.7,13.3,9.9,18.4c0.2-0.8,0.4-1.7,0.7-2.5c-6.3,2.2-12,4.7-17.6,8.4c-6.2,4-12.4,7.5-19.4,9.9
			c-12.9,4.4-26.6,5.7-40.2,5.9c-6.6,0.1-13.4,0.2-20-0.5c-8.4-0.9-15.4-4.7-22.5-9c-12.8-7.7-25.6-15.5-37-25.2
			c-1.5-1.2-3.6,0.9-2.1,2.1c11.6,9.9,24.6,17.8,37.6,25.6c6.3,3.8,12.7,7.5,20.1,8.8c6.7,1.2,13.7,1.1,20.6,1.1
			c13.8,0,27.9-1,41.2-5c14.5-4.4,25.9-14.3,40.1-19.3c1-0.4,1.5-1.7,0.7-2.5c-4.8-4.8-7.8-10.4-9.1-17.1c-0.2-1-1.4-1.3-2.2-0.9
			c-26.2,14.4-56.8,23.6-86.6,16.2c-7-1.7-14.4-4.2-20.4-8.4c-6.2-4.3-8.4-11.4-13.5-16.5c-2.9-2.9-4.8-0.9-7.9,1.1
			c-7,4.6-13.9,9.1-20.9,13.7C98,302.2,99.5,304.8,101.2,303.8L101.2,303.8z"/>
	</g>
</g>
<g id="XMLID_111_">
	<g id="XMLID_300_">
		<path id="XMLID_268_" class="st1" d="M253.5,308.2c8.6-3.1,16.4-7.2,25.5-9.1c-0.5-0.8-1-1.7-1.5-2.5c-4.9,3.9-9,8.4-12.5,13.6
			c-0.7,1,0.2,2.2,1.3,2.3c7.2,0.2,13.7-3.8,20.9-3.1c-0.4-0.9-0.7-1.7-1.1-2.6c-6.6,5.4-13.5,10.7-19.7,16.5
			c-3.5,3.3-9.2,11.7-14.5,6.8c-2.9-2.7-3.2-7.4-5.4-10.7c-1.1-1.6-3.6-0.1-2.6,1.5c2.5,3.8,2.8,9.1,6.5,12.1
			c3.3,2.7,7.3,1.9,10.6-0.4c4.4-3.1,7.9-7.7,12-11.2c5-4.2,10.1-8.4,15.2-12.5c1.1-0.9,0.1-2.4-1.1-2.6c-7.3-0.8-13.7,3.3-20.9,3.1
			c0.4,0.8,0.9,1.5,1.3,2.3c3.3-5,7.3-9.2,12-13c1.3-1-0.1-2.8-1.5-2.5c-9.1,2-16.8,6-25.5,9.1C250.9,306,251.7,308.9,253.5,308.2
			L253.5,308.2z"/>
	</g>
</g>
<g id="XMLID_106_">
	<g id="XMLID_294_">
		<path id="XMLID_262_" class="st1" d="M259.2,312.9c-2.9,6.3-6,12.6-7.6,19.5c-0.4,1.9,2.5,2.7,2.9,0.8c1.5-6.6,4.4-12.6,7.3-18.8
			C262.6,312.7,260.1,311.1,259.2,312.9L259.2,312.9z"/>
	</g>
</g>
<g id="XMLID_97_">
	<g id="XMLID_288_">
		<path id="XMLID_255_" class="st1" d="M113.3,307.3c2.9-2.2,5.4-4.8,7.8-7.6c-0.9-0.4-1.7-0.7-2.6-1.1c0.4,3.4,0,6.6-1.5,9.7
			c-0.9,1.7,1.7,3.2,2.6,1.5c1.5-3,3.7-5.2,6.8-6.6c-0.8-0.4-1.5-0.9-2.3-1.3c-0.4,3.8-1,7.5-1.8,11.2c-0.4,1.9,2.5,2.7,2.9,0.8
			c0.9-4,1.6-8,2-12c0.1-1.2-1.3-1.7-2.3-1.3c-3.5,1.6-6.2,4.2-7.9,7.7c0.9,0.5,1.7,1,2.6,1.5c1.8-3.6,2.5-7.3,2-11.2
			c-0.1-1.1-1.6-2.2-2.6-1.1c-2.3,2.8-4.9,5.3-7.8,7.6C109.6,306.4,111.8,308.5,113.3,307.3L113.3,307.3z"/>
	</g>
</g>
<g id="XMLID_91_">
	<g id="XMLID_282_">
		<path id="XMLID_249_" class="st1" d="M131.5,307.8c-1.5,2.8-3.3,5.4-5.4,7.8c-1.3,1.4,0.8,3.6,2.1,2.1c2.3-2.6,4.3-5.4,5.9-8.4
			C135,307.6,132.5,306.1,131.5,307.8L131.5,307.8z"/>
	</g>
</g>
<g id="XMLID_133_">
	<g id="XMLID_276_">
		<path id="XMLID_243_" class="st1" d="M137.4,310.2c-1.8,2.9-3.6,5.7-5.4,8.6c-1,1.6,1.6,3.1,2.6,1.5c1.8-2.9,3.6-5.7,5.4-8.6
			C141,310.1,138.5,308.6,137.4,310.2L137.4,310.2z"/>
	</g>
</g>
<g id="XMLID_135_">
	<g id="XMLID_270_">
		<path id="XMLID_237_" class="st1" d="M143.2,313.2c-2.2,0.3-6.4,1.4-6.7,4.2c-0.2,1.5,1.1,2.6,2,3.7c1.4,1.7,2.8,3.5,4.2,5.2
			c1.2,1.5,3.3-0.6,2.1-2.1c-1.4-1.7-2.8-3.5-4.2-5.2c-0.4-0.5-0.7-0.9-1.1-1.4c-0.1,0.6,0.2,0.5,0.7-0.2c0.9-0.6,1.9-1,3-1.1
			C145.1,315.9,145.1,312.9,143.2,313.2L143.2,313.2z"/>
	</g>
</g>
<g id="XMLID_141_">
	<g id="XMLID_264_">
		<path id="XMLID_230_" class="st1" d="M149.9,317.6c-1.1,3.3-2.3,6.6-3.4,9.9c-0.6,1.8,2.3,2.6,2.9,0.8c1.1-3.3,2.3-6.6,3.4-9.9
			C153.4,316.6,150.5,315.8,149.9,317.6L149.9,317.6z"/>
	</g>
</g>
<g id="XMLID_142_">
	<g id="XMLID_257_">
		<path id="XMLID_223_" class="st1" d="M151.3,320.3c1.6,0.3,3.2,0.6,4.8,0.8c1.9,0.3,2.7-2.6,0.8-2.9c-1.6-0.3-3.2-0.6-4.8-0.8
			C150.2,317.1,149.4,319.9,151.3,320.3L151.3,320.3z"/>
	</g>
</g>
<g id="XMLID_147_">
	<g id="XMLID_251_">
		<path id="XMLID_216_" class="st1" d="M151.3,326c1.2-0.1,2.4,0,3.6,0.4c1.9,0.5,2.6-2.4,0.8-2.9c-1.4-0.4-2.9-0.6-4.4-0.5
			c-0.8,0.1-1.5,0.6-1.5,1.5C149.8,325.3,150.4,326.1,151.3,326L151.3,326z"/>
	</g>
</g>
<g id="XMLID_149_">
	<g id="XMLID_245_">
		<path id="XMLID_209_" class="st1" d="M148.5,331c1.9,0,3.8,0.4,5.5,1.2c1.8,0.8,3.3-1.8,1.5-2.6c-2.3-1-4.6-1.5-7.1-1.6
			C146.6,328,146.6,331,148.5,331L148.5,331z"/>
	</g>
</g>
<g id="XMLID_155_">
	<g id="XMLID_239_">
		<path id="XMLID_202_" class="st1" d="M161.7,321.5c0.2,4-0.1,7.8-1,11.7c-0.3,1.2,0.7,2,1.8,1.8c2.4-0.4,4.7-0.8,7.1-1.2
			c1.9-0.3,1.1-3.2-0.8-2.9c-2.4,0.4-4.7,0.8-7.1,1.2c0.6,0.6,1.2,1.2,1.8,1.8c0.9-4.1,1.3-8.3,1.1-12.5
			C164.6,319.6,161.6,319.6,161.7,321.5L161.7,321.5z"/>
	</g>
</g>
<g id="XMLID_162_">
	<g id="XMLID_232_">
		<path id="XMLID_195_" class="st1" d="M175.1,335.5c1.8-4.6,1.9-9.9,4.7-14c-0.9,0-1.7,0-2.6,0c2.2,4,3.2,8.9,4.6,13.3
			c0.6,1.8,3.5,1,2.9-0.8c-1.5-4.6-2.6-9.7-4.9-14c-0.6-1-2-0.9-2.6,0c-3,4.4-3.2,9.9-5,14.8C171.5,336.5,174.4,337.3,175.1,335.5
			L175.1,335.5z"/>
	</g>
</g>
<g id="XMLID_169_">
	<g id="XMLID_225_">
		<path id="XMLID_188_" class="st1" d="M175.3,332.5c1.4-0.1,2.8-0.2,4.2-0.3c1.9-0.1,1.9-3.1,0-3c-1.4,0.1-2.8,0.2-4.2,0.3
			C173.3,329.7,173.3,332.7,175.3,332.5L175.3,332.5z"/>
	</g>
</g>
<g id="XMLID_176_">
	<g id="XMLID_218_">
		<path id="XMLID_180_" class="st1" d="M185.4,322.9c0.9,3.8,1.6,7.6,2.1,11.5c0.3,1.9,3.2,1.1,2.9-0.8c-0.5-3.9-1.2-7.7-2.1-11.5
			C187.8,320.2,184.9,321,185.4,322.9L185.4,322.9z"/>
	</g>
</g>
<g id="XMLID_183_">
	<g id="XMLID_212_">
		<path id="XMLID_172_" class="st1" d="M189.7,328.1c0.8-0.1,1.7-0.2,2.5-0.3c0.8-0.1,1.5-0.6,1.5-1.5c0-0.7-0.7-1.6-1.5-1.5
			c-0.8,0.1-1.7,0.2-2.5,0.3c-0.8,0.1-1.5,0.6-1.5,1.5C188.2,327.4,188.9,328.2,189.7,328.1L189.7,328.1z"/>
	</g>
</g>
<g id="XMLID_190_">
	<g id="XMLID_205_">
		<path id="XMLID_165_" class="st1" d="M191.6,322.1c0.6,3.7,1.1,7.5,2.8,10.9c0.8,1.7,3.4,0.2,2.6-1.5c-1.5-3.2-1.9-6.8-2.5-10.2
			C194.2,319.4,191.3,320.2,191.6,322.1L191.6,322.1z"/>
	</g>
</g>
<g id="XMLID_197_">
	<g id="XMLID_198_">
		<path id="XMLID_157_" class="st1" d="M201.8,331.5c0.5-4.4,0.9-8.8,1-13.2c-0.9,0.3-1.9,0.5-2.8,0.8c2.8,3.9,3,8.9,5.8,12.8
			c1.1,1.6,3.7,0.1,2.6-1.5c-2.8-3.9-3.1-8.9-5.8-12.8c-0.8-1.2-2.7-0.8-2.8,0.8c-0.1,4.4-0.5,8.8-1,13.2
			C198.6,333.4,201.6,333.4,201.8,331.5L201.8,331.5z"/>
	</g>
</g>
<g id="XMLID_204_">
	<g id="XMLID_191_">
		<path id="XMLID_150_" class="st1" d="M200.6,330.2c1,0.2,1.9,0.1,2.9-0.4c0.7-0.3,0.9-1.4,0.5-2.1c-0.4-0.8-1.3-0.9-2.1-0.5
			c0.2-0.1-0.5,0.1-0.2,0.1c-0.1,0-0.6,0-0.4,0c-0.8-0.1-1.7,0.2-1.8,1C199.4,329.1,199.8,330,200.6,330.2L200.6,330.2z"/>
	</g>
</g>
<g id="XMLID_211_">
	<g id="XMLID_184_">
		<path id="XMLID_136_" class="st1" d="M207.1,318.9c0.8,1.7,1.9,3.2,3.2,4.5c1.4,1.4,3.5-0.7,2.1-2.1c-1.1-1.2-2-2.4-2.8-3.9
			C208.8,315.7,206.2,317.2,207.1,318.9L207.1,318.9z"/>
	</g>
</g>
<g id="XMLID_222_">
	<g id="XMLID_174_">
		<path id="XMLID_134_" class="st1" d="M212.7,317.4c-0.8,4.1-1.6,8.3-2.3,12.4c-0.3,1.9,2.6,2.7,2.9,0.8c0.7-4.2,1.4-8.3,2.3-12.4
			C216,316.3,213.1,315.5,212.7,317.4L212.7,317.4z"/>
	</g>
</g>
<g id="XMLID_229_">
	<g id="XMLID_167_">
		<path id="XMLID_132_" class="st1" d="M219.5,328.8c0-0.1,0-0.2,0-0.2c0-0.8-0.7-1.5-1.5-1.5c-0.8,0-1.5,0.7-1.5,1.5
			c0,0.1,0,0.2,0,0.2c0,0.8,0.7,1.5,1.5,1.5C218.8,330.2,219.5,329.6,219.5,328.8L219.5,328.8z"/>
	</g>
</g>
<g id="XMLID_236_">
	<g id="XMLID_159_">
		<path id="XMLID_131_" class="st1" d="M224.3,315.2c-4.2,0.2-5.6,5.7-4.9,9.2c1,4.9,6,4.4,9.6,2.8c1.8-0.8,0.2-3.4-1.5-2.6
			c-1.8,0.8-4.8,1.8-5.2-1.1c-0.2-1.3,0.2-5.2,2-5.3C226.2,318.1,226.2,315.1,224.3,315.2L224.3,315.2z"/>
	</g>
</g>
<g id="XMLID_260_">
	<g id="XMLID_152_">
		<path id="XMLID_126_" class="st1" d="M232.6,312c-2.5,1.2-4,3.8-3.7,6.6c0.3,2.5,2.7,5.8,5.6,5.1c2.6-0.7,3.9-4.3,3.8-6.7
			c-0.1-2.8-2.5-5.4-5.4-5.1c-1.9,0.2-1.9,3.2,0,3c3.9-0.4,2.3,6.3,0.4,5.7c-1.1-0.3-1.6-2.4-1.4-3.3c0.2-1.3,1.1-2.1,2.2-2.7
			C235.9,313.7,234.4,311.1,232.6,312L232.6,312z"/>
	</g>
</g>
<g id="XMLID_161_">
	<g id="XMLID_144_">
		<path id="XMLID_125_" class="st1" d="M242.4,318.2c0.2-1.8,0.1-3.5-0.4-5.2c-0.5-1.8-1.6-3.4-1.5-5.3c-0.9,0.4-1.7,0.7-2.6,1.1
			c1.4,1.2,2.8,2.4,4.1,3.6c1,0.8,2.5,0.3,2.6-1.1c0-0.5-0.3-3.7,0-4c-0.5,0.1-1,0.3-1.5,0.4c0.4,0.1,2,2.6,2.5,3.2
			c1,1.3,2.1,2.7,3.1,4c1.2,1.5,3.3-0.6,2.1-2.1c-1.3-1.7-2.6-3.4-4-5.1c-0.8-1-1.6-2.7-3-2.9c-3.1-0.5-2.3,4.9-2.3,6.5
			c0.9-0.4,1.7-0.7,2.6-1.1c-1.4-1.2-2.8-2.4-4.1-3.6c-1-0.8-2.5-0.3-2.6,1.1c-0.1,1.7,0.6,3,1.2,4.5c0.7,2,0.9,3.9,0.7,6
			C239.2,320.2,242.3,320.1,242.4,318.2L242.4,318.2z"/>
	</g>
</g>
<g id="XMLID_78_">
	<g id="XMLID_127_">
		<path id="XMLID_90_" d="M135.5,342.5c-0.1,0-0.1,0-0.2,0c-0.8,0-1.5,0.7-1.5,1.5c0,0.8,0.7,1.5,1.5,1.5c0.1,0,0.1,0,0.2,0
			c0.8,0,1.5-0.7,1.5-1.5C137,343.2,136.3,342.5,135.5,342.5L135.5,342.5z"/>
	</g>
</g>
<g id="XMLID_96_">
	<g id="XMLID_121_">
		<path id="XMLID_85_" d="M137,346.8c1.9,0,1.9-3,0-3C135.1,343.8,135.1,346.8,137,346.8L137,346.8z"/>
	</g>
</g>
<g id="XMLID_182_">
	<g id="XMLID_72_">
		<path id="XMLID_119_" class="st3" d="M136.1,343.9c-0.4,4.8,2.2,9.5,5.8,12.8s8.1,5.3,12.6,7.2c4.2,1.7,8.4,3.3,12.8,4.3
			c8.8,2,18,1.6,27,0.4c5.4-0.7,10.8-1.7,16.1-3c1.4-0.3,2.9-0.7,4.1-1.6c2.2-1.5,3.1-4.4,3.3-7.1c4.3,0.2,8.7-0.3,12.8-1.5
			c0-1.8-0.4-3.5-1-5.1c-4.9,1-9.9,1.6-14.9,1.5c-0.3,0-0.7,0-1-0.2c-0.3-0.2-0.5-0.5-0.7-0.8c-1.8-2.7-5.3-4-8.6-4
			s-6.5,0.8-9.7,1.3c-16.7,2.9-33.6-2.5-50.4-4.9c-2.9-0.4-5.9-0.8-8.8-0.2"/>
		<g id="XMLID_114_">
			<path id="XMLID_84_" d="M134.6,343.9c-0.2,8,5.1,14.1,11.8,17.8c7.9,4.5,17.2,7.8,26.2,8.9c10,1.2,20.3,0,30.1-1.8
				c8.1-1.5,15.5-2.3,16.5-11.8c-0.5,0.5-1,1-1.5,1.5c4.5,0.1,8.8-0.4,13.2-1.6c0.6-0.2,1.2-0.8,1.1-1.4c-0.2-2-0.5-3.6-1.1-5.5
				c-0.3-0.8-1-1.2-1.8-1c-3.8,0.8-11.3,3-15.1,0.9c-2.4-1.3-3.3-3.3-6.4-4.1c-6.8-1.7-14.5,1.5-21.3,1.7c-9,0.2-17.9-1.3-26.7-3
				c-7.8-1.5-16.2-3.9-24.1-3c-1.9,0.2-1.9,3.2,0,3c8.8-1.1,18.4,2,27.1,3.5c8.1,1.5,16.4,2.7,24.7,2.4c3.8-0.2,7.4-0.8,11.1-1.4
				c2-0.3,4.1-0.7,6.1-0.7c3.6,0.2,4.8,1.8,7.5,3.6c4.6,3.2,12.7,0.9,18.1-0.2c-0.6-0.3-1.2-0.7-1.8-1c0.6,1.5,0.9,3.1,1,4.7
				c0.4-0.5,0.7-1,1.1-1.4c-4.1,1.1-8.2,1.6-12.4,1.5c-0.9,0-1.4,0.7-1.5,1.5c-0.6,5.7-4.9,6.9-9.8,8c-3.6,0.8-7.2,1.4-10.8,1.9
				c-8,1.1-16.4,1.7-24.4,0.5c-7-1.1-14-3.7-20.4-6.8c-6.8-3.3-13.3-8.4-13.2-16.7C137.7,341.9,134.7,341.9,134.6,343.9L134.6,343.9
				z"/>
		</g>
	</g>
	<g id="XMLID_175_">
		<path id="XMLID_112_" class="st3" d="M137.2,344.3c1.3,0.1,2,2,1,2.8c1-1.1,2-2.1,3-3.2c-0.6,1.8-1,3.7-1.2,5.6
			c1.5-1.3,3-2.5,4.5-3.9c-0.9,2.4-1.7,4.9-2.4,7.3c2.2-2.1,4.4-4.3,6.6-6.4c-0.8,2.6-1.6,5.2-2.4,7.7c1.7-2.4,3.4-4.7,5.1-7.1
			c-1.5,3.4-2.7,7-3.5,10.6c1.3-2.4,2.6-4.8,4-7.3c0.5,1.7,2.4,2.6,4.1,3.3c7.4,2.9,15.3,4.3,23.2,5.4c2.4,0.3,4.8,0.7,7.2,0.6
			c2.1-0.1,4.1-0.4,6.1-0.7c8.4-1.3,16.9-2.1,25.3-2.9c0-1-0.5-2-1.4-2.5"/>
		<g id="XMLID_107_">
			<path id="XMLID_79_" d="M136.4,345.6c0.2,0.3,0.3,0.5,0.5,0.8c-0.7,1.5,1.1,3.1,2.4,1.8c1-1.1,2-2.1,3-3.2
				c-0.8-0.5-1.7-1-2.5-1.5c-0.5,1.9-0.9,3.7-1.2,5.6c-0.2,1.5,1.3,2.5,2.5,1.5c1.5-1.3,3-2.6,4.5-3.9c-0.8-0.5-1.7-1-2.5-1.5
				c-0.9,2.4-1.7,4.9-2.4,7.3c-0.4,1.5,1.5,2.5,2.5,1.5c2.2-2.1,4.4-4.3,6.6-6.4c-0.8-0.5-1.7-1-2.5-1.5c-0.8,2.6-1.6,5.2-2.4,7.7
				c-0.5,1.7,1.8,2.5,2.7,1.2c1.7-2.4,3.4-4.7,5.1-7.1c-0.9-0.4-1.8-0.8-2.7-1.2c-1.4,3.5-2.6,7-3.5,10.6c-0.4,1.6,1.9,2.7,2.7,1.2
				c1.3-2.4,2.6-4.8,4-7.3c-0.9,0-1.7,0-2.6,0c2.1,3.9,7.1,4.9,11,6c6.2,1.8,12.6,2.8,18.9,3.6c4.9,0.6,9.4,0.1,14.3-0.6
				c7.6-1.1,15.3-1.8,23-2.6c1-0.1,1.6-0.9,1.4-1.9c-0.2-1.4-0.7-2.3-1.8-3.1c-1.5-1.2-3.6,0.9-2.1,2.1c0.4,0.6,0.7,1.2,1.1,1.8
				c0.5-0.6,1-1.3,1.4-1.9c-5.5,0.5-11.1,1.1-16.6,1.7c-4.9,0.6-9.9,1.7-14.9,1.9c-5.3,0.2-10.8-1-15.9-2
				c-4.5-0.9-14.9-2.1-17.3-6.5c-0.5-1-2.1-1-2.6,0c-1.3,2.4-2.6,4.8-4,7.3c0.9,0.4,1.8,0.8,2.7,1.2c0.9-3.6,2.1-7.2,3.5-10.6
				c0.7-1.7-1.8-2.4-2.7-1.2c-1.7,2.4-3.4,4.7-5.1,7.1c0.9,0.4,1.8,0.8,2.7,1.2c0.8-2.6,1.6-5.2,2.4-7.7c0.5-1.5-1.5-2.5-2.5-1.5
				c-2.2,2.1-4.4,4.3-6.6,6.4c0.8,0.5,1.7,1,2.5,1.5c0.7-2.5,1.5-4.9,2.4-7.3c0.6-1.5-1.5-2.4-2.5-1.5c-1.5,1.3-2.9,2.6-4.5,3.9
				c0.8,0.5,1.7,1,2.5,1.5c0.3-1.9,0.7-3.7,1.2-5.6c0.4-1.4-1.5-2.6-2.5-1.5c-1,1.1-2,2.1-3,3.2c0.8,0.6,1.6,1.2,2.4,1.8
				c1-2,0.6-4-1.6-4.9C136.2,342.3,134.6,344.8,136.4,345.6L136.4,345.6z"/>
		</g>
	</g>
</g>
<g id="XMLID_3_">
	<g id="XMLID_7_">
		<g id="XMLID_98_">
			<path id="XMLID_65_" class="st1" d="M120.5,94.8c0.5,2.6,1.3,5.1,2.8,7.4c1.6,2.5,3.8,4.6,4.7,7.5c0.3,0.9,1.4,1.4,2.2,0.9
				c3.3-2.1,6.8-3.4,10.7-3.9c1.9-0.2,1.9-3.2,0-3c-4.5,0.5-8.5,1.9-12.3,4.3c0.7,0.3,1.5,0.6,2.2,0.9c-1.8-5.5-6.4-9-7.5-15
				C123.1,92.1,120.2,92.9,120.5,94.8L120.5,94.8z"/>
		</g>
	</g>
	<g id="XMLID_9_">
		<g id="XMLID_92_">
			<path id="XMLID_59_" class="st1" d="M152.2,104.6c0.4-3.6,0.8-7.1,1.4-10.7c0.3-2.1,0.3-9.1,3.5-7.5c2.1,1,4.5,5.1,5.6,6.9
				c1.7,2.7,3,5.6,4,8.7c0.6,1.8,3.5,1,2.9-0.8c-1.5-4.4-3.5-8.4-6.2-12.1c-1.6-2.2-4.5-6.7-7.7-6.8c-3.2,0-3.9,3.7-4.3,6.1
				c-1,5.4-1.6,10.8-2.2,16.2C149,106.6,152,106.5,152.2,104.6L152.2,104.6z"/>
		</g>
	</g>
	<g id="XMLID_10_">
		<g id="XMLID_86_">
			<path id="XMLID_52_" class="st1" d="M153.8,99.4c3.3-1.4,6.7-2.4,10.2-3.1c1.9-0.4,1.1-3.3-0.8-2.9c-3.8,0.7-7.4,1.9-11,3.4
				C150.5,97.6,152,100.2,153.8,99.4L153.8,99.4z"/>
		</g>
	</g>
	<g id="XMLID_21_">
		<g id="XMLID_80_">
			<path id="XMLID_45_" class="st1" d="M179.7,83.7c0.3,5.2,0.4,10.4,0.4,15.7c0,1.9,3,1.9,3,0c0.1-5.2-0.1-10.4-0.4-15.7
				C182.6,81.8,179.6,81.7,179.7,83.7L179.7,83.7z"/>
		</g>
	</g>
	<g id="XMLID_22_">
		<g id="XMLID_74_">
			<path id="XMLID_38_" class="st1" d="M182.4,93.2c3.6-0.9,7.2-1.2,10.9-1c1.9,0.1,1.9-2.9,0-3c-4-0.2-7.9,0.2-11.7,1.1
				C179.8,90.8,180.6,93.7,182.4,93.2L182.4,93.2z"/>
		</g>
	</g>
	<g id="XMLID_26_">
		<g id="XMLID_68_">
			<path id="XMLID_31_" class="st1" d="M192.1,83.7c-0.1,5.3-0.2,10.7-0.3,16c0,1.9,3,1.9,3,0c0.1-5.3,0.2-10.7,0.3-16
				C195.1,81.7,192.1,81.7,192.1,83.7L192.1,83.7z"/>
		</g>
	</g>
	<g id="XMLID_27_">
		<g id="XMLID_61_">
			<path id="XMLID_20_" class="st1" d="M207.9,102.7c3.8-5.9,7.9-11.5,12.3-16.8c-0.7,0-1.4,0-2.1,0c3.1,2.8,1.6,8.9,1.5,12.5
				c0,3.3,0.4,6.3,1.8,9.3c0.8,1.8,3.4,0.2,2.6-1.5c-3-6.6,2-17.2-3.8-22.4c-0.6-0.5-1.6-0.6-2.1,0c-4.6,5.6-8.9,11.4-12.8,17.4
				C204.3,102.8,206.9,104.3,207.9,102.7L207.9,102.7z"/>
		</g>
	</g>
	<g id="XMLID_29_">
		<g id="XMLID_54_">
			<path id="XMLID_8_" class="st1" d="M211,100c3.4,0.1,6.9,0.2,10.3,0.3c1.9,0.1,1.9-2.9,0-3c-3.4-0.1-6.9-0.2-10.3-0.3
				C209.1,96.9,209.1,99.9,211,100L211,100z"/>
		</g>
	</g>
	<g id="XMLID_35_">
		<g id="XMLID_47_">
			<path id="XMLID_6_" class="st1" d="M238.5,92.7c-0.1,3.7,0.2,7.4,0.9,11.1c0.4,1.9,3.3,1.1,2.9-0.8c-0.6-3.4-0.9-6.8-0.8-10.3
				C241.6,90.7,238.6,90.7,238.5,92.7L238.5,92.7z"/>
		</g>
	</g>
	<g id="XMLID_42_">
		<g id="XMLID_40_">
			<path id="XMLID_5_" class="st1" d="M251.6,95.7c-5.6,3.8-10.8,8.1-15.8,12.7c0.8,0.5,1.7,1,2.5,1.5c0-0.2,0.1-0.3,0.1-0.5
				c0.4-1.9-2.5-2.7-2.9-0.8c0,0.2-0.1,0.3-0.1,0.5c-0.3,1.5,1.4,2.5,2.5,1.5c4.7-4.5,9.8-8.6,15.2-12.2
				C254.7,97.2,253.2,94.6,251.6,95.7L251.6,95.7z"/>
		</g>
	</g>
	<g id="XMLID_49_">
		<g id="XMLID_33_">
			<path id="XMLID_4_" class="st1" d="M98.2,98.3c4.4,5.4,9.1,10.6,14.1,15.4c2.9,2.8,7.5,9.2,12.1,8.5c2.5-0.4,5-2.1,7.3-3.2
				c3.7-1.8,7.5-3.7,11.3-5.2c7.4-2.9,15.2-4.5,23.1-5.2c14.4-1.3,28.9,0.2,43.2,1.7c8.3,0.9,16.1,2.3,23.6,6
				c6.6,3.3,13,7.2,19.5,10.8c0.6,0.3,1.4,0.3,1.8-0.2c5.8-6.4,11.6-12.7,17.4-19.1c2.1-2.3,7.5-6.1,4.2-9.4
				c-2.1-2.1-6.8-3.2-9.6-4.4c-3.3-1.4-6.5-2.7-9.8-4.1c-7.5-3-14.9-5.9-22.5-8.7c-14.6-5.4-29.3-7.2-44.8-7.3
				c-14.6-0.1-29.5-0.3-43.9,2.4c-7.8,1.5-15.4,3.9-22.4,7.7c-7.8,4.2-15,9.5-23.8,11.7c-1.9,0.5-1.1,3.4,0.8,2.9
				c7.9-2,14.6-6.3,21.5-10.4c7.5-4.3,15.3-7.3,23.7-8.9c16.9-3.3,35.2-2.9,52.4-2.3c9.5,0.4,18.8,1.5,27.9,4.3
				c8.2,2.5,16.1,5.9,24.1,9c4.1,1.6,8.1,3.2,12.1,4.9c2.7,1.1,5.5,2.3,8.2,3.5c2.5,1.1,4.3,0.8,2.4,3.9c-2.3,3.7-6.4,7-9.4,10.3
				c-3.6,3.9-7.2,7.8-10.7,11.8c0.6-0.1,1.2-0.2,1.8-0.2c-12.2-6.8-23.7-14.4-37.8-16.4c-13.8-2-28-3.2-41.9-2.9
				c-13.7,0.3-26.6,3-39,8.8c-3.1,1.5-9.5,5.9-13,4.6c-2.3-0.9-5.3-4.8-7.1-6.4c-5.2-5-10.1-10.4-14.7-16
				C99.1,94.7,97,96.8,98.2,98.3L98.2,98.3z"/>
		</g>
	</g>
	<g id="XMLID_56_">
		<g id="XMLID_24_">
			<path id="XMLID_2_" class="st1" d="M109,111.7c-7.4,7.8-14.8,15.6-22.2,23.4c-1,1,0,3.1,1.5,2.5c9.3-3.6,18.7-7.2,28-10.8
				c-0.6-0.5-1.3-1-1.9-1.4c-0.8,6.8-6.3,11.9-7.7,18.6c-0.3,1.5,1.3,2.4,2.5,1.5c4.1-3.3,6-8.2,9.7-11.8c5-4.8,12-5.4,18.5-6
				c1-0.1,1.7-0.9,1.4-1.9c-0.7-3.3-1.7-6.3-3-9.4c-0.8-1.8-3.4-0.2-2.6,1.5c1.2,2.8,2.1,5.7,2.7,8.6c0.5-0.6,1-1.3,1.4-1.9
				c-6.2,0.5-12.7,1.1-18,4.7c-5.3,3.6-7.4,10-12.3,13.9c0.8,0.5,1.7,1,2.5,1.5c1.5-7,7-12.2,7.8-19.4c0.1-0.9-1.1-1.8-1.9-1.4
				c-9.3,3.6-18.7,7.2-28,10.8c0.5,0.8,1,1.7,1.5,2.5c7.4-7.8,14.8-15.6,22.2-23.4C112.5,112.4,110.4,110.3,109,111.7L109,111.7z"/>
		</g>
	</g>
	<g id="XMLID_67_">
		<g id="XMLID_16_">
			<path id="XMLID_1_" class="st1" d="M237.4,120.2c-1,3.8-2,7.7-2.8,11.5c-0.3,1.2,0.7,2,1.8,1.8c10.7-1.5,17.9,7.3,23.4,15
				c0.9,1.2,2.6,0.8,2.8-0.8c0.6-5.8,0.7-11.6,0.4-17.4c-0.6,0.5-1.3,1-1.9,1.4c6.3,2.4,12,5.6,17.3,9.7c1.1,0.8,2.4,0.3,2.6-1.1
				c0.4-4.8-3.3-8.6-5.8-12.3c-3.3-4.8-6.7-9.7-10-14.5c-1.1-1.6-3.7-0.1-2.6,1.5c2.6,3.8,5.3,7.6,7.9,11.5c2.5,3.6,8,9.1,7.5,13.8
				c0.9-0.4,1.7-0.7,2.6-1.1c-5.7-4.5-11.8-7.9-18.6-10.5c-0.9-0.3-1.9,0.5-1.9,1.4c0.3,5.8,0.1,11.6-0.4,17.4
				c0.9-0.3,1.9-0.5,2.8-0.8c-6.5-9.1-14.6-18.2-26.8-16.4c0.6,0.6,1.2,1.2,1.8,1.8c0.9-3.9,1.8-7.7,2.8-11.5
				C240.8,119.1,237.9,118.3,237.4,120.2L237.4,120.2z"/>
		</g>
	</g>
</g>

</svg>
