<?xml version="1.0" encoding="utf-8"?>
<!-- Generator: Adobe Illustrator 19.0.0, SVG Export Plug-In . SVG Version: 6.00 Build 0)  -->
<svg version="1.1" id="Layer_1" xmlns="http://www.w3.org/2000/svg" xmlns:xlink="http://www.w3.org/1999/xlink" x="0px" y="0px"
	 viewBox="0 0 960 560" style="enable-background:new 0 0 960 560; width: 400px"   xml:space="preserve">
<g id="XMLID_1_" fill='red' stroke='yellow' stroke-width='5'>
	<g id="XMLID_48_">
		<path  id="XMLID_52_" d="M5.8-233.5c5-7.8,11.7-14.4,19.8-19.1c3.6-2.1,8.9-5.4,13.3-4.6c7.6,1.3,2.3,10.1-0.2,13.7
			c-10.5,15-27.1,25-45,28.2c1.1,1.5,2.3,2.9,3.4,4.4c7.6-12.6,17.8-23.6,30-31.9c5.8-3.9,12.1-7.7,18.7-10.1
			c8.5-3.1,11.8,4,12.1,11.4c0.6,13.2-4.5,27.5-11.1,38.7c-7.2,12.2-17.3,22.4-29.5,29.6c1.4,1.4,2.7,2.7,4.1,4.1
			c14.3-24.7,33.1-46.5,55.4-64.3c11.2-8.9,23.3-16.8,36.1-23.4c3-1.6,6.1-3.1,9.1-4.5c1.7-0.8,3.3-1.5,5-2.3c2.6-1.1,5-2.5,7.2-0.4
			c2.1,2.1,0.9,4.2-0.3,6.5c-0.8,1.5-1.8,3-2.7,4.5c-2.4,3.8-4.7,7.6-7.1,11.4c-10.6,16.8-21.6,33.4-33,49.8
			c-1.9,2.8,2.6,6.3,4.7,3.6c12.9-16.2,25.9-32.5,40.8-47c7.4-7.2,15.2-14,23.6-19.9c4-2.8,8.3-6.1,12.8-7.9
			c9.3-3.5,5.5,6.5,3.2,10.8c-9.9,18.8-21.6,36.7-29.2,56.7c-2.5,6.5-7.6,17.2-3.2,23.9c5.4,8.1,14.5,1.1,19.4-3.4
			c19.6-17.8,38.8-36.2,57.4-55c-1.4-1.4-2.8-2.8-4.2-4.2c-18.2,20.8-37.1,43.3-40,71.8c-0.3,2.6,3.5,4,5.1,2.1
			c10.3-11.6,20.1-24,31.1-34.8c2.7-2.6,6-5.5,10-5.1c2.8,0.3,5.2,2.2,7.4,3.8c4,2.8,7.8,5.7,13,5.1c2-0.2,4.1-2.5,2.6-4.5
			c-9.6-13.5-29.1,6-35.3,13.8c-4.5,5.6-11,13.9-9.2,21.6c1.5,6.9,8.9,10.5,15.5,10.1c8.4-0.5,16.4-5.9,23.4-10.1
			c7.5-4.5,14.6-9.4,21.4-14.8c13.7-10.8,25.8-23.4,36.3-37.3c5.9-7.9,11.6-16.3,16-25.2c3.6-7.4,5.6-16.1-0.2-22.9
			c-1.3-1.6-3.7-0.9-4.7,0.6c-24.3,35.7-42.5,75.3-53.8,117c1.9,0.5,3.9,1.1,5.8,1.6c3.8-16.6,12.4-31.6,25.2-42.9
			c2-1.7,5.2-5.3,7.4-2.3c1,1.4,1,4,1,5.7c0,4.8-0.6,9.7-0.9,14.5c-0.4,6.1-1.4,13.8,3,18.8c4.5,5.2,10.6,2.3,15.1-1.3
			c6.8-5.4,12.4-12,18-18.6c11.1-13.3,24.3-28.9,43.2-28.6c0-2,0-4,0-6c-14.3,0.9-27.8,6.6-38.5,16.2c-6.6,5.9-22.2,22.6-11.1,30.9
			c10,7.4,25.5-2.1,34.1-7.5c13-8.2,23.8-19.4,31.8-32.4c1.8-3-2.2-5.8-4.7-3.6c-7.6,6.7-15.9,14.4-17.4,24.9
			c-1.2,8.6,2.3,18.3,11,21.4c9.7,3.4,22-1.1,30.8-5.3c9.6-4.6,18.1-11.5,24.7-19.9c5-6.3,13.8-18,8.7-26.3
			c-4.6-7.6-15.2-4.6-21.4-0.9c-8.8,5.4-17.9,14.4-19.5,25.1c-1.4,9.9,4.8,18.3,13.7,22.1c11.1,4.7,23.2,1.2,33.8-3.1
			c10.4-4.2,20.3-9.3,29.7-15.3c18.8-12.1,35.2-27.7,48.2-45.8c7.9-11,28.4-40.1,8.8-50.3c-9.5-4.9-20.3,2.1-27.5,7.9
			c-8.6,6.9-15.9,15.7-20.8,25.6c-10.9,22.1-8.8,50.1,9.5,67.7c20.8,20.1,51.3,21.5,78.5,22.1c3.9,0.1,3.9-5.9,0-6
			c-20.2-0.5-41.5-0.9-59.9-10.3c-16.7-8.6-28.1-23.9-28.8-43c-0.7-18.3,8-35.4,21.1-47.8c5.7-5.4,16.7-15.3,25.2-10.8
			c8,4.2,4,16.1,0.9,22.2c-15.2,30.8-42.8,56.3-73.1,71.8c-8,4.1-16.6,8.1-25.4,10.2c-9.3,2.2-21.5,1.4-26.6-8.1
			c-4.8-9,2.3-18.6,8.9-24.3c3.2-2.8,6.7-5.5,10.8-6.8c5.4-1.8,10.7-0.5,8.7,6.4c-2.6,8.7-9.8,16.9-16.5,22.7
			c-7.2,6.4-15.9,11.1-25.2,13.6c-5,1.4-11.5,3-16.4,0.5c-4.2-2.1-6-6.9-6.2-11.3c-0.3-10.5,8.7-18.3,15.9-24.6
			c-1.6-1.2-3.1-2.4-4.7-3.6c-6.4,10.4-14.6,19.5-24.4,26.7c-4.5,3.3-9.2,6.1-14.2,8.6c-4.6,2.2-9.7,4.7-14.9,4
			c-13.2-1.8,6-21.4,10.4-24.9c9.1-7.3,20.4-11.7,32-12.5c3.8-0.2,3.9-5.9,0-6c-31.1-0.5-43.9,32.2-65.1,48.7
			c-1.6,1.2-3.7,3.1-5.7,2.3c-1.6-0.6-2.1-2.7-2.4-4.2c-0.7-3.3-0.2-6.8,0-10.2c0.4-6.7,2.1-14.6,0.2-21.3c-1.2-4.4-4.6-7.9-9.4-7.2
			c-5.6,0.9-10.5,6.9-14.2,10.8c-10.4,11.3-17.6,25.1-21.1,40.1c-0.9,3.8,4.8,5.3,5.8,1.6c11.1-41.2,29.1-80.2,53.2-115.5
			c-1.6,0.2-3.1,0.4-4.7,0.6c5.9,7-2,18.2-5.7,24.4c-4.2,7-8.9,13.8-13.9,20.2c-10.3,13-22.3,24.8-35.6,34.8
			c-6.3,4.8-12.9,9.1-19.8,13.1c-6.3,3.6-19,12.3-25.6,5.1c-5.9-6.4,5.8-19.2,10.1-23.6c3.1-3.2,17.1-16.9,21.8-10.3
			c0.9-1.5,1.7-3,2.6-4.5c-6.1,0.7-10.6-5.7-16-7.9c-5.5-2.2-10.9-0.6-15.4,2.9c-6.2,4.8-11.1,11.6-16.3,17.4
			c-6,6.8-12,13.6-18.1,20.3c1.7,0.7,3.4,1.4,5.1,2.1c2.8-26.8,21.2-48.2,38.3-67.6c2.5-2.9-1.5-7-4.2-4.2
			c-16.6,16.8-33.6,33.2-51,49.2c-1.9,1.7-3.8,3.4-5.7,5.2c-1.9,1.7-4.5,4.8-7.1,5.4c-7.8,1.9-2.7-11.3-1.6-14.5
			c3.6-10.7,8.6-20.8,14-30.6c5.2-9.6,10.8-19.1,16-28.8c3.1-5.8,7.6-14.7,0.8-19.7c-6.5-4.8-15.1,1.4-20.5,4.9
			c-8.4,5.5-16.2,11.7-23.5,18.5c-17.2,15.7-31.8,34-46.2,52.2c1.6,1.2,3.1,2.4,4.7,3.6c11.7-16.9,23.1-34,34-51.4
			c4.1-6.4,11.3-14.5,11.4-22.5c0.1-6.7-5.9-9.6-11.8-8.3c-7.6,1.7-15.2,6.4-22,10c-7.1,3.8-14.1,8-20.7,12.6
			c-13.6,9.3-26.2,19.9-37.6,31.8c-12.8,13.4-24,28.3-33.2,44.4c-1.5,2.6,1.5,5.6,4.1,4.1c22.2-13.1,38.2-35.9,42.5-61.3
			c1.5-9.2,2.9-23.5-6.8-29.1c-5.1-2.9-10.6-0.9-15.5,1.2c-6.2,2.8-12.2,6.1-17.8,10C10.2-238.3-0.3-227-8.2-214
			c-1.5,2.4,0.9,4.8,3.4,4.4c12-2.1,23.3-7.1,32.9-14.6c8.1-6.2,19.3-16.5,20.5-27.3c0.5-4.7-1.5-9.2-6-11
			c-4.8-1.9-10.2-0.1-14.6,1.9C16.7-255.5,7.3-247,0.6-236.6C-1.5-233.3,3.7-230.3,5.8-233.5L5.8-233.5z"/>
	</g>
</g>
<g id="XMLID_2_">
	<g id="XMLID_42_">
		<path id="XMLID_46_" d="M609.8-250.7c-5.1,5,1.5,11.4,6.2,13.4c6.8,3,15,1.8,21.8-0.5c8.2-2.8,15.9-7.1,22.7-12.5
			c5-3.9,14.4-11.4,9.1-18.5c-1.1-1.5-3.2-2.1-4.7-0.6c-22.2,22.1-10.1,56.8-26.1,81.6c-6.7,10.4-20.4,21.2-33.6,17.6
			c-2.8-0.8-6.3-2.3-7.4-5.3c-1.8-4.9,3.6-8.9,8-9.3c8.3-0.7,16.7,5.4,23.3,9.7c13.8,8.9,28.5,18.7,45.8,14.9
			c3.8-0.8,2.2-6.6-1.6-5.8c-20.5,4.6-36.5-13.4-53.5-21.4c-6.8-3.2-15.1-5.3-21.9-0.9c-5.3,3.4-8.3,10.2-5.2,16.1
			c6.5,12.4,25,9,34.8,3.4c13.9-8.1,21.9-22.8,24.9-38.3c3.7-19.6,1.5-42.9,16.8-58.1c-1.6-0.2-3.1-0.4-4.7-0.6
			c4.7,6.2-19.8,18.7-24,20.5c-4.3,1.8-8.8,3.4-13.5,3.7c-2.2,0.1-4.4,0.1-6.5-0.5c-0.7-0.2-7.3-3.4-6.3-4.4
			C616.8-249.2,612.5-253.4,609.8-250.7L609.8-250.7z"/>
	</g>
</g>
<g id="XMLID_3_">
	<g id="XMLID_36_">
		<path id="XMLID_40_" d="M735.4-192.9c0.7-5.4-2.8-10.2-7.8-12.2c-5.1-2.1-10.7-0.5-15.2,2.3c-9.8,6.2-20.3,19.6-20.7,31.6
			c-0.2,4.9,1.9,10.1,6.3,12.6c5,2.8,10.9,0.9,15.4-2.1c10.4-7.1,17.3-19,19.4-31.3c-1.9-0.5-3.9-1.1-5.8-1.6
			c-1.5,11-2.9,23.1,3.3,33c5.8,9.2,15.4,11.3,25.7,10.5c3.8-0.3,3.9-6.3,0-6c-8.6,0.7-16.8-0.6-21.2-8.8c-4.5-8.2-3.2-18.2-2-27.1
			c0.5-3.7-5.1-5.5-5.8-1.6c-1.3,7.6-4.3,14.8-9.3,20.8c-4.2,5.1-18.3,16.5-20,3.4c-1-8,6.4-17.7,11.6-23c2.9-3,6.2-6,10.3-7.2
			c4.7-1.4,10.5,1,9.8,6.7C728.9-189,734.9-189.1,735.4-192.9L735.4-192.9z"/>
	</g>
</g>
<g id="XMLID_4_">
	<g id="XMLID_30_">
		<path id="XMLID_34_" d="M813.8-239.8c5.7,11.2-10.3,15.9-18.3,15.5c-4.4-0.3-10.4-1.7-11.8-6.7c-1.5-5.4,5.1-10.1,8.8-12.8
			c12.2-8.7,36.3-18.5,49.3-6.5c13.9,13,5.9,33.7-2.4,47.2c-9.4,15.2-21.7,28.6-36,39.4c-3,2.3-0.1,7.5,3,5.2
			c15.6-11.8,29-26.2,39-43c8.8-14.6,14.9-34.1,3.8-49.3c-11.3-15.5-32-11.5-47.2-5.1c-7.9,3.3-17,8.3-22,15.7
			c-4.4,6.5-2.6,14.4,4,18.6c13.8,9,45.1-1.4,35-21.3C817.3-246.2,812.1-243.2,813.8-239.8L813.8-239.8z"/>
	</g>
</g>
<g id="XMLID_5_">
	<g id="XMLID_24_">
		<path id="XMLID_28_" d="M895.7-254.4c-13.3,31.9-26.5,63.8-39.8,95.7c1.8-0.2,3.7-0.5,5.5-0.7c-7-14.5-16.8-27.5-28.8-38.2
			c-1,1.7-1.9,3.3-2.9,5c26.7,8.7,54.3,17,82.6,12c-0.8-1.8-1.5-3.7-2.3-5.5c-10.8,8-22.1,15.6-32.5,24.2
			c-5.5,4.5-10.3,14.7-2.1,19.5c7.7,4.6,17.8-5.8,22-11.3c6.1-8.1,9.1-18.2,8.1-28.4c-0.3-3.2-5-4.3-5.9-0.8
			c-3.2,11.9-10.5,24.9-2.7,36.7c6.9,10.6,19.7,7.3,26.9-1.2c4.1-4.8,6.2-10.8,9.3-16.2c1.3-2.2,4.6-8.2,7.7-7.3
			c3,1,1.2,7.4,0.9,9.9c-0.5,4-1,8-1.5,11.9c-0.4,3-1.3,6.5-0.5,9.5c1.3,4.9,6.5,5.9,10.8,4.7c6.3-1.7,12.2-6.8,17.1-11.1
			c6-5.2,11.1-11.4,15.5-18c-1.8-0.2-3.7-0.5-5.5-0.7c5,32.8-19.8,62.9-52.8,64.7c1,1.3,1.9,2.5,2.9,3.8
			c2.1-9.1,12.6-15.6,19.2-21.5c7.3-6.5,14.7-13.1,22-19.6c15.2-13.5,30.3-27,45.5-40.5c2.9-2.6-1.4-6.8-4.2-4.2
			c-16.1,14.4-32.3,28.8-48.4,43.1c-7.8,7-15.6,13.9-23.5,20.9c-6.4,5.7-14.3,11.3-16.3,20.2c-0.4,1.8,0.9,3.9,2.9,3.8
			c37.2-2,64.2-35.6,58.6-72.3c-0.4-2.7-4.2-2.7-5.5-0.7c-4.4,6.7-9.6,12.7-15.8,17.9c-3.2,2.7-6.7,5.4-10.4,7.3
			c-1.1,0.6-3.2,1.9-4.4,1.5c-2.9-1-1.5-4.7-1.2-6.8c0.7-5.7,7.7-32.7-6-30.6c-5.9,0.9-10.2,7.7-12.8,12.5
			c-3.5,6.4-6.1,14.2-12.6,18.3c-7.9,4.9-14.3-1.7-15.1-9.6c-0.9-8.4,3.9-16.8,6-24.6c-2-0.3-3.9-0.5-5.9-0.8
			c0.7,7.2-0.6,14.2-4.2,20.6c-2.3,4.2-10.6,15.7-16.3,13.6c-8.4-3.1,9.5-14.8,12.1-16.8c7.3-5.4,14.6-10.8,21.9-16.2
			c2.7-2,1.1-6.1-2.3-5.5c-27.1,4.8-53.9-3.8-79.4-12c-2.8-0.9-5.1,3-2.9,5c11.7,10.5,21,22.9,27.8,37c1.3,2.6,4.6,1.4,5.5-0.7
			c13.3-31.9,26.5-63.8,39.8-95.7C902.9-256.4,897.1-257.9,895.7-254.4L895.7-254.4z"/>
	</g>
</g>
<g id="XMLID_6_">
	<g id="XMLID_18_">
		<path id="XMLID_22_" d="M236-247c0-0.3,0-0.7,0-1c0-1.6-1.4-3.1-3-3c-1.6,0.1-3,1.3-3,3c0,0.3,0,0.7,0,1c0,1.6,1.4,3.1,3,3
			C234.6-244.1,236-245.3,236-247L236-247z"/>
	</g>
</g>
</svg>
