<?xml version="1.0" encoding="utf-8"?>
<!-- Generator: Adobe Illustrator 19.0.0, SVG Export Plug-In . SVG Version: 6.00 Build 0)  -->
<svg version="1.1" id="Layer_1" xmlns="http://www.w3.org/2000/svg" xmlns:xlink="http://www.w3.org/1999/xlink" x="0px" y="0px"
	 viewBox="-301 65 356.5 432" style="enable-background:new -301 65 356.5 432;" xml:space="preserve">
<style type="text/css">
	.st0{fill:#FFFFFF;}
	.st1{clip-path:url(#SVGID_2_);}
	.st2{clip-path:url(#SVGID_4_);}
	.st3{clip-path:url(#SVGID_6_);}
	.st4{fill:none;stroke:#FFFE45;stroke-miterlimit:10;}
	.st5{stroke:#FFFF00;stroke-width:12;stroke-miterlimit:10;}
	.st6{fill:#FFFF00;}
	.st7{fill:#FFFE45;}
	.st8{fill:#FF0000;}
</style>
<g>
	<g>
		<g>
			<ellipse id="XMLID_380_" class="st0" cx="-127.5" cy="281" rx="173" ry="209"/>
		</g>
		<g id="XMLID_373_">
			<defs>
				<ellipse id="SVGID_1_" cx="-127.5" cy="281" rx="173" ry="209"/>
			</defs>
			<clipPath id="SVGID_2_">
				<use xlink:href="#SVGID_1_"  style="overflow:visible;"/>
			</clipPath>
			<g id="XMLID_375_" class="st1">
				<g>
					<rect id="XMLID_387_" x="-333.6" y="28.4" class="st0" width="424.3" height="501.2"/>
				</g>
				<g>
					<defs>
						<rect id="SVGID_3_" x="-333.6" y="28.4" width="424.3" height="501.2"/>
					</defs>
					<clipPath id="SVGID_4_">
						<use xlink:href="#SVGID_3_"  style="overflow:visible;"/>
					</clipPath>
					<g id="XMLID_382_" class="st2">
						<g>
							<rect id="XMLID_394_" x="-333.6" y="28.4" class="st0" width="424.3" height="501.2"/>
						</g>
						<g id="XMLID_389_">
							<defs>
								<rect id="SVGID_5_" x="-333.6" y="28.4" width="424.3" height="501.2"/>
							</defs>
							<clipPath id="SVGID_6_">
								<use xlink:href="#SVGID_5_"  style="overflow:visible;"/>
							</clipPath>
							<g transform="matrix(1 0 0 1 0 0)" class="st3">
								
									<image style="overflow:visible;enable-background:new    ;" width="2455" height="2893" id="XMLID_396_" xlink:href="E49D19AC089CFE05.jpeg"  transform="matrix(0.1728 0 0 0.1732 -333.637 28.4111)">
								</image>
							</g>
							<g class="st3">
								<rect id="XMLID_1_" x="-333.6" y="28.4" class="st4" width="424.3" height="501.2"/>
							</g>
						</g>
						<g>
							<rect id="XMLID_2_" x="-333.6" y="28.4" class="st4" width="424.3" height="501.2"/>
						</g>
					</g>
				</g>
				<g>
					<ellipse id="XMLID_3_" class="st4" cx="-127.5" cy="281" rx="173" ry="209"/>
				</g>
			</g>
		</g>
		<ellipse id="XMLID_366_" class="st5" cx="-122" cy="281" rx="171.5" ry="210"/>
		<g id="XMLID_329_">
			<path id="XMLID_402_" class="st6" d="M-130.2,192.8c1.9-4.2,5.8-7.2,10.1-8.9c4.3-1.7,8.9-2.3,13.5-2.9c-1.2,1.6-2.3,3.3-3.5,4.9
				c2-0.7,4.1-1.1,6.2-1.1c-0.5,1.6-1.1,3.1-1.6,4.7c2.1,1.2,5.3-2.2,7-0.4c0.9,1,0.2,2.7-0.4,3.9c-3.6,6.7-4.6,14.5-5.6,22.1
				c-0.1,1.1-0.3,2.3,0.2,3.3s1.8,1.7,2.7,1.1c0.4-0.2,0.7-0.7,0.9-1.1c3.2-5.9-0.1-13.6,2.7-19.6c1.3,2.6,2.7,5.1,4,7.7
				c0.4,0.7,0.7,1.4,1.4,1.7c1.7,0.9,3.5-1,4.8-2.5s4-2.6,4.8-0.8c0.2,0.4,0.2,0.9,0.2,1.3c-0.3,5-5.1,8.2-8.6,11.7
				c-0.6,0.6-1.2,1.3-1.5,2.2c-0.7,2.1,0.9,4.2,0.7,6.4c-0.2,2.5-2.6,4.4-5.1,4.7s-5-0.6-7.2-1.6c-6.2-2.7-11.9-6.5-16.9-11
				c-0.8-0.7-1.6-1.5-2.6-1.8c-1.1-0.3-2.3,0-3.5,0.3c-2.1,0.6-4.2,1.4-6.4,1.5s-4.6-0.5-6-2.3c-1.4-1.7-1.3-4.6,0.5-5.9
				c0.7-0.5,1.6-0.7,2.4-0.8c5.1-0.8,11.1-0.3,14.7-4c-5.3-2.8-11.6,0-17.6,0.5c-1.3,0.1-2.7,0.1-3.6-0.9c-1.3-1.4-0.5-3.9,1.1-4.9
				s3.7-1,5.6-1c5.5,0,10.9-0.3,16.4-0.9c1.2-0.1,2.8-0.9,2.3-2c-0.2-0.4-0.7-0.7-1.2-0.8c-1.9-0.6-4-0.7-5.9-0.4
				c-0.1-2-1.7-3.8-3.7-4.3"/>
			<g id="XMLID_397_">
				<path id="XMLID_359_" class="st7" d="M-128.9,193.6c4.3-8.4,13.8-10,22.3-11c-0.4-0.8-0.9-1.5-1.3-2.3c-1.2,1.6-2.3,3.3-3.5,4.9
					c-0.8,1.1,0.5,2.6,1.7,2.2c1.9-0.6,3.8-1,5.8-1c-0.5-0.6-1-1.3-1.4-1.9c-0.5,1.6-1.1,3.1-1.6,4.7c-0.3,0.8,0.3,1.6,1,1.8
					c1.2,0.4,5-1,5.4-0.7c1.4,0.9-2.2,7.7-2.6,8.9c-1.2,3.9-1.9,8-2.4,12.1c-0.3,2.4-1.3,5.5-0.2,7.8c1.7,3.4,5.1,2.4,6.6-0.4
					c3.1-5.9,0.2-13.1,2.5-19.2c-0.9,0.1-1.8,0.2-2.7,0.4c1.4,2.8,3.1,8.6,6.2,10.1c0.8,0.4,1.8,0.4,2.6,0.1c1.5-0.4,5-4.6,6.1-2.6
					c1.4,2.5-7.7,9.1-9,10.9c-0.8,1.1-1.1,2.3-1.1,3.6c0.1,2.3,0.4,1.9-0.4,4.7c0.3,2.1-0.5,3.1-2.3,3c-1.4,0.5-2.7,0.4-4.1-0.2
					c-5-1.5-10-4.6-14.1-7.7c-3.2-2.3-6.2-6.7-10.5-6.3c-2.5,0.2-6.8,2.9-9.1,1.7c-1.7,0.2-2.1-0.8-1.3-3c-1.1-2.6-0.4-3.7,2.3-3.2
					c1-0.1,1.9-0.2,2.9-0.3c3.8-0.4,7.1-1.3,10-3.8c0.7-0.6,0.6-2-0.3-2.4c-4.7-2-8.9-1.3-13.8-0.4c-1.5,0.3-3,0.5-4.5,0.7
					c0.5-1.3,1.1-2.5,1.6-3.8c0.6-0.4,4.4,0,5.1-0.1c3.3-0.1,6.7-0.3,10-0.6c2.1-0.2,7.3-0.4,6.5-4c-0.8-3.1-6.4-2.7-8.6-2.5
					c0.5,0.4,1,0.7,1.4,1.1c-0.6-2.7-2.1-4.3-4.7-5.3c-1.8-0.7-2.6,2.2-0.8,2.9c0.9,1.1,1.7,2.2,2.6,3.2c0.1,0.6,0.8,1.2,1.4,1.1
					c0.9-0.1,2.8-0.7,3,0.4c0,0-4.3,0.3-4.5,0.4c-3.3,0.2-6.7,0.3-10,0.3c-3.2,0.1-7.2,0.4-8.5,3.9c-1.1,3,0.7,5.4,3.7,5.8
					c6.3,1,12.1-3.5,18.5-0.7c-0.1-0.8-0.2-1.6-0.3-2.4c-3.5,3-7.9,2.8-12.2,3.4c-2.1,0.3-4.3,0.5-5.7,2.2c-2.6,3.1-0.6,7.5,2.6,9.1
					c2.1,1,4.5,1,6.7,0.7c1.6-0.3,3.2-1.1,4.8-1.3c3.9-0.4,5.8,2.3,8.5,4.4c5,3.9,11.1,7.9,17.2,9.4c3.8,1,8.9,0.1,10.4-4.2
					c1.3-3.9-1.5-6.2,1.7-10.1c1.8-2.2,4.4-3.8,6-6.3c1.7-2.6,3.9-8.7-0.9-9.3c-2-0.2-3,1.3-4.6,2.1c-0.3,0.4-0.7,0.8-1,1.1
					c-2,0.7-3.2,0.2-3.6-1.7c-1.4-1.5-2.3-4.3-3.2-6.2c-0.7-1.2-2.3-0.8-2.7,0.4c-1.8,4.7-0.9,9.3-1.3,14.1c0.6,2.1,0.2,3-1.3,2.5
					c-1.3,0.2-1.5-0.4-0.7-1.8c-0.2-1.5,0.4-3.4,0.7-4.9c0.5-3.2,1.2-6.4,2.2-9.4c0.9-2.6,5.1-7.9,2.6-10.8
					c-2.3-2.7-5.1,0.6-7.8-0.2c0.3,0.6,0.7,1.2,1,1.8c0.5-1.6,1.1-3.1,1.6-4.7c0.3-0.9-0.5-1.9-1.4-1.9c-2.3,0.1-4.4,0.4-6.6,1.1
					c0.6,0.7,1.1,1.5,1.7,2.2c1.2-1.6,2.3-3.3,3.5-4.9c0.6-0.9-0.2-2.4-1.3-2.3c-9.6,1.2-20.1,3.1-24.9,12.5
					C-132.4,193.8-129.8,195.3-128.9,193.6L-128.9,193.6z"/>
			</g>
		</g>
		<g id="XMLID_324_">
			<path id="XMLID_395_" class="st0" d="M-142.6,262.6c5.3-2,8-7.9,9-13.4c0.6-3.1,0.8-6.4-0.4-9.4c-1.1-3-3.8-5.5-7-5.6
				c5.6-3.3,11.3-6.3,17.1-9.3c1-0.5,2.1-1,3.2-1c1.2,0,2.3,0.7,3.4,1.2c4.6,2.3,10,2.6,15,3.7c5,1.2,10.3,3.8,12.2,8.6
				c-4.7,1.9-7.6,7.1-8.2,12.1c-0.6,5.1,0.8,10.2,2.6,15c-15.8-0.6-31.5-1.3-47.3-1.9"/>
			<g id="XMLID_390_">
				<path id="XMLID_352_" class="st7" d="M-141.9,263.9c10.3-4.7,16.4-29,1.3-31.2c0.1,0.9,0.2,1.8,0.4,2.7
					c4.5-2.6,9.1-5.1,13.7-7.5c1.8-0.9,4.6-2.8,6.7-2.4c1.8,0.3,3.7,1.7,5.4,2.3c8,2.6,18.9,1.5,23.1,10.4c0.2-0.7,0.4-1.4,0.5-2.1
					c-11.3,5.5-9.7,19-6.3,28.9c0.5-0.6,1-1.3,1.4-1.9c-15.8-0.6-31.5-1.3-47.3-1.9c-1.9-0.1-1.9,2.9,0,3
					c15.8,0.6,31.5,1.3,47.3,1.9c0.9,0,1.8-1,1.4-1.9c-3-8.6-5.2-20.6,4.9-25.5c0.8-0.4,0.9-1.4,0.5-2.1
					c-4.5-9.5-15.4-8.9-24.1-11.5c-4.2-1.3-6.7-3.6-11-1.9c-6.2,2.4-12.2,6.3-17.9,9.6c-1,0.6-1,2.5,0.4,2.7
					c12.5,1.9,5.9,22.1-2,25.7C-145.1,262.1-143.6,264.7-141.9,263.9L-141.9,263.9z"/>
			</g>
		</g>
		<g id="XMLID_323_">
			<path id="XMLID_388_" class="st8" d="M-74.8,266.9c-5.5-3-12.2-2.3-18.5-2.7c-0.6,0-1.3-0.1-1.8-0.5c-0.5-0.4-0.7-1.2-0.8-1.9
				c-0.9-4.8-1.6-9.7-2-14.6c3.5-0.2,7,0.7,10.5,0.7s7.4-1.2,9-4.4c1.7-3.4-0.4-7.8-3.5-9.9c-3.1-2.2-7.1-2.7-10.9-3.2
				c-0.4-2,0.7-4.1,2.3-5.4s3.6-2,5.5-2.6c5.7-1.9,12.7-3.6,17.1,0.5c-0.8-5.7,3.7-10.6,8-14.4c0.8-0.7,1.7-1.5,2.8-1.5
				c1.4-0.1,2.6,1.1,3.4,2.3c5.8,8,5.5,19.8-0.7,27.5c-3.1,3.8-7.3,6.5-10.5,10.2c-4.8,5.5-7.2,12.6-9.3,19.6
				c-6.1-2.1-12.8-2.8-19.2-2"/>
			<g id="XMLID_383_">
				<path id="XMLID_342_" class="st7" d="M-74,265.6c-4.8-2.2-9.7-2.6-14.9-2.8c-3.8-0.1-5.3,0.1-6-4.1c-0.7-3.8-1.1-7.6-1.4-11.4
					c-0.5,0.5-1,1-1.5,1.5c6.7-0.1,20.6,3.4,21.5-7.2c0.8-9.1-9.5-11.8-16.4-12.6c0.5,0.5,1,1,1.5,1.5c-0.2-8.3,17.7-10.2,22.4-6.5
					c0.9,0.7,2.6,0.4,2.6-1.1c-0.3-4.6,2.1-8,5.2-11.2c2-2,3.6-4.2,7-0.6c1,1.1,1.7,3.3,2.2,4.7c2,6.3,1,13.5-2.8,18.9
					c-3.7,5.3-9.7,8.6-13.4,13.9c-3.6,5.2-5.5,11.3-7.4,17.3c0.6-0.3,1.2-0.7,1.8-1c-6.4-2.1-12.9-2.8-19.6-2.1
					c-1.9,0.2-1.9,3.2,0,3c6.5-0.7,12.7,0,18.8,2c0.8,0.3,1.6-0.3,1.8-1c1.6-5.2,3.3-10.6,6.2-15.2c2.9-4.7,7.2-7.7,11.1-11.5
					c5.4-5.5,8.2-12.8,7.3-20.6c-0.5-4.2-3.2-14.5-9.1-14.1c-3.3,0.2-6.4,4.4-8.2,6.7c-2.6,3.2-4.1,6.6-3.8,10.8
					c0.9-0.4,1.7-0.7,2.6-1.1c-4.7-3.7-10.3-3.2-15.9-1.7c-5.4,1.5-11.8,3.7-11.6,10.3c0,0.9,0.7,1.4,1.5,1.5
					c3.4,0.4,6.9,0.9,9.8,2.9c3.3,2.3,5.5,7.3,1.3,10.3c-4.4,3.1-11.3,0.6-16.1,0.7c-0.8,0-1.6,0.7-1.5,1.5
					c0.3,3.8,0.8,7.6,1.4,11.3c0.3,1.9,0.4,4.9,2,6.3c1.6,1.3,4.3,0.9,6.1,1c4.9,0.2,9.7,0.2,14.2,2.4
					C-73.8,269-72.3,266.4-74,265.6L-74,265.6z"/>
			</g>
		</g>
		<g id="XMLID_322_">
			<path id="XMLID_381_" class="st0" d="M-50.6,233.3c5.2,5.1,13.5,5.3,19.6,9.3c4.8,3,8,8.4,8.5,14c-8.9-4.8-19.9-5.5-29.4-1.9
				c7.9,3,16.5,6.7,20,14.5c3.6,8.2-0.1,17.7-3.8,25.9c-0.8-8.3-5-16.3-11.4-21.8c0.4,6.1,2,12.1,1.8,18.1
				c-0.2,6.1-2.9,12.6-8.4,15.1c-0.4-3.3-2.8-6-5.4-8c-2.6-2.1-5.5-3.8-7.7-6.3c-4.1-4.7-4.8-11.5-5-17.8c-0.3-9.1,0.2-19,5.9-26.1
				c1.9-2.3,4.2-4.2,6.9-5.5c1.9-0.9,4.1-1.8,5.1-3.6c1-1.9,0.7-4.9,2.8-5.5"/>
			<g id="XMLID_376_">
				<path id="XMLID_341_" class="st7" d="M-51.6,234.4c4,3.6,8.7,4.9,13.6,6.6c7.4,2.6,13,7.3,14,15.5c0.8-0.4,1.5-0.9,2.3-1.3
					c-9.6-4.9-20.4-5.6-30.5-2c-1.4,0.5-1.4,2.4,0,2.9c6.6,2.5,14.3,5.5,18.1,11.9c4.9,8.3,0.7,18.3-2.9,26.2
					c0.9,0.3,1.9,0.5,2.8,0.8c-1.1-8.9-5.1-16.8-11.9-22.8c-0.9-0.8-2.7-0.3-2.6,1.1c0.9,10.3,5.9,25.9-5.9,31.9
					c0.7,0.3,1.5,0.6,2.2,0.9c-1.5-7-7.7-9.1-12.3-13.8c-6.1-6.2-6-15.9-5.8-24c0.2-8.4,2.2-17.5,9.6-22.7c2.3-1.6,5.4-2.3,7.2-4.4
					c1.5-1.7,1.3-5.2,3.2-6.3c1.7-1,0.2-3.6-1.5-2.6c-2.3,1.4-2,3.2-3.1,5.4c-1.8,3.5-7.2,4.7-10,7.4c-5.4,5-7.5,12.2-8.2,19.3
					c-0.7,7.5-0.8,16.5,2.1,23.6c1.3,3.3,3.4,5.8,6.2,8.1c3.9,3.1,8.5,5.6,9.6,10.8c0.2,1,1.4,1.3,2.2,0.9c13-6.7,8.4-23,7.4-34.5
					c-0.9,0.4-1.7,0.7-2.6,1.1c6.1,5.5,9.9,12.5,11,20.7c0.2,1.3,2.1,2.3,2.8,0.8c3.9-8.6,8.1-18.9,3.5-28
					c-3.9-7.9-12.8-11.5-20.5-14.5c0,1,0,1.9,0,2.9c9.4-3.4,19.3-2.8,28.2,1.7c0.9,0.5,2.4-0.1,2.3-1.3c-0.7-5.8-3.3-11-8.1-14.5
					c-6.2-4.6-14.7-4.6-20.5-9.8C-50.9,231-53.1,233.1-51.6,234.4L-51.6,234.4z"/>
			</g>
		</g>
		<g id="XMLID_311_">
			<path id="XMLID_374_" class="st8" d="M-45.2,297.6c2.2,3.4,4.8,6.5,6.7,10.1c5.6,10.7,3.9,23.5,2,35.4c0-4.3-2-8.5-4.8-11.8
				s-6.2-6-9.7-8.6c1.9,5.1,3.6,10.3,3.4,15.7s-2.6,11-7.3,13.6c-1.9-9.4-3.8-18.8-5.7-28.2c-1.5,6.8-3.9,13.5-7.2,19.6
				c-1.9-2.5-2.2-5.9-2.4-9.1c-0.6-13.5,1-27.1,4.5-40.1c5,3.7,9.7,8,13.8,12.7c1.8-3.6,4.1-6.9,6.9-9.7"/>
			<g id="XMLID_369_">
				<path id="XMLID_340_" class="st7" d="M-46.5,298.4c4.7,7,9.2,13,10.1,21.7c0.8,7.6-0.3,15.2-1.5,22.7c1,0.1,2,0.3,2.9,0.4
					c-0.6-9.9-7.8-16.1-15.2-21.7c-1-0.8-2.6,0.5-2.2,1.7c3.2,8.9,6.6,21.5-3.2,27.6c0.7,0.3,1.5,0.6,2.2,0.9
					c-1.9-9.4-3.8-18.8-5.7-28.2c-0.3-1.4-2.6-1.4-2.9,0c-1.5,6.7-3.9,13.1-7.1,19.2c0.9,0,1.7,0,2.6,0c-4-6.4-2.4-16.8-1.9-24
					c0.6-8.2,2.1-16.2,4.2-24.1c-0.7,0.3-1.5,0.6-2.2,0.9c4.9,3.7,9.4,7.9,13.5,12.5c0.6,0.7,1.9,0.5,2.4-0.3c1.8-3.5,4-6.5,6.7-9.4
					c1.3-1.4-0.8-3.5-2.1-2.1c-2.9,3-5.2,6.2-7.2,10c0.8-0.1,1.6-0.2,2.4-0.3c-4.3-4.8-9-9-14.1-12.9c-0.8-0.6-2,0-2.2,0.9
					c-2.3,8.8-3.9,17.7-4.4,26.7c-0.5,7.4-1.7,17.1,2.4,23.7c0.6,0.9,2.1,1,2.6,0c3.3-6.3,5.8-13,7.4-20c-1,0-1.9,0-2.9,0
					c1.9,9.4,3.8,18.8,5.7,28.2c0.2,0.9,1.4,1.4,2.2,0.9c11.1-6.9,8.3-20.6,4.6-31c-0.7,0.6-1.5,1.1-2.2,1.7
					c6.4,4.9,13.2,10.4,13.7,19.1c0.1,1.6,2.7,2.2,2.9,0.4c1.3-8.3,2.6-16.7,1.4-25.1c-1.2-8.6-5.6-14.6-10.3-21.6
					C-45,295.2-47.6,296.7-46.5,298.4L-46.5,298.4z"/>
			</g>
		</g>
		<g id="XMLID_305_">
			<path id="XMLID_367_" class="st8" d="M-144.1,262.7c0.9-3.4,3.5-6,5.6-8.7c2.1-2.7,4.1-6.1,3.5-9.5c-4.9-3.2-12.1,3.4-16.8,0.1
				c-0.9-0.7-1.6-1.6-2.1-2.7c-1.5-3.7,0-8.2,3.1-10.7s7.5-3,11.4-2c-1.7-4.5-5.6-8.2-10.3-9.6s-9.9-0.7-13.9,2.1
				c-2.5-2.9-4.5-6.3-5.6-9.9c-0.9-2.9-2.3-6.7-5.3-6.6c-1.2,0-2.4,0.8-3.3,1.5c-4,3.2-7.2,8.2-5.9,13.2c0.6,2.4,2.2,4.4,3.8,6.3
				c8.1,10,15.9,21,17.8,33.8c0.1,0.5,0.2,1,0.5,1.4c0.4,0.4,1,0.4,1.5,0.4c6-0.1,12-0.1,17.9-0.2"/>
			<g id="XMLID_362_">
				<path id="XMLID_339_" class="st7" d="M-142.7,263.1c1.2-3.5,15.5-18.2,6.6-20.7c-3.7-1-7.1,1.1-10.7,1.5
					c-5.4,0.5-7.6-4.4-5.2-8.9c2.4-4.5,7.7-5.3,12.2-4.4c1.4,0.3,2.2-1,1.7-2.2c-4.6-10.4-16.6-14-26.3-8.1c0.6,0.1,1.2,0.2,1.8,0.2
					c-2.5-3-4.1-6.1-5.4-9.8c-0.6-1.6-1.1-3.3-2.2-4.7c-1.6-2.1-3.8-3-6.4-2.1c-8.1,3.1-11.2,13.6-6.6,20.4
					c6.7,9.9,14.8,18.2,18.2,30.1c0.8,2.8,0.4,7.2,3.5,8.4c1.9,0.8,5.1,0.1,7.2,0c4,0,8-0.1,12-0.1c1.9,0,1.9-3,0-3
					c-4.7,0-9.3,0.1-14,0.1c-3.2,0-3.9,0.8-4.9-2.3c-0.5-1.6-0.7-3.3-1.2-4.8c-2.3-7.4-6.3-14.1-10.8-20.3c-2.1-3-4.5-5.8-6.7-8.7
					c-3.8-5.1-3.3-10.2,1.1-14.7c5.1-5.1,6.9,0.5,8.5,4.6c1.3,3.3,3.2,6.1,5.4,8.8c0.4,0.5,1.3,0.6,1.8,0.2c8.4-5.1,18.2-1.9,22.2,7
					c0.6-0.7,1.1-1.5,1.7-2.2c-5.4-1.2-11.5-0.3-14.9,4.6c-2.5,3.6-3.1,9.2,0.2,12.6c3.5,3.7,8.3,1.6,12.5,0.7
					c3.5-0.8,6-0.8,3.9,3.9c-0.8,1.7-2,3.2-3.2,4.7c-2.1,2.6-4,5-5.1,8.2C-146.2,264.1-143.3,264.9-142.7,263.1L-142.7,263.1z"/>
			</g>
		</g>
		<g id="XMLID_310_">
			<path id="XMLID_360_" class="st0" d="M-182.4,227.4c-12.9,4-24.4,12.3-32.3,23.3c8.2,3.3,17.8-0.8,26.3,1.7
				c-7.3,2.1-13.6,7.2-17.2,13.8c-3.6,6.7-4.3,14.8-2,21.9c4.3-8.1,10.9-14.9,18.8-19.4c-2.9,4.8-5.3,10-5.8,15.6
				c-0.5,5.6,0.9,11.5,4.7,15.6c0.4,0.4,0.8,0.8,1.3,0.9c0.5,0.1,1-0.1,1.5-0.4c9.2-4.6,15.6-14.4,16.2-24.7
				c0.2-2.9-0.1-5.9,0.7-8.8c1-3.3,3.3-6.1,4-9.5c1.2-5.4-2.1-10.7-5.2-15.3c-2.9-4.3-5.8-8.6-8.8-12.9c-0.8-1.2-1.9-2.5-3.3-2.3"/>
			<g id="XMLID_355_">
				<path id="XMLID_336_" class="st7" d="M-182.8,225.9c-13.4,4.4-24.8,12.6-33.2,24c-0.6,0.8,0.1,1.9,0.9,2.2
					c8.6,2.9,17.6-0.4,26.3,1.7c0-1,0-1.9,0-2.9c-16,5.1-24.8,21.4-20.2,37.7c0.3,1.2,2.1,1.5,2.7,0.4c4.4-7.9,10.5-14.3,18.3-18.9
					c-0.7-0.7-1.4-1.4-2.1-2.1c-5.6,9.3-9.3,22-2,31.6c6.1,8.1,16.8-6.3,19.6-11.8c2.5-5.1,3-10,3.3-15.6c0.4-6.4,5.3-11.6,4.9-18
					c-0.4-5.7-4.2-10.7-7.3-15.2c-2.2-3.2-4.3-6.5-6.6-9.6c-1.4-1.9-2.4-3.3-4.7-3.8c-1.9-0.4-2.7,2.5-0.8,2.9
					c2.7,0.6,4.2,4.3,5.7,6.4c1.5,2.1,2.9,4.3,4.4,6.4c2.4,3.5,5.4,7.4,6.1,11.7c0.9,5.4-2.7,8.7-4,13.5c-1.1,4-0.4,8.3-1.2,12.4
					c-0.7,4-2.4,7.8-4.7,11.1c-1.3,1.9-2.9,3.7-4.6,5.2c-2.3,2-3.6,3.6-6.4,2.4c-4.5-2-5.1-8.8-4.6-13.3c0.5-5.4,2.8-10.3,5.6-14.9
					c0.8-1.3-0.8-2.8-2.1-2.1c-8.2,4.9-14.8,11.6-19.4,20c0.9,0.1,1.8,0.2,2.7,0.4c-4.2-14.6,3.6-29.4,18.1-33.9
					c1.4-0.4,1.5-2.5,0-2.9c-8.7-2.1-17.8,1.2-26.3-1.7c0.3,0.7,0.6,1.5,0.9,2.2c7.9-10.7,18.8-18.5,31.4-22.6
					C-180.1,228.2-180.9,225.3-182.8,225.9L-182.8,225.9z"/>
			</g>
		</g>
		<g id="XMLID_304_">
			<path id="XMLID_353_" class="st8" d="M-195.5,295.6c-8.6,11.4-12.9,26-11.8,40.2c6.1-4.1,8.3-12.5,14.3-16.8
				c-3.4,8.8-1.5,19.5,4.7,26.6c4.1-8.1,5.7-17.5,4.3-26.5c0.9,6.5,4.2,12.7,9.2,16.9c0.3-14.2-0.8-28.5-3.4-42.5
				c-1.7,2.3-3.4,4.7-5.9,6.1s-6,1.3-7.9-0.9c-0.8-1-1.3-2.3-2.3-3c-1.1-0.7-3-0.1-2.7,1.2"/>
			<g id="XMLID_348_">
				<path id="XMLID_331_" class="st7" d="M-196.8,294.8c-8.7,11.9-12.9,26.3-12,41c0.1,1,1.3,2,2.3,1.3c6.2-4.6,8.6-12.3,14.6-17
					c-0.8-0.5-1.7-1-2.5-1.5c-3.4,9.7-1.4,20.1,5.1,28.1c0.6,0.7,2,0.5,2.4-0.3c4.2-8.6,5.8-17.8,4.5-27.3c-1,0.1-2,0.3-2.9,0.4
					c1.1,7,4.4,12.9,9.6,17.6c1,0.9,2.5,0.3,2.6-1.1c0.3-14.4-0.9-28.7-3.4-42.9c-0.3-1.4-2.1-1.3-2.7-0.4c-1.8,2.5-4.6,6.5-8.2,6.3
					c-4.2-0.3-3.3-3.3-6-4.7c-2-1-4.3-0.1-4.7,2.1c-0.3,1.9,2.6,2.7,2.9,0.8c-0.1,0.5,3.9,3.8,4.7,4.1c1.4,0.6,3.1,0.7,4.6,0.5
					c4.3-0.7,7-4.3,9.4-7.6c-0.9-0.1-1.8-0.2-2.7-0.4c2.5,13.9,3.6,28,3.3,42.1c0.9-0.4,1.7-0.7,2.6-1.1c-4.9-4.4-7.8-9.8-8.9-16.3
					c-0.3-1.7-3.2-1.3-2.9,0.4c1.2,8.9-0.2,17.6-4.1,25.7c0.8-0.1,1.6-0.2,2.4-0.3c-5.8-7.2-7.3-16.5-4.3-25.1
					c0.5-1.6-1.5-2.3-2.5-1.5c-5.8,4.6-8.1,12.2-14,16.6c0.8,0.4,1.5,0.9,2.3,1.3c-0.9-14.2,3.1-28,11.6-39.4
					C-193.1,294.8-195.7,293.3-196.8,294.8L-196.8,294.8z"/>
			</g>
		</g>
		<g id="XMLID_292_">
			<path id="XMLID_337_" class="st8" d="M-165.3,263.6c17.5-0.6,35,2,52.5,2.3c14,0.2,28.3-1,42,2.5c0.3,11.5,0.2,23.1-0.2,34.7
				c-0.4,9.9-1,19.8-1.7,29.7c-0.3,4.9-0.7,9.8-2.1,14.4c-4.2,13.1-17.2,21.7-30.4,25.4c-6.8,1.9-14.1,2.9-19.9,6.9
				c-1.8-3.4-5.4-5.4-8.8-7.3c-9.1-5-18-10.5-26.5-16.5c-2.6-1.8-5.1-3.7-6.8-6.3c-2.5-3.9-2.7-8.9-2.8-13.6
				c-0.1-6.8-0.2-13.6,0.4-20.4c0.4-4.7,1.2-9.4,1.8-14.2c0.7-6,1-12.1,1.3-18.2c0.3-6.6,0.7-13.2,1-19.8"/>
			<g id="XMLID_332_">
				<path id="XMLID_299_" class="st7" d="M-165.3,265.1c15.9-0.4,31.7,1.6,47.6,2.2c15.5,0.6,31.2-1.1,46.4,2.6
					c-0.4-0.5-0.7-1-1.1-1.4c0.3,12.5,0.2,25.1-0.3,37.6c-0.3,6.3-0.6,12.6-1,18.8c-0.4,6.7-0.4,13.7-2.1,20.2
					c-2.7,10.4-11.1,18-20.5,22.5c-9.5,4.6-20.7,4.8-29.7,10.6c0.7,0.2,1.4,0.4,2.1,0.5c-2.2-3.4-5.2-5.5-8.7-7.4
					c-5-2.8-10-5.7-14.9-8.7c-5.2-3.3-11.1-6.6-15.7-10.8c-5-4.6-5.3-10.6-5.4-16.9c-0.2-11.7,1-22.9,2.3-34.5
					c1.4-12.3,1.6-24.7,2.2-37.1c0.1-1.9-2.9-1.9-3,0c-0.6,12.6-0.8,25.4-2.3,38c-1.4,12.4-2.6,24.4-2.1,36.9
					c0.2,4.4,0.7,8.9,3.4,12.6c2.7,3.8,6.9,6.3,10.7,8.8c5.1,3.4,10.2,6.7,15.5,9.8c5.2,3,12.2,5.5,15.5,10.8c0.4,0.7,1.4,1,2.1,0.5
					c9.6-6.1,21.7-6.2,31.7-11.6c8.2-4.4,15.5-11.2,18.9-20.2c2.1-5.5,2.4-11.4,2.8-17.2c0.5-6.9,0.9-13.9,1.3-20.8
					c0.7-14.2,0.9-28.4,0.5-42.6c0-0.6-0.5-1.3-1.1-1.4c-14.9-3.5-30.1-2.1-45.3-2.6c-16.5-0.5-33-2.7-49.5-2.3
					C-167.3,262.1-167.3,265.1-165.3,265.1L-165.3,265.1z"/>
			</g>
		</g>
		<g id="XMLID_338_">
			<path id="XMLID_330_" class="st0" d="M-134.3,280.2c5.6-3,11.2-6,16.8-9c1.5-0.8,4-1.1,4.1,0.6c0.1,0.7-0.4,1.3-0.1,2
				c0.2,0.6,0.9,0.8,1.5,1.1c1.7,0.7,2.9,2.3,3.3,4c-1,0.6-1.9,1.5-2.5,2.6c2,0.6,4.1,1.1,6.1,1.7c-1.1,0.7-0.3,2.4,0.9,3
				c1.1,0.5,2.6,0.6,3.4,1.5c1.1,1.2,0.7,3,0.2,4.5c-1.3,4.2-2.5,8.4-3.8,12.6c-0.5,1.6-0.9,3.2-0.5,4.8c0.3,1.1,1,2,1.8,2.9
				c2.7,3.3,5.3,6.6,8,9.9c0.4,0.5,0.8,1,1.4,1.2c2.1,0.8,3.5-2.2,3.5-4.4c0.1-4.4-0.6-8.8-0.3-13.2c0.2-4.4,1.6-9,5.1-11.7
				c0.6,3,0.8,6.1,0.7,9.2c1.6-1.5,3.8-3,5.8-2.1c1.9,0.9,2.1,3.6,1.3,5.5c-0.8,1.9-2.4,3.4-3.3,5.2c-1.8,3.4-1.4,7.6-2.2,11.4
				c-0.5,2.8-1.7,5.4-2.7,8c-3,7.7-5.1,15.7-7.5,23.6c-0.8,2.6-1.6,5.2-3.3,7.2s-4.6,3.3-7.1,2.4c-1.4-0.5-2.6-1.8-2.5-3.3
				c0.1-1.8,1.9-3,3.1-4.3c2.1-2.4,2.5-6,1.8-9.1s-2.5-5.9-4.2-8.7c-0.3-0.4-0.6-0.9-1.1-1.1c-0.9-0.4-1.8,0.4-2.5,1.1
				c-2.7,2.6-5.9,4.8-9.3,6.4c-2.7,1.3-5.8,2.2-8.6,1.3c-2.8-0.9-4.8-4.5-3.3-7c1.9-3,6.6-2.3,9.3-4.6c2.3-2.1,2.1-5.6,2.1-8.7
				s0.8-6.8,3.7-7.7c-2.1-2.5-4.4-5.1-7.5-6.2c-5.5-1.8-11.2,1.8-17,2.2c-4.7,0.3-9.6-1.8-12.6-5.4c-0.2-0.3-0.4-0.6-0.4-0.9
				c0-0.8,1-1.2,1.9-1.2c7.5-0.3,15.3,1.5,22.2-1.3c0.5-0.2,1.1-0.6,1-1.1c-0.1-0.4-0.5-0.7-0.9-0.8c-7.8-3.6-17.8-0.4-24.8-5.4
				c-0.4-0.3-0.8-0.6-1-1.1c-0.5-1.3,0.8-2.6,2.1-3.1c7.2-3.1,15.4,0.4,22.6,3.4c1.3,0.5,3.3,0.7,3.5-0.7c0.1-0.9-0.8-1.6-1-2.5
				c-0.4-1.8,1.8-2.9,3.5-3.5c1.7-0.7,3.5-2.7,2.3-4c-0.5-0.5-1.2-0.6-1.9-0.6c-1.9-0.1-3.9,0-5.8,0.3c-1.4,0.2-2.9,0.6-4.3,0.4
				c-1.4-0.2-2.9-1.1-3.2-2.5c-0.3-1.3,0.4-2.6,1.3-3.6c1.7-2.1,4-3.6,6.5-4.4"/>
			<g id="XMLID_325_">
				<path id="XMLID_298_" class="st7" d="M-133.5,281.5c2.5-1.4,5-2.7,7.6-4.1c2.5-1.3,6-4,8.7-4.6c2.9-0.7,1.3,0,2.5,1.7
					c1.5,2,3.6,1.8,4.7,4.8c0.2-0.6,0.5-1.1,0.7-1.7c-1.3,0.9-2.2,1.8-3.1,3.1c-0.6,0.8,0,2,0.9,2.2c2,0.6,4.1,1.1,6.1,1.7
					c-0.3-0.7-0.6-1.5-0.9-2.2c-1,1.4-0.8,3,0.5,4.3c1,1,2.5,1,3.4,2.2c1.6,1.9-0.1,5-0.8,7.4c-1.2,4-3.8,9.1-2.9,13.3
					c0.7,3.3,4.2,6.4,6.2,8.9c2.5,3.1,7.6,10.8,10.8,3.8c1.5-3.2,0.6-7.2,0.5-10.6c-0.3-5.9-0.1-12,4.6-16.3
					c-0.8-0.2-1.7-0.4-2.5-0.7c0.5,3,0.7,5.8,0.6,8.8c0,1.4,1.6,1.9,2.6,1.1c2.2-2.6,3.5-1.6,4,2.9c-0.3,0.4-0.6,0.8-0.9,1.3
					c-0.6,1.4-1.8,2.6-2.4,4.1c-1.1,2.8-1,5.9-1.5,8.8c-1.1,7.2-4.8,14.2-6.9,21.2c-1.2,3.9-2.2,7.9-3.5,11.9
					c-0.6,1.9-1.1,3.9-2.2,5.6c-0.8,0.8-1.6,1.7-2.5,2.5c-3.9-1.5-4.8-3.1-2.6-4.6c0.7-2.2,2.1-3.2,2.4-5.6c0.3-2.2-0.1-4.4-0.7-6.5
					c-0.9-2.7-3-8.8-6.2-9.3c-2-0.4-3.5,1.5-4.8,2.6c-3,2.5-6.5,4.9-10.2,6c-2.2,0.9-4.4,0.6-6.5-0.8c0.1-1.6,0.1-3.2,0.2-4.8
					c0.5-0.8,3.1-1,4.1-1.4c1.8-0.6,3.5-1.4,4.6-2.9c3.2-4.3-0.7-12.7,4.6-15.2c0.9-0.4,0.9-1.7,0.3-2.4c-4.7-5.5-9.3-8.1-16.6-6.5
					c-4.3,0.9-8.4,2.7-12.8,1.8c-1-0.2-6.8-2.1-6.7-3.6c0.1-1.2,5.6-0.5,6.4-0.5c3.4,0.1,16.1,1.6,17.6-3.3c1.2-4.3-7.7-4.7-10.2-5
					c-4.1-0.4-8.4-0.2-12.4-1.5c-2.8-0.3-3.2-1.6-1.3-3.9c1.4-0.4,2.9-0.6,4.4-0.6c2.7,0,5.3,0.7,7.8,1.5c2.3,0.7,12.3,6.7,13.4,1.3
					c0.2-0.9-0.6-1.7-0.5-2.4c0.2-2.6,2.2-2.3,3.6-3.5c1.2-0.9,2.4-2.4,2.1-4c-0.4-1.9-2.1-2.3-3.8-2.6c-2-0.4-4.2,0-6.2,0.3
					c-3.1,1.3-4.3-0.2-3.7-4.4c1.4-1.3,3-2.3,4.8-2.9c1.8-0.7,1-3.6-0.8-2.9c-3.6,1.4-9.8,4.9-8.9,9.7c0.3,1.5,1.5,2.7,2.9,3.3
					c3,1.3,6.4-1.2,9-0.2c3.9,1.5-0.4,2.3-1.7,4.1c-0.8,1.2-0.3,3.8-1.4,4.3c-0.7,0.3-4-1.6-4.8-1.9c-1.9-0.7-3.8-1.4-5.7-1.9
					c-3.1-0.8-6.4-1.2-9.6-0.6c-3,0.5-8.3,2.7-6.1,6.6c2.6,4.8,11.9,4.6,16.5,4.9c1.9,0.1,3.8,0.3,5.7,0.6c1.4,0.3,3.8,0.3,1.7,1.2
					c-3.7,1.6-9.4,0.7-13.3,0.6c-2.4-0.1-9.8-1.4-9.4,3c0.4,4.7,9.5,7.3,13.1,7.4c3.9,0.1,7.5-1.4,11.2-2.2
					c6.2-1.3,9.8,1.2,13.7,5.7c0.1-0.8,0.2-1.6,0.3-2.4c-5.4,2.6-3.6,8.2-4.6,12.9c-1.1,5-4.7,4.5-8.3,6.4c-1.7,0.9-3,2.2-3.3,4.2
					c-0.8,4.7,3.9,7.9,8.1,7.8c2.8-0.1,5.5-1.3,7.9-2.6c1.7-0.9,3.2-1.9,4.7-3.1c1-0.8,2.8-3,4-3c3,0,5.1,9.4,4.8,11.7
					c-0.4,4-4.7,5.4-5.1,9.1c-0.5,4.2,4.2,6.1,7.6,5.2c6.3-1.6,7.8-9,9.4-14.4c2.5-8.4,5.5-16.4,8.2-24.7c1.6-4.8,0.8-10.6,3.3-15
					c1.5-2.6,3.8-4.7,3.6-8c-0.5-6.3-6.7-4.6-10-1.8c0.9,0.4,1.7,0.7,2.6,1.1c0-3.2-0.2-6.4-0.7-9.6c-0.2-1.2-1.8-1.4-2.5-0.7
					c-3.7,3.4-5.2,7.9-5.5,12.8c-0.2,3.6,1,7.8,0.3,11.3c0.5,1.9-0.3,3.2-2.4,3.9c-0.4-0.5-0.8-0.9-1.1-1.4c-1.5-1-2.9-3.5-4-4.9
					c-1.7-2.1-3.5-3.7-3.9-6.4c-0.3-2.3,0.3-3.9,1-6.1c1-3.5,2.3-7,3.1-10.5c0.3-1.6,0.6-3.2-0.3-4.6c-0.5-0.8-4.6-3.4-4.6-3.5
					c0.6-0.8,0-2-0.9-2.2c-2-0.6-4.1-1.1-6.1-1.7c0.3,0.7,0.6,1.5,0.9,2.2c0.7-0.7,1.3-1.4,2-2c0.5-0.4,0.9-1,0.7-1.7
					c-0.4-1.2-0.8-2.1-1.6-3.1c-0.9-1-2.5-1.5-3.2-2.6c-0.9-1.5,0.4-2.7-2.1-3.6c-2.5-0.9-5.6,1.4-7.6,2.5c-4.5,2.4-9,4.8-13.4,7.2
					C-136.7,279.8-135.2,282.4-133.5,281.5L-133.5,281.5z"/>
			</g>
		</g>
		<g id="XMLID_120_">
			<g id="XMLID_318_">
				<path id="XMLID_286_" class="st6" d="M-199.3,363.5c-5.5-2.7-10.4-6.2-14.6-10.7c-1.1-1.2-3.3,0.4-2.4,1.8
					c3.5,5.1,6.3,10.6,8.3,16.5c0.6-0.6,1.2-1.2,1.8-1.8c-6.5-2.3-13.1-4.3-19.8-5.9c-1.4-0.3-2.6,1.5-1.5,2.5
					c4.5,4,8,8.1,11.6,12.8c3,3.8,7.6,6,10.8,9.7c2,2.2,4.6,6.5,8.1,6.4c1.7,0,3.2-1.3,4.6-2.1c2.6-1.6,5.2-3.3,7.8-4.9
					c1.6-1,0.1-3.6-1.5-2.6c-4.1,2.6-9.6,8.2-14.1,4.2c-2.6-2.3-4.4-5.3-7.2-7.5c-1.8-1.4-3.8-2.4-5.3-4.1c-1.4-1.5-2.5-3.5-3.7-5.2
					c-2.6-3.4-5.8-6.2-9-8.9c-0.5,0.8-1,1.7-1.5,2.5c6.7,1.6,13.3,3.6,19.8,5.9c1,0.4,2.2-0.8,1.8-1.8c-2.1-6.1-5-11.8-8.6-17.2
					c-0.8,0.6-1.6,1.2-2.4,1.8c4.4,4.7,9.4,8.3,15.2,11.1C-199,366.9-197.5,364.3-199.3,363.5L-199.3,363.5z"/>
			</g>
		</g>
		<g id="XMLID_118_">
			<g id="XMLID_312_">
				<path id="XMLID_280_" class="st6" d="M-195,391.1c-2.2-7.7-4.7-15.2-7.7-22.7c-0.7-1.8-3.6-1-2.9,0.8c2.9,7.4,5.5,15,7.7,22.7
					C-197.4,393.7-194.5,393-195,391.1L-195,391.1z"/>
			</g>
		</g>
		<g id="XMLID_113_">
			<g id="XMLID_306_">
				<path id="XMLID_274_" class="st6" d="M-201.3,370.8c7-4.6,13.9-9.1,20.9-13.7c2.1-1.3,2.5-2.5,4.8-1c1.1,0.7,2,2.8,2.7,3.9
					c1.5,2.3,3,4.6,4.8,6.7c8.4,10.2,23.3,14.3,35.9,16.1c28.1,4.1,55.9-4.7,80.3-18.2c-0.7-0.3-1.5-0.6-2.2-0.9
					c1.4,7.1,4.7,13.3,9.9,18.4c0.2-0.8,0.4-1.7,0.7-2.5c-6.3,2.2-12,4.7-17.6,8.4c-6.2,4-12.4,7.5-19.4,9.9
					c-12.9,4.4-26.6,5.7-40.2,5.9c-6.6,0.1-13.4,0.2-20-0.5c-8.4-0.9-15.4-4.7-22.5-9c-12.8-7.7-25.6-15.5-37-25.2
					c-1.5-1.2-3.6,0.9-2.1,2.1c11.6,9.9,24.6,17.8,37.6,25.6c6.3,3.8,12.7,7.5,20.1,8.8c6.7,1.2,13.7,1.1,20.6,1.1
					c13.8,0,27.9-1,41.2-5c14.5-4.4,25.9-14.3,40.1-19.3c1-0.4,1.5-1.7,0.7-2.5c-4.8-4.8-7.8-10.4-9.1-17.1c-0.2-1-1.4-1.3-2.2-0.9
					c-26.2,14.4-56.8,23.6-86.6,16.2c-7-1.7-14.4-4.2-20.4-8.4c-6.2-4.3-8.4-11.4-13.5-16.5c-2.9-2.9-4.8-0.9-7.9,1.1
					c-7,4.6-13.9,9.1-20.9,13.7C-204.5,369.2-203,371.8-201.3,370.8L-201.3,370.8z"/>
			</g>
		</g>
		<g id="XMLID_111_">
			<g id="XMLID_300_">
				<path id="XMLID_268_" class="st6" d="M-49,375.2c8.6-3.1,16.4-7.2,25.5-9.1c-0.5-0.8-1-1.7-1.5-2.5c-4.9,3.9-9,8.4-12.5,13.6
					c-0.7,1,0.2,2.2,1.3,2.3c7.2,0.2,13.7-3.8,20.9-3.1c-0.4-0.9-0.7-1.7-1.1-2.6c-6.6,5.4-13.5,10.7-19.7,16.5
					c-3.5,3.3-9.2,11.7-14.5,6.8c-2.9-2.7-3.2-7.4-5.4-10.7c-1.1-1.6-3.6-0.1-2.6,1.5c2.5,3.8,2.8,9.1,6.5,12.1
					c3.3,2.7,7.3,1.9,10.6-0.4c4.4-3.1,7.9-7.7,12-11.2c5-4.2,10.1-8.4,15.2-12.5c1.1-0.9,0.1-2.4-1.1-2.6
					c-7.3-0.8-13.7,3.3-20.9,3.1c0.4,0.8,0.9,1.5,1.3,2.3c3.3-5,7.3-9.2,12-13c1.3-1-0.1-2.8-1.5-2.5c-9.1,2-16.8,6-25.5,9.1
					C-51.6,373-50.8,375.9-49,375.2L-49,375.2z"/>
			</g>
		</g>
		<g id="XMLID_106_">
			<g id="XMLID_294_">
				<path id="XMLID_262_" class="st6" d="M-43.3,379.9c-2.9,6.3-6,12.6-7.6,19.5c-0.4,1.9,2.5,2.7,2.9,0.8
					c1.5-6.6,4.4-12.6,7.3-18.8C-39.9,379.7-42.4,378.1-43.3,379.9L-43.3,379.9z"/>
			</g>
		</g>
		<g id="XMLID_97_">
			<g id="XMLID_288_">
				<path id="XMLID_255_" class="st6" d="M-189.2,374.3c2.9-2.2,5.4-4.8,7.8-7.6c-0.9-0.4-1.7-0.7-2.6-1.1c0.4,3.4,0,6.6-1.5,9.7
					c-0.9,1.7,1.7,3.2,2.6,1.5c1.5-3,3.7-5.2,6.8-6.6c-0.8-0.4-1.5-0.9-2.3-1.3c-0.4,3.8-1,7.5-1.8,11.2c-0.4,1.9,2.5,2.7,2.9,0.8
					c0.9-4,1.6-8,2-12c0.1-1.2-1.3-1.7-2.3-1.3c-3.5,1.6-6.2,4.2-7.9,7.7c0.9,0.5,1.7,1,2.6,1.5c1.8-3.6,2.5-7.3,2-11.2
					c-0.1-1.1-1.6-2.2-2.6-1.1c-2.3,2.8-4.9,5.3-7.8,7.6C-192.9,373.4-190.7,375.5-189.2,374.3L-189.2,374.3z"/>
			</g>
		</g>
		<g id="XMLID_91_">
			<g id="XMLID_282_">
				<path id="XMLID_249_" class="st6" d="M-171,374.8c-1.5,2.8-3.3,5.4-5.4,7.8c-1.3,1.4,0.8,3.6,2.1,2.1c2.3-2.6,4.3-5.4,5.9-8.4
					C-167.5,374.6-170,373.1-171,374.8L-171,374.8z"/>
			</g>
		</g>
		<g id="XMLID_133_">
			<g id="XMLID_276_">
				<path id="XMLID_243_" class="st6" d="M-165.1,377.2c-1.8,2.9-3.6,5.7-5.4,8.6c-1,1.6,1.6,3.1,2.6,1.5c1.8-2.9,3.6-5.7,5.4-8.6
					C-161.5,377.1-164,375.6-165.1,377.2L-165.1,377.2z"/>
			</g>
		</g>
		<g id="XMLID_135_">
			<g id="XMLID_270_">
				<path id="XMLID_237_" class="st6" d="M-159.3,380.2c-2.2,0.3-6.4,1.4-6.7,4.2c-0.2,1.5,1.1,2.6,2,3.7c1.4,1.7,2.8,3.5,4.2,5.2
					c1.2,1.5,3.3-0.6,2.1-2.1c-1.4-1.7-2.8-3.5-4.2-5.2c-0.4-0.5-0.7-0.9-1.1-1.4c-0.1,0.6,0.2,0.5,0.7-0.2c0.9-0.6,1.9-1,3-1.1
					C-157.4,382.9-157.4,379.9-159.3,380.2L-159.3,380.2z"/>
			</g>
		</g>
		<g id="XMLID_141_">
			<g id="XMLID_264_">
				<path id="XMLID_230_" class="st6" d="M-152.6,384.6c-1.1,3.3-2.3,6.6-3.4,9.9c-0.6,1.8,2.3,2.6,2.9,0.8c1.1-3.3,2.3-6.6,3.4-9.9
					C-149.1,383.6-152,382.8-152.6,384.6L-152.6,384.6z"/>
			</g>
		</g>
		<g id="XMLID_142_">
			<g id="XMLID_257_">
				<path id="XMLID_223_" class="st6" d="M-151.2,387.3c1.6,0.3,3.2,0.6,4.8,0.8c1.9,0.3,2.7-2.6,0.8-2.9c-1.6-0.3-3.2-0.6-4.8-0.8
					C-152.3,384.1-153.1,386.9-151.2,387.3L-151.2,387.3z"/>
			</g>
		</g>
		<g id="XMLID_147_">
			<g id="XMLID_251_">
				<path id="XMLID_216_" class="st6" d="M-151.2,393c1.2-0.1,2.4,0,3.6,0.4c1.9,0.5,2.6-2.4,0.8-2.9c-1.4-0.4-2.9-0.6-4.4-0.5
					c-0.8,0.1-1.5,0.6-1.5,1.5C-152.7,392.3-152.1,393.1-151.2,393L-151.2,393z"/>
			</g>
		</g>
		<g id="XMLID_149_">
			<g id="XMLID_245_">
				<path id="XMLID_209_" class="st6" d="M-154,398c1.9,0,3.8,0.4,5.5,1.2c1.8,0.8,3.3-1.8,1.5-2.6c-2.3-1-4.6-1.5-7.1-1.6
					C-155.9,395-155.9,398-154,398L-154,398z"/>
			</g>
		</g>
		<g id="XMLID_155_">
			<g id="XMLID_239_">
				<path id="XMLID_202_" class="st6" d="M-140.8,388.5c0.2,4-0.1,7.8-1,11.7c-0.3,1.2,0.7,2,1.8,1.8c2.4-0.4,4.7-0.8,7.1-1.2
					c1.9-0.3,1.1-3.2-0.8-2.9c-2.4,0.4-4.7,0.8-7.1,1.2c0.6,0.6,1.2,1.2,1.8,1.8c0.9-4.1,1.3-8.3,1.1-12.5
					C-137.9,386.6-140.9,386.6-140.8,388.5L-140.8,388.5z"/>
			</g>
		</g>
		<g id="XMLID_162_">
			<g id="XMLID_232_">
				<path id="XMLID_195_" class="st6" d="M-127.4,402.5c1.8-4.6,1.9-9.9,4.7-14c-0.9,0-1.7,0-2.6,0c2.2,4,3.2,8.9,4.6,13.3
					c0.6,1.8,3.5,1,2.9-0.8c-1.5-4.6-2.6-9.7-4.9-14c-0.6-1-2-0.9-2.6,0c-3,4.4-3.2,9.9-5,14.8C-131,403.5-128.1,404.3-127.4,402.5
					L-127.4,402.5z"/>
			</g>
		</g>
		<g id="XMLID_169_">
			<g id="XMLID_225_">
				<path id="XMLID_188_" class="st6" d="M-127.2,399.5c1.4-0.1,2.8-0.2,4.2-0.3c1.9-0.1,1.9-3.1,0-3c-1.4,0.1-2.8,0.2-4.2,0.3
					C-129.2,396.7-129.2,399.7-127.2,399.5L-127.2,399.5z"/>
			</g>
		</g>
		<g id="XMLID_176_">
			<g id="XMLID_218_">
				<path id="XMLID_180_" class="st6" d="M-117.1,389.9c0.9,3.8,1.6,7.6,2.1,11.5c0.3,1.9,3.2,1.1,2.9-0.8
					c-0.5-3.9-1.2-7.7-2.1-11.5C-114.7,387.2-117.6,388-117.1,389.9L-117.1,389.9z"/>
			</g>
		</g>
		<g id="XMLID_183_">
			<g id="XMLID_212_">
				<path id="XMLID_172_" class="st6" d="M-112.8,395.1c0.8-0.1,1.7-0.2,2.5-0.3c0.8-0.1,1.5-0.6,1.5-1.5c0-0.7-0.7-1.6-1.5-1.5
					s-1.7,0.2-2.5,0.3c-0.8,0.1-1.5,0.6-1.5,1.5C-114.3,394.4-113.6,395.2-112.8,395.1L-112.8,395.1z"/>
			</g>
		</g>
		<g id="XMLID_190_">
			<g id="XMLID_205_">
				<path id="XMLID_165_" class="st6" d="M-110.9,389.1c0.6,3.7,1.1,7.5,2.8,10.9c0.8,1.7,3.4,0.2,2.6-1.5
					c-1.5-3.2-1.9-6.8-2.5-10.2C-108.3,386.4-111.2,387.2-110.9,389.1L-110.9,389.1z"/>
			</g>
		</g>
		<g id="XMLID_197_">
			<g id="XMLID_198_">
				<path id="XMLID_157_" class="st6" d="M-100.7,398.5c0.5-4.4,0.9-8.8,1-13.2c-0.9,0.3-1.9,0.5-2.8,0.8c2.8,3.9,3,8.9,5.8,12.8
					c1.1,1.6,3.7,0.1,2.6-1.5c-2.8-3.9-3.1-8.9-5.8-12.8c-0.8-1.2-2.7-0.8-2.8,0.8c-0.1,4.4-0.5,8.8-1,13.2
					C-103.9,400.4-100.9,400.4-100.7,398.5L-100.7,398.5z"/>
			</g>
		</g>
		<g id="XMLID_204_">
			<g id="XMLID_191_">
				<path id="XMLID_150_" class="st6" d="M-101.9,397.2c1,0.2,1.9,0.1,2.9-0.4c0.7-0.3,0.9-1.4,0.5-2.1c-0.4-0.8-1.3-0.9-2.1-0.5
					c0.2-0.1-0.5,0.1-0.2,0.1c-0.1,0-0.6,0-0.4,0c-0.8-0.1-1.7,0.2-1.8,1S-102.7,397-101.9,397.2L-101.9,397.2z"/>
			</g>
		</g>
		<g id="XMLID_211_">
			<g id="XMLID_184_">
				<path id="XMLID_136_" class="st6" d="M-95.4,385.9c0.8,1.7,1.9,3.2,3.2,4.5c1.4,1.4,3.5-0.7,2.1-2.1c-1.1-1.2-2-2.4-2.8-3.9
					C-93.7,382.7-96.3,384.2-95.4,385.9L-95.4,385.9z"/>
			</g>
		</g>
		<g id="XMLID_222_">
			<g id="XMLID_174_">
				<path id="XMLID_134_" class="st6" d="M-89.8,384.4c-0.8,4.1-1.6,8.3-2.3,12.4c-0.3,1.9,2.6,2.7,2.9,0.8
					c0.7-4.2,1.4-8.3,2.3-12.4C-86.5,383.3-89.4,382.5-89.8,384.4L-89.8,384.4z"/>
			</g>
		</g>
		<g id="XMLID_229_">
			<g id="XMLID_167_">
				<path id="XMLID_132_" class="st6" d="M-83,395.8c0-0.1,0-0.2,0-0.2c0-0.8-0.7-1.5-1.5-1.5s-1.5,0.7-1.5,1.5c0,0.1,0,0.2,0,0.2
					c0,0.8,0.7,1.5,1.5,1.5C-83.7,397.2-83,396.6-83,395.8L-83,395.8z"/>
			</g>
		</g>
		<g id="XMLID_236_">
			<g id="XMLID_159_">
				<path id="XMLID_131_" class="st6" d="M-78.2,382.2c-4.2,0.2-5.6,5.7-4.9,9.2c1,4.9,6,4.4,9.6,2.8c1.8-0.8,0.2-3.4-1.5-2.6
					c-1.8,0.8-4.8,1.8-5.2-1.1c-0.2-1.3,0.2-5.2,2-5.3C-76.3,385.1-76.3,382.1-78.2,382.2L-78.2,382.2z"/>
			</g>
		</g>
		<g id="XMLID_260_">
			<g id="XMLID_152_">
				<path id="XMLID_126_" class="st6" d="M-69.9,379c-2.5,1.2-4,3.8-3.7,6.6c0.3,2.5,2.7,5.8,5.6,5.1c2.6-0.7,3.9-4.3,3.8-6.7
					c-0.1-2.8-2.5-5.4-5.4-5.1c-1.9,0.2-1.9,3.2,0,3c3.9-0.4,2.3,6.3,0.4,5.7c-1.1-0.3-1.6-2.4-1.4-3.3c0.2-1.3,1.1-2.1,2.2-2.7
					C-66.6,380.7-68.1,378.1-69.9,379L-69.9,379z"/>
			</g>
		</g>
		<g id="XMLID_161_">
			<g id="XMLID_144_">
				<path id="XMLID_125_" class="st6" d="M-60.1,385.2c0.2-1.8,0.1-3.5-0.4-5.2c-0.5-1.8-1.6-3.4-1.5-5.3c-0.9,0.4-1.7,0.7-2.6,1.1
					c1.4,1.2,2.8,2.4,4.1,3.6c1,0.8,2.5,0.3,2.6-1.1c0-0.5-0.3-3.7,0-4c-0.5,0.1-1,0.3-1.5,0.4c0.4,0.1,2,2.6,2.5,3.2
					c1,1.3,2.1,2.7,3.1,4c1.2,1.5,3.3-0.6,2.1-2.1c-1.3-1.7-2.6-3.4-4-5.1c-0.8-1-1.6-2.7-3-2.9c-3.1-0.5-2.3,4.9-2.3,6.5
					c0.9-0.4,1.7-0.7,2.6-1.1c-1.4-1.2-2.8-2.4-4.1-3.6c-1-0.8-2.5-0.3-2.6,1.1c-0.1,1.7,0.6,3,1.2,4.5c0.7,2,0.9,3.9,0.7,6
					C-63.3,387.2-60.2,387.1-60.1,385.2L-60.1,385.2z"/>
			</g>
		</g>
		<g id="XMLID_78_">
			<g id="XMLID_127_">
				<path id="XMLID_90_" d="M-167,409.5c-0.1,0-0.1,0-0.2,0c-0.8,0-1.5,0.7-1.5,1.5s0.7,1.5,1.5,1.5c0.1,0,0.1,0,0.2,0
					c0.8,0,1.5-0.7,1.5-1.5S-166.2,409.5-167,409.5L-167,409.5z"/>
			</g>
		</g>
		<g id="XMLID_96_">
			<g id="XMLID_121_">
				<path id="XMLID_85_" d="M-165.5,413.8c1.9,0,1.9-3,0-3S-167.4,413.8-165.5,413.8L-165.5,413.8z"/>
			</g>
		</g>
		<g id="XMLID_182_">
			<g id="XMLID_72_">
				<path id="XMLID_119_" class="st0" d="M-166.4,410.9c-0.4,4.8,2.2,9.5,5.8,12.8s8.1,5.3,12.6,7.2c4.2,1.7,8.4,3.3,12.8,4.3
					c8.8,2,18,1.6,27,0.4c5.4-0.7,10.8-1.7,16.1-3c1.4-0.3,2.9-0.7,4.1-1.6c2.2-1.5,3.1-4.4,3.3-7.1c4.3,0.2,8.7-0.3,12.8-1.5
					c0-1.8-0.4-3.5-1-5.1c-4.9,1-9.9,1.6-14.9,1.5c-0.3,0-0.7,0-1-0.2s-0.5-0.5-0.7-0.8c-1.8-2.7-5.3-4-8.6-4s-6.5,0.8-9.7,1.3
					c-16.7,2.9-33.6-2.5-50.4-4.9c-2.9-0.4-5.9-0.8-8.8-0.2"/>
				<g id="XMLID_114_">
					<path id="XMLID_84_" d="M-167.9,410.9c-0.2,8,5.1,14.1,11.8,17.8c7.9,4.5,17.2,7.8,26.2,8.9c10,1.2,20.3,0,30.1-1.8
						c8.1-1.5,15.5-2.3,16.5-11.8c-0.5,0.5-1,1-1.5,1.5c4.5,0.1,8.8-0.4,13.2-1.6c0.6-0.2,1.2-0.8,1.1-1.4c-0.2-2-0.5-3.6-1.1-5.5
						c-0.3-0.8-1-1.2-1.8-1c-3.8,0.8-11.3,3-15.1,0.9c-2.4-1.3-3.3-3.3-6.4-4.1c-6.8-1.7-14.5,1.5-21.3,1.7c-9,0.2-17.9-1.3-26.7-3
						c-7.8-1.5-16.2-3.9-24.1-3c-1.9,0.2-1.9,3.2,0,3c8.8-1.1,18.4,2,27.1,3.5c8.1,1.5,16.4,2.7,24.7,2.4c3.8-0.2,7.4-0.8,11.1-1.4
						c2-0.3,4.1-0.7,6.1-0.7c3.6,0.2,4.8,1.8,7.5,3.6c4.6,3.2,12.7,0.9,18.1-0.2c-0.6-0.3-1.2-0.7-1.8-1c0.6,1.5,0.9,3.1,1,4.7
						c0.4-0.5,0.7-1,1.1-1.4c-4.1,1.1-8.2,1.6-12.4,1.5c-0.9,0-1.4,0.7-1.5,1.5c-0.6,5.7-4.9,6.9-9.8,8c-3.6,0.8-7.2,1.4-10.8,1.9
						c-8,1.1-16.4,1.7-24.4,0.5c-7-1.1-14-3.7-20.4-6.8c-6.8-3.3-13.3-8.4-13.2-16.7C-164.8,408.9-167.8,408.9-167.9,410.9
						L-167.9,410.9z"/>
				</g>
			</g>
			<g id="XMLID_175_">
				<path id="XMLID_112_" class="st0" d="M-165.3,411.3c1.3,0.1,2,2,1,2.8c1-1.1,2-2.1,3-3.2c-0.6,1.8-1,3.7-1.2,5.6
					c1.5-1.3,3-2.5,4.5-3.9c-0.9,2.4-1.7,4.9-2.4,7.3c2.2-2.1,4.4-4.3,6.6-6.4c-0.8,2.6-1.6,5.2-2.4,7.7c1.7-2.4,3.4-4.7,5.1-7.1
					c-1.5,3.4-2.7,7-3.5,10.6c1.3-2.4,2.6-4.8,4-7.3c0.5,1.7,2.4,2.6,4.1,3.3c7.4,2.9,15.3,4.3,23.2,5.4c2.4,0.3,4.8,0.7,7.2,0.6
					c2.1-0.1,4.1-0.4,6.1-0.7c8.4-1.3,16.9-2.1,25.3-2.9c0-1-0.5-2-1.4-2.5"/>
				<g id="XMLID_107_">
					<path id="XMLID_79_" d="M-166.1,412.6c0.2,0.3,0.3,0.5,0.5,0.8c-0.7,1.5,1.1,3.1,2.4,1.8c1-1.1,2-2.1,3-3.2
						c-0.8-0.5-1.7-1-2.5-1.5c-0.5,1.9-0.9,3.7-1.2,5.6c-0.2,1.5,1.3,2.5,2.5,1.5c1.5-1.3,3-2.6,4.5-3.9c-0.8-0.5-1.7-1-2.5-1.5
						c-0.9,2.4-1.7,4.9-2.4,7.3c-0.4,1.5,1.5,2.5,2.5,1.5c2.2-2.1,4.4-4.3,6.6-6.4c-0.8-0.5-1.7-1-2.5-1.5c-0.8,2.6-1.6,5.2-2.4,7.7
						c-0.5,1.7,1.8,2.5,2.7,1.2c1.7-2.4,3.4-4.7,5.1-7.1c-0.9-0.4-1.8-0.8-2.7-1.2c-1.4,3.5-2.6,7-3.5,10.6
						c-0.4,1.6,1.9,2.7,2.7,1.2c1.3-2.4,2.6-4.8,4-7.3c-0.9,0-1.7,0-2.6,0c2.1,3.9,7.1,4.9,11,6c6.2,1.8,12.6,2.8,18.9,3.6
						c4.9,0.6,9.4,0.1,14.3-0.6c7.6-1.1,15.3-1.8,23-2.6c1-0.1,1.6-0.9,1.4-1.9c-0.2-1.4-0.7-2.3-1.8-3.1c-1.5-1.2-3.6,0.9-2.1,2.1
						c0.4,0.6,0.7,1.2,1.1,1.8c0.5-0.6,1-1.3,1.4-1.9c-5.5,0.5-11.1,1.1-16.6,1.7c-4.9,0.6-9.9,1.7-14.9,1.9c-5.3,0.2-10.8-1-15.9-2
						c-4.5-0.9-14.9-2.1-17.3-6.5c-0.5-1-2.1-1-2.6,0c-1.3,2.4-2.6,4.8-4,7.3c0.9,0.4,1.8,0.8,2.7,1.2c0.9-3.6,2.1-7.2,3.5-10.6
						c0.7-1.7-1.8-2.4-2.7-1.2c-1.7,2.4-3.4,4.7-5.1,7.1c0.9,0.4,1.8,0.8,2.7,1.2c0.8-2.6,1.6-5.2,2.4-7.7c0.5-1.5-1.5-2.5-2.5-1.5
						c-2.2,2.1-4.4,4.3-6.6,6.4c0.8,0.5,1.7,1,2.5,1.5c0.7-2.5,1.5-4.9,2.4-7.3c0.6-1.5-1.5-2.4-2.5-1.5c-1.5,1.3-2.9,2.6-4.5,3.9
						c0.8,0.5,1.7,1,2.5,1.5c0.3-1.9,0.7-3.7,1.2-5.6c0.4-1.4-1.5-2.6-2.5-1.5s-2,2.1-3,3.2c0.8,0.6,1.6,1.2,2.4,1.8
						c1-2,0.6-4-1.6-4.9C-166.3,409.3-167.9,411.8-166.1,412.6L-166.1,412.6z"/>
				</g>
			</g>
		</g>
		<g id="XMLID_67_">
			<g id="XMLID_6_">
				<g id="XMLID_98_">
					<path id="XMLID_65_" class="st6" d="M-182,161.8c0.5,2.6,1.3,5.1,2.8,7.4c1.6,2.5,3.8,4.6,4.7,7.5c0.3,0.9,1.4,1.4,2.2,0.9
						c3.3-2.1,6.8-3.4,10.7-3.9c1.9-0.2,1.9-3.2,0-3c-4.5,0.5-8.5,1.9-12.3,4.3c0.7,0.3,1.5,0.6,2.2,0.9c-1.8-5.5-6.4-9-7.5-15
						C-179.4,159.1-182.3,159.9-182,161.8L-182,161.8z"/>
				</g>
			</g>
			<g id="XMLID_7_">
				<g id="XMLID_92_">
					<path id="XMLID_58_" class="st6" d="M-150.3,171.6c0.4-3.6,0.8-7.1,1.4-10.7c0.3-2.1,0.3-9.1,3.5-7.5c2.1,1,4.5,5.1,5.6,6.9
						c1.7,2.7,3,5.6,4,8.7c0.6,1.8,3.5,1,2.9-0.8c-1.5-4.4-3.5-8.4-6.2-12.1c-1.6-2.2-4.5-6.7-7.7-6.8c-3.2,0-3.9,3.7-4.3,6.1
						c-1,5.4-1.6,10.8-2.2,16.2C-153.5,173.6-150.5,173.5-150.3,171.6L-150.3,171.6z"/>
				</g>
			</g>
			<g id="XMLID_9_">
				<g id="XMLID_86_">
					<path id="XMLID_51_" class="st6" d="M-148.7,166.4c3.3-1.4,6.7-2.4,10.2-3.1c1.9-0.4,1.1-3.3-0.8-2.9c-3.8,0.7-7.4,1.9-11,3.4
						C-152,164.6-150.5,167.2-148.7,166.4L-148.7,166.4z"/>
				</g>
			</g>
			<g id="XMLID_10_">
				<g id="XMLID_80_">
					<path id="XMLID_44_" class="st6" d="M-122.8,150.7c0.3,5.2,0.4,10.4,0.4,15.7c0,1.9,3,1.9,3,0c0.1-5.2-0.1-10.4-0.4-15.7
						C-119.9,148.8-122.9,148.7-122.8,150.7L-122.8,150.7z"/>
				</g>
			</g>
			<g id="XMLID_21_">
				<g id="XMLID_74_">
					<path id="XMLID_37_" class="st6" d="M-120.1,160.2c3.6-0.9,7.2-1.2,10.9-1c1.9,0.1,1.9-2.9,0-3c-4-0.2-7.9,0.2-11.7,1.1
						C-122.7,157.8-121.9,160.7-120.1,160.2L-120.1,160.2z"/>
				</g>
			</g>
			<g id="XMLID_26_">
				<g id="XMLID_68_">
					<path id="XMLID_30_" class="st6" d="M-110.4,150.7c-0.1,5.3-0.2,10.7-0.3,16c0,1.9,3,1.9,3,0c0.1-5.3,0.2-10.7,0.3-16
						C-107.4,148.7-110.4,148.7-110.4,150.7L-110.4,150.7z"/>
				</g>
			</g>
			<g id="XMLID_27_">
				<g id="XMLID_60_">
					<path id="XMLID_20_" class="st6" d="M-94.6,169.7c3.8-5.9,7.9-11.5,12.3-16.8c-0.7,0-1.4,0-2.1,0c3.1,2.8,1.6,8.9,1.5,12.5
						c0,3.3,0.4,6.3,1.8,9.3c0.8,1.8,3.4,0.2,2.6-1.5c-3-6.6,2-17.2-3.8-22.4c-0.6-0.5-1.6-0.6-2.1,0c-4.6,5.6-8.9,11.4-12.8,17.4
						C-98.2,169.8-95.6,171.3-94.6,169.7L-94.6,169.7z"/>
				</g>
			</g>
			<g id="XMLID_29_">
				<g id="XMLID_53_">
					<path id="XMLID_8_" class="st6" d="M-91.5,167c3.4,0.1,6.9,0.2,10.3,0.3c1.9,0.1,1.9-2.9,0-3c-3.4-0.1-6.9-0.2-10.3-0.3
						C-93.4,163.9-93.4,166.9-91.5,167L-91.5,167z"/>
				</g>
			</g>
			<g id="XMLID_35_">
				<g id="XMLID_46_">
					<path id="XMLID_5_" class="st6" d="M-64,159.7c-0.1,3.7,0.2,7.4,0.9,11.1c0.4,1.9,3.3,1.1,2.9-0.8c-0.6-3.4-0.9-6.8-0.8-10.3
						C-60.9,157.7-63.9,157.7-64,159.7L-64,159.7z"/>
				</g>
			</g>
			<g id="XMLID_42_">
				<g id="XMLID_39_">
					<path id="XMLID_4_" class="st6" d="M-50.9,162.7c-5.6,3.8-10.8,8.1-15.8,12.7c0.8,0.5,1.7,1,2.5,1.5c0-0.2,0.1-0.3,0.1-0.5
						c0.4-1.9-2.5-2.7-2.9-0.8c0,0.2-0.1,0.3-0.1,0.5c-0.3,1.5,1.4,2.5,2.5,1.5c4.7-4.5,9.8-8.6,15.2-12.2
						C-47.8,164.2-49.3,161.6-50.9,162.7L-50.9,162.7z"/>
				</g>
			</g>
			<g id="XMLID_49_">
				<g id="XMLID_32_">
					<path id="XMLID_11_" class="st6" d="M-204.3,165.3c4.4,5.4,9.1,10.6,14.1,15.4c2.9,2.8,7.5,9.2,12.1,8.5c2.5-0.4,5-2.1,7.3-3.2
						c3.7-1.8,7.5-3.7,11.3-5.2c7.4-2.9,15.2-4.5,23.1-5.2c14.4-1.3,28.9,0.2,43.2,1.7c8.3,0.9,16.1,2.3,23.6,6
						c6.6,3.3,13,7.2,19.5,10.8c0.6,0.3,1.4,0.3,1.8-0.2c5.8-6.4,11.6-12.7,17.4-19.1c2.1-2.3,7.5-6.1,4.2-9.4
						c-2.1-2.1-6.8-3.2-9.6-4.4c-3.3-1.4-6.5-2.7-9.8-4.1c-7.5-3-14.9-5.9-22.5-8.7c-14.6-5.4-29.3-7.2-44.8-7.3
						c-14.6-0.1-29.5-0.3-43.9,2.4c-7.8,1.5-15.4,3.9-22.4,7.7c-7.8,4.2-15,9.5-23.8,11.7c-1.9,0.5-1.1,3.4,0.8,2.9
						c7.9-2,14.6-6.3,21.5-10.4c7.5-4.3,15.3-7.3,23.7-8.9c16.9-3.3,35.2-2.9,52.4-2.3c9.5,0.4,18.8,1.5,27.9,4.3
						c8.2,2.5,16.1,5.9,24.1,9c4.1,1.6,8.1,3.2,12.1,4.9c2.7,1.1,5.5,2.3,8.2,3.5c2.5,1.1,4.3,0.8,2.4,3.9c-2.3,3.7-6.4,7-9.4,10.3
						c-3.6,3.9-7.2,7.8-10.7,11.8c0.6-0.1,1.2-0.2,1.8-0.2c-12.2-6.8-23.7-14.4-37.8-16.4c-13.8-2-28-3.2-41.9-2.9
						c-13.7,0.3-26.6,3-39,8.8c-3.1,1.5-9.5,5.9-13,4.6c-2.3-0.9-5.3-4.8-7.1-6.4c-5.2-5-10.1-10.4-14.7-16
						C-203.4,161.7-205.5,163.8-204.3,165.3L-204.3,165.3z"/>
				</g>
			</g>
			<g id="XMLID_56_">
				<g id="XMLID_23_">
					<path id="XMLID_12_" class="st6" d="M-193.5,178.7c-7.4,7.8-14.8,15.6-22.2,23.4c-1,1,0,3.1,1.5,2.5c9.3-3.6,18.7-7.2,28-10.8
						c-0.6-0.5-1.3-1-1.9-1.4c-0.8,6.8-6.3,11.9-7.7,18.6c-0.3,1.5,1.3,2.4,2.5,1.5c4.1-3.3,6-8.2,9.7-11.8c5-4.8,12-5.4,18.5-6
						c1-0.1,1.7-0.9,1.4-1.9c-0.7-3.3-1.7-6.3-3-9.4c-0.8-1.8-3.4-0.2-2.6,1.5c1.2,2.8,2.1,5.7,2.7,8.6c0.5-0.6,1-1.3,1.4-1.9
						c-6.2,0.5-12.7,1.1-18,4.7s-7.4,10-12.3,13.9c0.8,0.5,1.7,1,2.5,1.5c1.5-7,7-12.2,7.8-19.4c0.1-0.9-1.1-1.8-1.9-1.4
						c-9.3,3.6-18.7,7.2-28,10.8c0.5,0.8,1,1.7,1.5,2.5c7.4-7.8,14.8-15.6,22.2-23.4C-190,179.4-192.1,177.3-193.5,178.7
						L-193.5,178.7z"/>
				</g>
			</g>
			<g id="XMLID_63_">
				<g id="XMLID_16_">
					<path id="XMLID_13_" class="st6" d="M-65.1,187.2c-1,3.8-2,7.7-2.8,11.5c-0.3,1.2,0.7,2,1.8,1.8c10.7-1.5,17.9,7.3,23.4,15
						c0.9,1.2,2.6,0.8,2.8-0.8c0.6-5.8,0.7-11.6,0.4-17.4c-0.6,0.5-1.3,1-1.9,1.4c6.3,2.4,12,5.6,17.3,9.7c1.1,0.8,2.4,0.3,2.6-1.1
						c0.4-4.8-3.3-8.6-5.8-12.3c-3.3-4.8-6.7-9.7-10-14.5c-1.1-1.6-3.7-0.1-2.6,1.5c2.6,3.8,5.3,7.6,7.9,11.5
						c2.5,3.6,8,9.1,7.5,13.8c0.9-0.4,1.7-0.7,2.6-1.1c-5.7-4.5-11.8-7.9-18.6-10.5c-0.9-0.3-1.9,0.5-1.9,1.4
						c0.3,5.8,0.1,11.6-0.4,17.4c0.9-0.3,1.9-0.5,2.8-0.8c-6.5-9.1-14.6-18.2-26.8-16.4c0.6,0.6,1.2,1.2,1.8,1.8
						c0.9-3.9,1.8-7.7,2.8-11.5C-61.7,186.1-64.6,185.3-65.1,187.2L-65.1,187.2z"/>
				</g>
			</g>
		</g>
	</g>
</g>
</svg>
