<?xml version="1.0" encoding="utf-8"?>
<!-- Generator: Adobe Illustrator 19.0.0, SVG Export Plug-In . SVG Version: 6.00 Build 0)  -->
<svg id='hiremesvg' version="1.1" xmlns="http://www.w3.org/2000/svg" xmlns:xlink="http://www.w3.org/1999/xlink" x="0px" y="0px"
	 viewBox="0 0 986.4 563.7" style="enable-background:new 0 0 986.4 563.7;" xml:space="preserve">
<style type="text/css">
	.st0{fill:#00FFFF;stroke:url(#XMLID_25_);stroke-miterlimit:10;}
	.st1{fill:#FF0000;stroke:#F7931E;stroke-width:39;stroke-miterlimit:10;}
	.st2{fill:#00FF00;stroke:#00FF00;stroke-width:39;stroke-miterlimit:10;}
	.st3{fill:url(#XMLID_27_);}
	.st4{fill:#808080;}
	#Layer_2{animation: cloud-float 15s  infinite;}

	@keyframes cloud-float {
  from {
    transform: translateX(-110%);
  }
  to {
    transform: translateX(110%);
  }
}

</style>
<defs>
	<filter id='convolve'>
		<feConvolveMatrix   preserveAlpha="true" kernelMatrix="-1 -1 -1
-1  8 -1
-1 -1 -1"/>
	</filter>
</defs>
<g > 
<g  id="Layer_1">
	<g id="XMLID_3_">
		<g id="XMLID_31_">
			<path id="XMLID_23_" d="M80.6,115.5c1.9,0,1.9-3,0-3C78.7,112.5,78.7,115.5,80.6,115.5L80.6,115.5z"/>
		</g>
	</g>
	<linearGradient id="XMLID_25_" gradientUnits="userSpaceOnUse" x1="-0.5" y1="281.8372" x2="986.9418" y2="281.8372">
		<stop  offset="0" style="stop-color:#FFFFFF"/>
		<stop  offset="0.1627" style="stop-color:#F7F7F7"/>
		<stop  offset="1" style="stop-color:#000000"/>
	</linearGradient>
	<rect id="XMLID_8_" class="st0" width="986.4" height="563.7"/>
	<circle id="XMLID_1_" class="st1" cx="501.5" cy="172.5" r="125"/>
	
		<rect id="XMLID_5_" x="620.7" y="363.8" transform="matrix(0.6804 0.7328 -0.7328 0.6804 633.8188 -404.9164)" class="st2" width="320.9" height="320.9"/>
	
		<rect id="XMLID_4_" x="319.5" y="393.1" transform="matrix(0.6804 0.7328 -0.7328 0.6804 559.0575 -174.8487)" class="st2" width="320.9" height="320.9"/>
	
		<rect id="XMLID_2_" x="81.9" y="418.7" transform="matrix(0.6804 0.7328 -0.7328 0.6804 501.8483 7.4996)" class="st2" width="320.9" height="320.9"/>
</g>
<g id="Layer_2">
	<g id="XMLID_22_">
		<g id="XMLID_6_">
			<linearGradient id="XMLID_27_" gradientUnits="userSpaceOnUse" x1="-12.738" y1="133.9637" x2="413.8852" y2="133.9637">
				<stop  offset="0" style="stop-color:#FFFFFF"/>
				<stop  offset="0.1627" style="stop-color:#F7F7F7"/>
				<stop  offset="1" style="stop-color:#000000"/>
			</linearGradient>
			<path id="XMLID_44_" class="st3" d="M-9,98.3c0.6-29.5,17.7-57.6,42.5-73.7s56.2-20.6,85-14.3c13.5,2.9,26.8,8.3,36.4,18.3
				c14.8,15.3,18.9,39.6,36.2,51.9c17.5,12.5,41.3,8.1,62.5,4.4c33.5-5.9,68.7-8.5,101.2,1.7c15.5,4.8,30.3,12.7,41.5,24.5
				c11.2,11.8,18.4,27.8,17.7,44c-0.7,15.7-8.6,30.5-19.6,41.8s-24.7,19.4-38.9,26.3c-37.3,18-78.1,27.9-119.1,33.5
				c-25.6,3.5-51.6,5.4-77.2,1.7c-25.5-3.7-50.7-13.5-69.7-30.9c-28.1-25.8-40.7-66-71.3-88.7c-8.2-6.1-17.6-10.8-24.2-18.6
				S-15.6,99.9-9,92"/>
			<g id="XMLID_39_">
				<path id="XMLID_7_" class="st4" d="M-7.5,98.3C-6.4,63.8,16.1,33,47.1,18.8c16.2-7.4,34.2-10.5,51.9-9.6
					c17.6,0.9,36.9,5.2,50.8,16.6c12.2,10.1,17.5,25.4,25.5,38.6c7.5,12.3,17.8,21.6,32.2,24.5c15.7,3.2,31.9-0.2,47.4-2.8
					c19.4-3.3,39.2-5.6,58.9-4.8c35.6,1.4,78,13.9,93.7,49.3c7.9,17.8,5.5,37.1-4.9,53.3c-10,15.7-25.7,26.4-42,34.9
					c-34.1,17.7-71.7,27.8-109.4,34c-38.6,6.4-79.6,10.4-117.5-2c-17.1-5.6-33.2-14.5-46.1-27.2c-11.6-11.4-20.5-25.2-29.3-38.8
					c-8.2-12.7-16.5-25.5-27.1-36.5c-5.4-5.6-11.4-10.5-17.9-14.8C6.2,128.8-2,124-6.9,116.5c-4.7-7.1-6.2-16.6-0.8-23.7
					c1.2-1.5-1.4-3-2.6-1.5c-10,13.1,0.5,29.1,11.4,37.4c7.1,5.5,15,9.8,21.8,15.8c6.6,5.8,12.4,12.5,17.7,19.5
					c20.4,27.1,34.6,58.6,64.5,77c34,20.9,75.3,23.1,113.9,19.2c40.9-4.1,82-12.5,120.2-28.2c32-13.2,70.4-33.6,75.8-71.7
					c5.2-36.4-25.9-63.9-57.4-74.4c-19.1-6.4-39.4-8.2-59.4-7.5c-20,0.7-39.4,4.6-59.1,7.4c-18.6,2.7-39.2,2.8-53.1-11.9
					c-11.4-12.1-15.9-28.8-26-41.8C138.9,5.2,95.9,1.9,65.2,9.4c-33,8-61,32-71.5,64.6c-2.5,7.9-3.9,16-4.2,24.3
					C-10.6,100.2-7.6,100.2-7.5,98.3L-7.5,98.3z"/>
			</g>
		</g>
	</g>
</g>
</g>
</svg>
