<?xml version="1.0" encoding="utf-8"?>
<!-- Generator: Adobe Illustrator 19.0.0, SVG Export Plug-In . SVG Version: 6.00 Build 0)  -->
<svg version="1.1" id="Layer_1" xmlns="http://www.w3.org/2000/svg" xmlns:xlink="http://www.w3.org/1999/xlink" x="0px" y="0px"
	 viewBox="0 0 960 560" style="enable-background:new 0 0 960 560;" xml:space="preserve">
<style type="text/css">
	.st0{fill:none;}
	.st1{display:none;}
	.st2{display:none;stroke:#FF00FF;stroke-miterlimit:10;}
	.st3{font-family:'BlasterInfinite';}
	.st4{font-size:157.0361px;}
	.st5{display:none;fill:none;}
	.st6{enable-background:new    ;}
	.st7{fill:#AF6815;}
	.st8{fill:#7E4B0F;}
	.st9{clip-path:url(#XMLID_274_);enable-background:new    ;}
	.st10{fill:#804C10;}
	.st11{clip-path:url(#XMLID_285_);enable-background:new    ;}
	.st12{clip-path:url(#XMLID_288_);enable-background:new    ;}
	.st13{clip-path:url(#XMLID_289_);enable-background:new    ;}
	.st14{fill:#A36114;}
	.st15{fill:#9E5E13;}
	.st16{fill:#995B13;}
	.st17{clip-path:url(#XMLID_292_);enable-background:new    ;}
	.st18{clip-path:url(#XMLID_294_);enable-background:new    ;}
	.st19{clip-path:url(#XMLID_295_);enable-background:new    ;}
	.st20{clip-path:url(#XMLID_299_);enable-background:new    ;}
	.st21{fill:#854F10;}
	.st22{fill:#8A5211;}
	.st23{fill:#8F5511;}
	.st24{fill:#945812;}
	.st25{clip-path:url(#XMLID_300_);enable-background:new    ;}
	.st26{clip-path:url(#XMLID_301_);enable-background:new    ;}
	.st27{clip-path:url(#XMLID_303_);enable-background:new    ;}
	.st28{clip-path:url(#XMLID_304_);enable-background:new    ;}
	.st29{clip-path:url(#XMLID_305_);enable-background:new    ;}
	.st30{clip-path:url(#XMLID_307_);enable-background:new    ;}
	.st31{clip-path:url(#XMLID_309_);enable-background:new    ;}
	.st32{clip-path:url(#XMLID_313_);enable-background:new    ;}
	.st33{clip-path:url(#XMLID_314_);enable-background:new    ;}
	.st34{clip-path:url(#XMLID_315_);enable-background:new    ;}
	.st35{clip-path:url(#XMLID_316_);enable-background:new    ;}
	.st36{fill:#D8801A;}
	.st37{clip-path:url(#XMLID_321_);enable-background:new    ;}
</style>
<path id="XMLID_x5F_272_x5F__1_" class="st0" d="M517.3,196.2c13.6-37.4,54.9-56.7,92.2-43.1c37.4,13.6,56.7,54.9,43.1,92.2
	c-13.6,37.4-54.9,56.7-92.2,43.1S503.7,233.6,517.3,196.2z"/>
<text id="XMLID_273_" class="st1"><textPath  xlink:href="#XMLID_x5F_272_x5F__1_" startOffset="22.2982%"  style="display:inline;">
</textPath>
</text>
<path id="XMLID_x5F_274_x5F_" class="st0" d="M54.5,220.5c12.9-39.6,56.5-60,95.2-44.5c35,14,53.4,53.3,41.7,89.2
	c-12.9,39.6-56.5,60-95.2,44.5C61.2,295.6,42.8,256.3,54.5,220.5z"/>
<text id="XMLID_275_" class="st1"><textPath  xlink:href="#XMLID_x5F_274_x5F_" startOffset="0%"  style="display:inline;">
<tspan  style="font-family:'MyriadPro-Regular'; font-size:12px;">nodejs angularjs html css javascript express photoshop illustrator gulp command line jquery</tspan></textPath>
</text>
<path id="XMLID_277_" class="st0" d="M501.6,127.9h108c18.6,0,33.6,15,33.6,33.6v92.9c0,18.6-15,33.6-33.6,33.6h-108
	c-18.6,0-33.6-15-33.6-33.6v-92.9C468,143,483,127.9,501.6,127.9z"/>
<text id="XMLID_276_" transform="matrix(1 0 0 1 468 251.7598)" class="st2 st3 st4">M</text>
<path id="XMLID_278_" class="st2" d="M481,166c-4.3,23.9-13.5,83.8,4,91c14.1,5.8,51.3-20,46-49c-2.9-15.8-17.7-29.1-37-33"/>
<path id="XMLID_279_" class="st5" d="M720,154"/>
<g id="XMLID_281_">
	<g id="XMLID_302_">
		<g id="XMLID_325_" class="st6">
			<g id="XMLID_669_">
				<polygon id="XMLID_670_" class="st7" points="408.2,349.3 385.4,336.9 410,333.5 432.8,345.9 				"/>
			</g>
			<g id="XMLID_667_">
				<polygon id="XMLID_668_" class="st8" points="432.8,345.9 410,333.5 410.1,289.9 432.9,302.3 				"/>
			</g>
			<g id="XMLID_663_" class="st6">
				<defs>
					<path id="XMLID_666_" class="st6" d="M403.2,277.4l22.8,12.4c0.9,0.5,1.8,1.1,2.5,1.8c1.3,1.2,2.4,2.8,3.2,4.6
						c0.8,1.8,1.2,3.9,1.2,6.1l-22.8-12.4c0-2.2-0.4-4.2-1.2-6.1c-0.8-1.8-1.8-3.4-3.2-4.6C405,278.5,404.2,277.9,403.2,277.4z"/>
				</defs>
				<clipPath id="XMLID_284_">
					<use xlink:href="#XMLID_666_"  style="overflow:visible;"/>
				</clipPath>
				<g id="XMLID_664_" style="clip-path:url(#XMLID_284_);enable-background:new    ;">
					<path id="XMLID_665_" class="st10" d="M432.9,302.3l-22.8-12.4c0-2.2-0.4-4.2-1.2-6.1c-0.8-1.8-1.8-3.4-3.2-4.6
						c-0.8-0.7-1.6-1.3-2.5-1.8l22.8,12.4c0.9,0.5,1.8,1.1,2.5,1.8c1.3,1.2,2.4,2.8,3.2,4.6C432.5,298.1,432.9,300.1,432.9,302.3"/>
				</g>
			</g>
			<g id="XMLID_658_" class="st6">
				<defs>
					<path id="XMLID_662_" class="st6" d="M401.1,276.4c0.8,0.3,1.5,0.6,2.2,0.9l22.8,12.4c-0.7-0.4-1.4-0.7-2.2-0.9c0,0,0,0,0,0
						C416.3,284.7,408.7,280.6,401.1,276.4C401.1,276.4,401.1,276.4,401.1,276.4z"/>
				</defs>
				<clipPath id="XMLID_285_">
					<use xlink:href="#XMLID_662_"  style="overflow:visible;"/>
				</clipPath>
				<g id="XMLID_659_" class="st11">
					<path id="XMLID_661_" d="M423.1,288.6l-22.8-12.4c0.2,0.1,0.5,0.1,0.7,0.2c0.6,0.2,1.2,0.4,1.7,0.7l22.8,12.4
						c-0.5-0.3-1.1-0.5-1.7-0.7C423.6,288.8,423.4,288.7,423.1,288.6"/>
					<path id="XMLID_660_" d="M425.6,289.5l-22.8-12.4c0.2,0.1,0.3,0.2,0.5,0.2l22.8,12.4C425.9,289.7,425.7,289.6,425.6,289.5"/>
				</g>
			</g>
			<g id="XMLID_656_">
				<polygon id="XMLID_657_" points="408.2,349.3 385.4,336.9 385.5,298.9 408.3,311.3 				"/>
			</g>
			<g id="XMLID_654_">
				<polygon id="XMLID_655_" class="st8" points="407.3,350.4 384.5,338 384.6,299 407.4,311.4 				"/>
			</g>
			<g id="XMLID_649_" class="st6">
				<defs>
					<path id="XMLID_653_" class="st6" d="M395.3,276c2-0.3,4-0.1,5.8,0.5c7.6,4.1,15.2,8.3,22.8,12.4c-1.8-0.6-3.8-0.8-5.8-0.5
						C411.2,284.7,402.1,279.7,395.3,276z"/>
				</defs>
				<clipPath id="XMLID_288_">
					<use xlink:href="#XMLID_653_"  style="overflow:visible;"/>
				</clipPath>
				<g id="XMLID_650_" class="st12">
					<path id="XMLID_652_" d="M418.1,288.4L395.3,276c1.8-0.2,3.5-0.2,5.1,0.3l22.8,12.4C421.5,288.2,419.8,288.1,418.1,288.4"/>
					<path id="XMLID_651_" d="M423.1,288.6l-22.8-12.4c0.2,0.1,0.5,0.1,0.7,0.2c0.6,0.2,1.2,0.4,1.7,0.7l22.8,12.4
						c-0.5-0.3-1.1-0.5-1.7-0.7C423.6,288.8,423.4,288.7,423.1,288.6"/>
				</g>
			</g>
			<g id="XMLID_643_" class="st6">
				<defs>
					<path id="XMLID_648_" class="st6" d="M403.7,276.5l22.8,12.4c-0.7-0.4-1.5-0.7-2.3-1c-1.9-0.6-4-0.8-6.1-0.5L395.3,275
						c2.2-0.3,4.2-0.1,6.1,0.5C402.2,275.8,403,276.1,403.7,276.5z"/>
				</defs>
				<clipPath id="XMLID_289_">
					<use xlink:href="#XMLID_648_"  style="overflow:visible;"/>
				</clipPath>
				<g id="XMLID_644_" class="st13">
					<path id="XMLID_647_" class="st14" d="M418.1,287.4L395.3,275c1.9-0.3,3.7-0.2,5.4,0.3l22.8,12.4
						C421.8,287.2,419.9,287.1,418.1,287.4"/>
					<path id="XMLID_646_" class="st15" d="M423.4,287.7l-22.8-12.4c0.3,0.1,0.5,0.1,0.8,0.2c0.6,0.2,1.2,0.5,1.8,0.7l22.8,12.4
						c-0.6-0.3-1.2-0.5-1.8-0.7C424,287.8,423.7,287.7,423.4,287.7"/>
					<path id="XMLID_645_" class="st16" d="M426,288.6l-22.8-12.4c0.2,0.1,0.3,0.2,0.5,0.3l22.8,12.4
						C426.4,288.8,426.2,288.7,426,288.6"/>
				</g>
			</g>
			<g id="XMLID_639_" class="st6">
				<defs>
					<path id="XMLID_642_" class="st6" d="M383.9,294.9c-0.3-0.3-0.6-0.5-1-0.7l22.8,12.4c0.3,0.2,0.7,0.4,1,0.7
						C399.1,303.1,391.5,299,383.9,294.9c7.6,4.1,15.2,8.3,22.8,12.4c1.1,1,1.6,2.4,1.6,4l-22.8-12.4
						C385.5,297.2,385,295.9,383.9,294.9z"/>
				</defs>
				<clipPath id="XMLID_292_">
					<use xlink:href="#XMLID_642_"  style="overflow:visible;"/>
				</clipPath>
				<g id="XMLID_640_" class="st17">
					<path id="XMLID_641_" d="M408.3,311.3l-22.8-12.4c0-1.7-0.5-3-1.6-4c-0.3-0.3-0.6-0.5-1-0.7l22.8,12.4c0.3,0.2,0.7,0.4,1,0.7
						C407.7,308.3,408.3,309.6,408.3,311.3"/>
				</g>
			</g>
			<g id="XMLID_635_" class="st6">
				<defs>
					<path id="XMLID_638_" class="st6" d="M382.4,295l22.8,12.4c0.3,0.2,0.6,0.4,0.8,0.6c0.9,0.8,1.3,2,1.3,3.4L384.6,299
						c0-1.4-0.4-2.5-1.3-3.4C383,295.4,382.7,295.2,382.4,295z"/>
				</defs>
				<clipPath id="XMLID_294_">
					<use xlink:href="#XMLID_638_"  style="overflow:visible;"/>
				</clipPath>
				<g id="XMLID_636_" class="st18">
					<path id="XMLID_637_" class="st10" d="M407.4,311.4L384.6,299c0-1.4-0.4-2.5-1.3-3.4c-0.3-0.2-0.5-0.4-0.8-0.6l22.8,12.4
						c0.3,0.2,0.6,0.4,0.8,0.6C407,308.9,407.4,310,407.4,311.4"/>
				</g>
			</g>
			<g id="XMLID_629_" class="st6">
				<defs>
					<path id="XMLID_634_" class="st6" d="M382.9,294.2l22.8,12.4c-0.9-0.5-1.9-0.6-3-0.5L380,293.7
						C381.1,293.5,382.1,293.7,382.9,294.2z"/>
				</defs>
				<clipPath id="XMLID_295_">
					<use xlink:href="#XMLID_634_"  style="overflow:visible;"/>
				</clipPath>
				<g id="XMLID_630_" class="st19">
					<path id="XMLID_633_" class="st14" d="M402.7,306.1L380,293.7c0.7-0.1,1.4-0.1,2,0.1l22.8,12.4
						C404.1,306,403.5,306,402.7,306.1"/>
					<path id="XMLID_632_" class="st15" d="M404.7,306.2l-22.8-12.4c0.3,0.1,0.6,0.2,0.8,0.3l22.8,12.4
						C405.3,306.3,405,306.2,404.7,306.2"/>
					<path id="XMLID_631_" class="st16" d="M405.6,306.5l-22.8-12.4c0.1,0,0.1,0.1,0.2,0.1l22.8,12.4
						C405.7,306.5,405.6,306.5,405.6,306.5"/>
				</g>
			</g>
			<g id="XMLID_627_">
				<polygon id="XMLID_628_" class="st7" points="382.3,308.9 359.6,296.5 380,293.7 402.7,306.1 				"/>
			</g>
			<g id="XMLID_625_">
				<polygon id="XMLID_626_" class="st8" points="376.7,353.7 353.9,341.3 354,303.3 376.8,315.7 				"/>
			</g>
			<g id="XMLID_614_" class="st6">
				<defs>
					<path id="XMLID_624_" class="st6" d="M376.8,315.7L354,303.3c0-1.7,0.5-3.2,1.6-4.5c1.1-1.3,2.4-2.1,3.9-2.3l22.8,12.4
						c-1.5,0.2-2.9,1-3.9,2.3C377.3,312.5,376.8,314,376.8,315.7z"/>
				</defs>
				<clipPath id="XMLID_299_">
					<use xlink:href="#XMLID_624_"  style="overflow:visible;"/>
				</clipPath>
				<g id="XMLID_615_" class="st20">
					<path id="XMLID_623_" class="st10" d="M376.8,315.7L354,303.3c0-0.8,0.1-1.7,0.4-2.4l22.8,12.4
						C376.9,314.1,376.8,314.9,376.8,315.7"/>
					<path id="XMLID_622_" class="st21" d="M377.2,313.3l-22.8-12.4c0.1-0.3,0.2-0.6,0.4-0.9l22.8,12.4
						C377.5,312.7,377.3,313,377.2,313.3"/>
					<path id="XMLID_621_" class="st22" d="M377.6,312.4L354.8,300c0.1-0.2,0.3-0.5,0.4-0.7l22.8,12.4
						C377.9,311.9,377.7,312.2,377.6,312.4"/>
					<path id="XMLID_620_" class="st23" d="M378.1,311.7l-22.8-12.4c0.1-0.2,0.2-0.3,0.4-0.5c0.1-0.1,0.1-0.1,0.2-0.2l22.8,12.4
						c-0.1,0.1-0.1,0.1-0.2,0.2C378.3,311.4,378.2,311.5,378.1,311.7"/>
					<path id="XMLID_619_" class="st24" d="M378.6,311l-22.8-12.4c0.2-0.2,0.4-0.4,0.6-0.6l22.8,12.4
						C379,310.6,378.8,310.8,378.6,311"/>
					<path id="XMLID_618_" class="st16" d="M379.2,310.4L356.4,298c0.2-0.2,0.4-0.4,0.6-0.5l22.8,12.4
						C379.6,310.1,379.4,310.3,379.2,310.4"/>
					<path id="XMLID_617_" class="st15" d="M379.8,309.9L357,297.5c0.3-0.2,0.6-0.3,0.8-0.5l22.8,12.4
						C380.3,309.6,380.1,309.7,379.8,309.9"/>
					<path id="XMLID_616_" class="st14" d="M380.6,309.4L357.8,297c0.5-0.3,1.1-0.4,1.7-0.5l22.8,12.4
						C381.7,309,381.2,309.2,380.6,309.4"/>
				</g>
			</g>
			<g id="XMLID_612_">
				<polygon id="XMLID_613_" class="st7" points="352.1,357.2 329.3,344.8 353.9,341.3 376.7,353.7 				"/>
			</g>
			<g id="XMLID_610_">
				<polygon id="XMLID_611_" points="373.5,294.6 350.7,282.2 395.3,276 418.1,288.4 				"/>
			</g>
			<g id="XMLID_608_">
				<polygon id="XMLID_609_" class="st7" points="373.5,293.7 350.7,281.3 395.3,275 418.1,287.4 				"/>
			</g>
			<g id="XMLID_603_" class="st6">
				<defs>
					<path id="XMLID_607_" class="st6" d="M346.1,283.7c1.4-0.7,3-1.2,4.6-1.4l22.8,12.4c-1.6,0.2-3.2,0.7-4.6,1.4c0,0,0,0,0,0
						C361.3,292,353.7,287.8,346.1,283.7C346.1,283.7,346.1,283.7,346.1,283.7z"/>
				</defs>
				<clipPath id="XMLID_300_">
					<use xlink:href="#XMLID_607_"  style="overflow:visible;"/>
				</clipPath>
				<g id="XMLID_604_" class="st25">
					<path id="XMLID_606_" d="M364.3,298.9l-22.8-12.4c1.8-1.2,3.1-2.1,4.6-2.8c0.1-0.1,0.2-0.1,0.4-0.2l22.8,12.4
						c-0.1,0.1-0.2,0.1-0.4,0.2C367.4,296.8,366,297.8,364.3,298.9"/>
					<path id="XMLID_605_" d="M369.2,295.9l-22.8-12.4c1.3-0.6,2.8-1.1,4.3-1.3l22.8,12.4C372,294.8,370.6,295.3,369.2,295.9"/>
				</g>
			</g>
			<g id="XMLID_599_" class="st6">
				<defs>
					<path id="XMLID_602_" class="st6" d="M341.8,286.3c1.6-1.1,2.9-2,4.3-2.7c7.6,4.1,15.2,8.3,22.8,12.4c-1.4,0.7-2.7,1.6-4.3,2.7
						C356.9,294.6,349.4,290.5,341.8,286.3z"/>
				</defs>
				<clipPath id="XMLID_301_">
					<use xlink:href="#XMLID_602_"  style="overflow:visible;"/>
				</clipPath>
				<g id="XMLID_600_" class="st26">
					<path id="XMLID_601_" d="M364.3,298.9l-22.8-12.4c1.8-1.2,3.1-2.1,4.6-2.8c0.1-0.1,0.2-0.1,0.4-0.2l22.8,12.4
						c-0.1,0.1-0.2,0.1-0.4,0.2C367.4,296.8,366,297.8,364.3,298.9"/>
				</g>
			</g>
			<g id="XMLID_595_" class="st6">
				<defs>
					<path id="XMLID_598_" class="st6" d="M341.5,286.5c0.1-0.1,0.2-0.1,0.3-0.2c7.6,4.1,15.2,8.3,22.8,12.4
						c-0.1,0.1-0.2,0.1-0.3,0.2C357.4,295.2,348.3,290.2,341.5,286.5z"/>
				</defs>
				<clipPath id="XMLID_303_">
					<use xlink:href="#XMLID_598_"  style="overflow:visible;"/>
				</clipPath>
				<g id="XMLID_596_" class="st27">
					<path id="XMLID_597_" d="M364.3,298.9l-22.8-12.4c1.8-1.2,3.1-2.1,4.6-2.8c0.1-0.1,0.2-0.1,0.4-0.2l22.8,12.4
						c-0.1,0.1-0.2,0.1-0.4,0.2C367.4,296.8,366,297.8,364.3,298.9"/>
				</g>
			</g>
			<g id="XMLID_589_" class="st6">
				<defs>
					<path id="XMLID_594_" class="st6" d="M364.5,297.9l-22.8-12.4c1.3-1.1,2.6-2,4-2.7c1.5-0.8,3.2-1.3,4.9-1.5l22.8,12.4
						c-1.7,0.2-3.4,0.8-4.9,1.5C367.1,295.9,365.8,296.9,364.5,297.9z"/>
				</defs>
				<clipPath id="XMLID_304_">
					<use xlink:href="#XMLID_594_"  style="overflow:visible;"/>
				</clipPath>
				<g id="XMLID_590_" class="st28">
					<path id="XMLID_593_" class="st16" d="M364.5,297.9l-22.8-12.4c0.5-0.5,1.1-0.9,1.7-1.3l22.8,12.4
						C365.6,297,365.1,297.5,364.5,297.9"/>
					<path id="XMLID_592_" class="st15" d="M366.2,296.6l-22.8-12.4c0.8-0.5,1.6-1,2.4-1.4c0.1-0.1,0.3-0.1,0.4-0.2L369,295
						c-0.1,0.1-0.3,0.1-0.4,0.2C367.8,295.6,367,296.1,366.2,296.6"/>
					<path id="XMLID_591_" class="st14" d="M369,295l-22.8-12.4c1.4-0.7,3-1.1,4.5-1.3l22.8,12.4C371.9,293.9,370.4,294.4,369,295"
						/>
				</g>
			</g>
			<g id="XMLID_587_">
				<polygon id="XMLID_588_" points="352.1,357.2 329.3,344.8 329.4,306.8 352.2,319.2 				"/>
			</g>
			<g id="XMLID_585_">
				<polygon id="XMLID_586_" class="st8" points="351.2,358.3 328.4,345.9 328.5,306.9 351.3,319.3 				"/>
			</g>
			<g id="XMLID_581_" class="st6">
				<defs>
					<path id="XMLID_584_" class="st6" d="M327.8,302.7c-0.3-0.3-0.6-0.5-1-0.7l22.8,12.4c0.3,0.2,0.7,0.4,1,0.7
						c1.1,1,1.6,2.4,1.6,4l-22.8-12.4C329.4,305.1,328.9,303.7,327.8,302.7z"/>
				</defs>
				<clipPath id="XMLID_305_">
					<use xlink:href="#XMLID_584_"  style="overflow:visible;"/>
				</clipPath>
				<g id="XMLID_582_" class="st29">
					<path id="XMLID_583_" d="M352.2,319.2l-22.8-12.4c0-1.7-0.5-3-1.6-4c-0.3-0.3-0.6-0.5-1-0.7l22.8,12.4c0.3,0.2,0.7,0.4,1,0.7
						C351.6,316.1,352.2,317.5,352.2,319.2"/>
				</g>
			</g>
			<g id="XMLID_577_" class="st6">
				<defs>
					<path id="XMLID_580_" class="st6" d="M326.3,302.9l22.8,12.4c0.3,0.2,0.6,0.4,0.8,0.6c0.9,0.8,1.3,2,1.3,3.4l-22.8-12.4
						c0-1.4-0.4-2.5-1.3-3.4C326.9,303.3,326.6,303.1,326.3,302.9z"/>
				</defs>
				<clipPath id="XMLID_307_">
					<use xlink:href="#XMLID_580_"  style="overflow:visible;"/>
				</clipPath>
				<g id="XMLID_578_" class="st30">
					<path id="XMLID_579_" class="st10" d="M351.3,319.3l-22.8-12.4c0-1.4-0.4-2.5-1.3-3.4c-0.3-0.2-0.5-0.4-0.8-0.6l22.8,12.4
						c0.3,0.2,0.6,0.4,0.8,0.6C350.9,316.8,351.3,317.9,351.3,319.3"/>
				</g>
			</g>
			<g id="XMLID_571_" class="st6">
				<defs>
					<path id="XMLID_576_" class="st6" d="M326.8,302l22.8,12.4c-0.9-0.5-1.9-0.6-3-0.5l-22.8-12.4C325,301.4,326,301.6,326.8,302z"
						/>
				</defs>
				<clipPath id="XMLID_309_">
					<use xlink:href="#XMLID_576_"  style="overflow:visible;"/>
				</clipPath>
				<g id="XMLID_572_" class="st31">
					<path id="XMLID_575_" class="st14" d="M346.7,314l-22.8-12.4c0.7-0.1,1.4-0.1,2,0.1l22.8,12.4C348,313.9,347.4,313.9,346.7,314
						"/>
					<path id="XMLID_574_" class="st15" d="M348.6,314l-22.8-12.4c0.3,0.1,0.6,0.2,0.8,0.3l22.8,12.4
						C349.2,314.2,348.9,314.1,348.6,314"/>
					<path id="XMLID_573_" class="st16" d="M349.5,314.4L326.7,302c0.1,0,0.1,0.1,0.2,0.1l22.8,12.4
						C349.6,314.4,349.5,314.4,349.5,314.4"/>
				</g>
			</g>
			<g id="XMLID_565_" class="st6">
				<defs>
					<path id="XMLID_570_" class="st6" d="M340.8,286.1l22.8,12.4c-1-0.5-2.1-0.9-3.3-1.2c-1.5-0.3-3-0.4-4.6-0.2l-22.8-12.4
						c1.6-0.2,3.1-0.2,4.6,0.2C338.7,285.2,339.8,285.6,340.8,286.1z"/>
				</defs>
				<clipPath id="XMLID_313_">
					<use xlink:href="#XMLID_570_"  style="overflow:visible;"/>
				</clipPath>
				<g id="XMLID_566_" class="st32">
					<path id="XMLID_569_" d="M355.7,297.1l-22.8-12.4c1.6-0.2,3.1-0.2,4.6,0.2c0.2,0,0.4,0.1,0.5,0.1l22.8,12.4
						c-0.2,0-0.4-0.1-0.5-0.1C358.8,297,357.2,296.9,355.7,297.1"/>
					<path id="XMLID_568_" d="M360.8,297.4L338,285c0.8,0.2,1.6,0.5,2.4,0.9l22.8,12.4C362.4,297.9,361.6,297.6,360.8,297.4"/>
					<path id="XMLID_567_" d="M363.1,298.3l-22.8-12.4c0.1,0.1,0.3,0.1,0.4,0.2l22.8,12.4C363.4,298.4,363.3,298.4,363.1,298.3"/>
				</g>
			</g>
			<g id="XMLID_559_" class="st6">
				<defs>
					<path id="XMLID_564_" class="st6" d="M341.3,285.3l22.8,12.4c-1.1-0.6-2.3-1-3.5-1.3c-1.6-0.3-3.2-0.4-4.9-0.2l-22.8-12.4
						c1.7-0.2,3.3-0.2,4.9,0.2C339,284.2,340.2,284.7,341.3,285.3z"/>
				</defs>
				<clipPath id="XMLID_314_">
					<use xlink:href="#XMLID_564_"  style="overflow:visible;"/>
				</clipPath>
				<g id="XMLID_560_" class="st33">
					<path id="XMLID_563_" class="st14" d="M355.7,296.2l-22.8-12.4c1.7-0.2,3.3-0.2,4.9,0.2c0.2,0,0.3,0.1,0.5,0.1l22.8,12.4
						c-0.2,0-0.3-0.1-0.5-0.1C359,296,357.3,295.9,355.7,296.2"/>
					<path id="XMLID_562_" class="st15" d="M361.1,296.5l-22.8-12.4c0.9,0.2,1.8,0.6,2.6,1l22.8,12.4
						C362.8,297,362,296.7,361.1,296.5"/>
					<path id="XMLID_561_" class="st16" d="M363.6,297.4L340.8,285c0.2,0.1,0.3,0.2,0.5,0.2l22.8,12.4
						C363.9,297.6,363.8,297.5,363.6,297.4"/>
				</g>
			</g>
			<g id="XMLID_557_">
				<polygon id="XMLID_558_" class="st7" points="326.3,316.8 303.5,304.4 323.9,301.6 346.7,314 				"/>
			</g>
			<g id="XMLID_555_">
				<polygon id="XMLID_556_" class="st8" points="320.6,361.6 297.8,349.2 297.9,311.2 320.7,323.6 				"/>
			</g>
			<g id="XMLID_544_" class="st6">
				<defs>
					<path id="XMLID_554_" class="st6" d="M320.7,323.6l-22.8-12.4c0-1.7,0.6-3.2,1.6-4.5c1.1-1.3,2.4-2.1,3.9-2.3l22.8,12.4
						c-1.5,0.2-2.9,1-3.9,2.3C321.2,320.4,320.7,321.9,320.7,323.6z"/>
				</defs>
				<clipPath id="XMLID_315_">
					<use xlink:href="#XMLID_554_"  style="overflow:visible;"/>
				</clipPath>
				<g id="XMLID_545_" class="st34">
					<path id="XMLID_553_" class="st10" d="M320.7,323.6l-22.8-12.4c0-0.8,0.1-1.6,0.4-2.4l22.8,12.4
						C320.8,321.9,320.7,322.7,320.7,323.6"/>
					<path id="XMLID_552_" class="st21" d="M321.1,321.2l-22.8-12.4c0.1-0.3,0.2-0.6,0.4-0.9l22.8,12.4
						C321.4,320.6,321.2,320.9,321.1,321.2"/>
					<path id="XMLID_551_" class="st22" d="M321.5,320.3l-22.8-12.4c0.1-0.3,0.3-0.5,0.5-0.7l22.8,12.4
						C321.8,319.8,321.7,320,321.5,320.3"/>
					<path id="XMLID_550_" class="st23" d="M322,319.6l-22.8-12.4c0.1-0.2,0.2-0.3,0.3-0.5c0.1-0.1,0.1-0.1,0.2-0.2l22.8,12.4
						c-0.1,0.1-0.1,0.1-0.2,0.2C322.2,319.3,322.1,319.4,322,319.6"/>
					<path id="XMLID_549_" class="st24" d="M322.5,318.9l-22.8-12.4c0.2-0.2,0.4-0.4,0.6-0.6l22.8,12.4
						C322.9,318.5,322.7,318.7,322.5,318.9"/>
					<path id="XMLID_548_" class="st16" d="M323.1,318.3l-22.8-12.4c0.2-0.2,0.4-0.4,0.6-0.5l22.8,12.4
						C323.5,318,323.3,318.1,323.1,318.3"/>
					<path id="XMLID_547_" class="st15" d="M323.7,317.8l-22.8-12.4c0.3-0.2,0.6-0.4,0.8-0.5l22.8,12.4
						C324.3,317.5,324,317.6,323.7,317.8"/>
					<path id="XMLID_546_" class="st14" d="M324.5,317.3l-22.8-12.4c0.5-0.3,1.1-0.4,1.7-0.5l22.8,12.4
						C325.7,316.9,325.1,317.1,324.5,317.3"/>
				</g>
			</g>
			<g id="XMLID_542_">
				<polygon id="XMLID_543_" class="st7" points="296,365.1 273.2,352.7 297.8,349.2 320.6,361.6 				"/>
			</g>
			<g id="XMLID_540_">
				<polygon id="XMLID_541_" points="311,303.4 288.2,291 332.9,284.7 355.7,297.1 				"/>
			</g>
			<g id="XMLID_538_">
				<polygon id="XMLID_539_" class="st7" points="311,302.5 288.2,290.1 332.9,283.8 355.7,296.2 				"/>
			</g>
			<g id="XMLID_536_">
				<polygon id="XMLID_537_" points="296,365.1 273.2,352.7 273.3,309.1 296.1,321.5 				"/>
			</g>
			<g id="XMLID_534_">
				<polygon id="XMLID_535_" class="st8" points="295.1,366.2 272.3,353.8 272.4,309.3 295.2,321.7 				"/>
			</g>
			<g id="XMLID_523_" class="st6">
				<defs>
					<path id="XMLID_533_" class="st6" d="M296.1,321.5l-22.8-12.4c0-2.2,0.4-4.4,1.2-6.4c0.8-2.1,1.9-3.9,3.2-5.5
						c1.3-1.6,2.9-3,4.7-4.1c1.8-1.1,3.8-1.8,5.8-2.1l22.8,12.4c-2,0.3-4,1-5.8,2.1c-1.8,1.1-3.4,2.5-4.7,4.1
						c-1.3,1.6-2.4,3.5-3.2,5.5C296.5,317.2,296.1,319.3,296.1,321.5z"/>
				</defs>
				<clipPath id="XMLID_316_">
					<use xlink:href="#XMLID_533_"  style="overflow:visible;"/>
				</clipPath>
				<g id="XMLID_524_" class="st35">
					<path id="XMLID_532_" d="M296.1,321.5l-22.8-12.4c0-2.1,0.4-4.2,1.1-6.2l22.8,12.4C296.5,317.4,296.1,319.4,296.1,321.5"/>
					<path id="XMLID_531_" d="M297.2,315.4L274.4,303c0-0.1,0.1-0.2,0.1-0.2c0.3-0.8,0.7-1.7,1.1-2.4l22.8,12.4
						c-0.4,0.8-0.8,1.6-1.1,2.4C297.3,315.2,297.2,315.3,297.2,315.4"/>
					<path id="XMLID_530_" d="M298.4,312.7l-22.8-12.4c0.4-0.7,0.8-1.3,1.2-2l22.8,12.4C299.2,311.3,298.8,312,298.4,312.7"/>
					<path id="XMLID_529_" d="M299.6,310.7l-22.8-12.4c0.3-0.4,0.6-0.8,0.8-1.1c0.1-0.2,0.3-0.3,0.4-0.5l22.8,12.4
						c-0.1,0.2-0.3,0.3-0.4,0.5C300.2,310,299.9,310.3,299.6,310.7"/>
					<path id="XMLID_528_" d="M300.9,309.1l-22.8-12.4c0.5-0.5,1-1,1.5-1.5l22.8,12.4C301.9,308.1,301.4,308.6,300.9,309.1"/>
					<path id="XMLID_527_" d="M302.4,307.6l-22.8-12.4c0.6-0.5,1.2-1,1.9-1.5l22.8,12.4C303.6,306.6,303,307.1,302.4,307.6"/>
					<path id="XMLID_526_" d="M304.3,306.1l-22.8-12.4c0.3-0.2,0.6-0.4,0.9-0.6c0.5-0.3,1-0.6,1.5-0.8l22.8,12.4
						c-0.5,0.2-1,0.5-1.5,0.8C304.9,305.7,304.6,305.9,304.3,306.1"/>
					<path id="XMLID_525_" d="M306.7,304.7l-22.8-12.4c1.4-0.6,2.8-1.1,4.3-1.3l22.8,12.4C309.5,303.6,308.1,304.1,306.7,304.7"/>
				</g>
			</g>
			<g id="XMLID_519_">
				<path id="XMLID_520_" class="st36" d="M432.5,295.7c0.8,1.9,1.3,4.1,1.3,6.5l-0.1,44.5l-26.4,3.7l0.1-39c0-1.4-0.4-2.5-1.3-3.4
					c-0.9-0.8-2-1.2-3.3-1l-20.4,2.9c-1.3,0.2-2.4,0.8-3.3,1.9c-0.9,1.1-1.3,2.3-1.4,3.8l-0.1,39l-26.4,3.7l0.1-39
					c0-1.4-0.4-2.5-1.3-3.4c-0.9-0.8-2-1.2-3.3-1l-20.4,2.9c-1.3,0.2-2.4,0.8-3.3,1.9c-0.9,1.1-1.4,2.3-1.4,3.8l-0.1,39l-26.4,3.7
					l0.1-44.5c0-2.3,0.4-4.6,1.3-6.8c0.8-2.2,2-4.2,3.4-5.9c1.4-1.7,3.1-3.2,5-4.3c1.9-1.2,4-1.9,6.1-2.2l44.7-6.3
					c1.7-0.2,3.3-0.2,4.9,0.2c1.5,0.3,2.8,0.9,4,1.6c1.3-1.1,2.6-2,4-2.7c1.5-0.8,3.2-1.3,4.9-1.5l44.6-6.3c2.2-0.3,4.2-0.1,6.1,0.5
					c1.9,0.6,3.6,1.6,5,2.9C430.6,292.1,431.7,293.8,432.5,295.7z M432.8,345.9l0.1-43.5c0-2.2-0.4-4.2-1.2-6.1
					c-0.8-1.8-1.8-3.4-3.2-4.6c-1.3-1.2-2.9-2.2-4.7-2.8c-1.8-0.6-3.8-0.8-5.8-0.5l-44.6,6.3c-1.6,0.2-3.2,0.7-4.6,1.4
					c-1.5,0.7-2.8,1.7-4.1,2.8c-1.7-0.7-3-1.2-4.5-1.6c-1.5-0.3-3-0.4-4.6-0.2l-44.7,6.3c-2,0.3-4,1-5.8,2.1
					c-1.8,1.1-3.4,2.5-4.7,4.1s-2.4,3.5-3.2,5.5c-0.8,2.1-1.2,4.2-1.2,6.4l-0.1,43.5l24.6-3.5l0.1-38c0-1.7,0.6-3.2,1.6-4.5
					c1.1-1.3,2.4-2.1,3.9-2.3l20.4-2.9c1.5-0.2,2.9,0.2,3.9,1.2c1.1,1,1.6,2.4,1.6,4l-0.1,38l24.6-3.5l0.1-38c0-1.7,0.5-3.2,1.6-4.5
					c1.1-1.3,2.4-2.1,3.9-2.3l20.4-2.9c1.5-0.2,2.9,0.2,3.9,1.2c1.1,1,1.6,2.4,1.6,4l-0.1,38L432.8,345.9"/>
			</g>
			<g id="XMLID_517_">
				<path id="XMLID_518_" d="M418.1,288.4c2-0.3,4-0.1,5.8,0.5c1.8,0.6,3.4,1.5,4.7,2.8c1.3,1.2,2.4,2.8,3.2,4.6
					c0.8,1.8,1.2,3.9,1.2,6.1l-0.1,43.5l-24.6,3.5l0.1-38c0-1.7-0.5-3-1.6-4c-1.1-1-2.4-1.4-3.9-1.2l-20.4,2.9
					c-1.5,0.2-2.9,1-3.9,2.3c-1.1,1.3-1.6,2.8-1.6,4.5l-0.1,38l-24.6,3.5l0.1-38c0-1.7-0.5-3-1.6-4c-1.1-1-2.4-1.4-3.9-1.2
					l-20.4,2.9c-1.5,0.2-2.9,1-3.9,2.3c-1.1,1.3-1.6,2.8-1.6,4.5l-0.1,38l-24.6,3.5l0.1-43.5c0-2.2,0.4-4.4,1.2-6.4
					c0.8-2.1,1.9-3.9,3.2-5.5c1.3-1.6,2.9-3,4.7-4.1c1.8-1.1,3.8-1.8,5.8-2.1l44.7-6.3c1.6-0.2,3.1-0.2,4.6,0.2
					c1.5,0.3,2.8,0.9,4,1.6c1.8-1.2,3.1-2.1,4.6-2.8c1.4-0.7,3-1.2,4.6-1.4L418.1,288.4z"/>
			</g>
			<g id="XMLID_327_" class="st6">
				<defs>
					<path id="XMLID_516_" class="st6" d="M295.2,321.7l-22.8-12.4c0-2.3,0.4-4.6,1.3-6.8c0.8-2.2,2-4.2,3.4-5.9
						c1.4-1.7,3.1-3.2,5-4.3c1.9-1.2,4-1.9,6.1-2.2l22.8,12.4c-2.2,0.3-4.2,1.1-6.1,2.2c-1.9,1.2-3.6,2.6-5,4.3
						c-1.4,1.7-2.5,3.7-3.4,5.9C295.6,317,295.2,319.3,295.2,321.7z"/>
				</defs>
				<clipPath id="XMLID_321_">
					<use xlink:href="#XMLID_516_"  style="overflow:visible;"/>
				</clipPath>
				<g id="XMLID_328_" class="st37">
					<path id="XMLID_515_" class="st10" d="M295.2,321.7l-22.8-12.4c0-2.2,0.4-4.4,1.2-6.5l22.8,12.4
						C295.6,317.2,295.2,319.4,295.2,321.7"/>
					<path id="XMLID_514_" class="st21" d="M296.4,315.1l-22.8-12.4c0-0.1,0.1-0.2,0.1-0.3c0.3-0.9,0.7-1.7,1.2-2.6l22.8,12.4
						c-0.4,0.8-0.8,1.7-1.2,2.6C296.4,314.9,296.4,315,296.4,315.1"/>
					<path id="XMLID_513_" class="st22" d="M297.7,312.3l-22.8-12.4c0.4-0.7,0.8-1.4,1.3-2.1l22.8,12.4
						C298.5,310.9,298,311.6,297.7,312.3"/>
					<path id="XMLID_512_" class="st23" d="M298.9,310.2l-22.8-12.4c0.3-0.4,0.6-0.8,0.9-1.2c0.1-0.2,0.3-0.4,0.5-0.5l22.8,12.4
						c-0.2,0.2-0.3,0.4-0.5,0.5C299.5,309.4,299.2,309.8,298.9,310.2"/>
					<path id="XMLID_511_" class="st24" d="M300.3,308.5l-22.8-12.4c0.5-0.6,1-1.1,1.6-1.6l22.8,12.4
						C301.3,307.4,300.8,307.9,300.3,308.5"/>
					<path id="XMLID_510_" class="st16" d="M301.9,306.9l-22.8-12.4c0.6-0.6,1.3-1.1,2-1.6l22.8,12.4
						C303.2,305.8,302.5,306.3,301.9,306.9"/>
					<path id="XMLID_330_" class="st15" d="M303.9,305.3l-22.8-12.4c0.3-0.2,0.6-0.4,1-0.6c0.5-0.3,1-0.6,1.6-0.9l22.8,12.4
						c-0.5,0.3-1.1,0.5-1.6,0.9C304.5,304.9,304.2,305.1,303.9,305.3"/>
					<path id="XMLID_329_" class="st14" d="M306.4,303.8l-22.8-12.4c1.5-0.7,3-1.1,4.6-1.4l22.8,12.4
						C309.4,302.7,307.9,303.1,306.4,303.8"/>
				</g>
			</g>
		</g>
	</g>
</g>
</svg>
