<?xml version="1.0" encoding="utf-8"?>
<!-- Generator: Adobe Illustrator 19.0.0, SVG Export Plug-In . SVG Version: 6.00 Build 0)  -->
<svg version="1.1" id="Layer_1" xmlns="http://www.w3.org/2000/svg" xmlns:xlink="http://www.w3.org/1999/xlink" x="0px" y="0px"
	 viewBox="0 0 960 560" style="enable-background:new 0 0 960 560;" xml:space="preserve">
<g id="XMLID_1_">
	<g id="XMLID_13_">
		<path id="XMLID_17_" d="M140.5,125.8c-2,7-9.4,10.8-16.3,8.8c1.3,1.3,2.7,2.7,4,4c-1.8-12.1,2.1-24.7,9.3-34.5
			c7.1-9.5,19.7-18.6,32.2-17.5c15.8,1.5,17.3,24.4,15.8,36.4c-1.9,15.5-8.7,30.2-15.6,44c-8.2,16.3-17.8,31.9-28.6,46.6
			c3.5,0.9,6.9,1.9,10.4,2.8c-0.7-43.8,17.3-86.9,48.3-117.8c7.6-7.6,16.1-14.8,25.3-20.4c7.3-4.5,17.5-9,26.2-6.1
			c11.2,3.7,9.6,17.8,8.4,27c-1.4,11.6-4.2,23.1-7.9,34.2c-8.4,24.9-22.2,47.6-40.5,66.4c3.2,1.3,6.4,2.7,9.7,4
			c-1.1-27.5,5.4-54.7,18.9-78.6c6.7-11.8,14.9-22.7,24.6-32.2c7.7-7.5,23.1-21,34.2-12.2c9.4,7.5,6.5,24,3.4,33.8
			c-3.8,11.8-10.3,22.5-16,33.4c-5.5,10.6-10.9,21.7-12.7,33.5c-1.7,10.5-0.9,27,13.7,26.3c6.7-0.3,12.9-4.7,17.5-9.3
			c6.2-6.3,11.9-13.1,17.6-19.9c11.3-13.6,21.9-27.8,31.4-42.7c3.2-5-3.9-10.1-8-6.2c-10.8,10.2-19.7,22.3-25.7,35.9
			c-3,6.8-6.5,14.7-4.6,22.3c1.4,5.5,5.8,9.6,10.9,11.8c12.5,5.1,24.4-1.7,31.6-12c7.6-10.8,9.8-27.6,21.7-34.9
			c10.5-6.5,26.3-3.6,33.3,6.8c2.1-2.7,4.2-5.4,6.3-8.2c-14-5.6-30.9-4-42.9,5.5c-11.1,8.8-16,24.4-12.1,38
			c4,13.9,16.7,22.1,30.7,23.1c14.4,1,29.1-4.7,41.3-11.9c28.7-16.9,56.1-42,72.1-71.6c4-7.3,7-15.2,8.2-23.4c1-7,1.8-17.3-4.5-22.1
			c-13-9.8-28.9,10.5-34.9,19.9c-21.9,34.5-14.2,77-23.7,114.9c3.9,0.5,7.8,1.1,11.7,1.6c-0.7-16.4,4.1-32.6,13.7-46
			c2.7-3.7,13.9-17.7,15.6-6.9c1.3,8-1.2,16.8-1.4,24.8c-0.2,7.9,0.9,16.8,5.8,23.3c6.2,8.1,14.5,3.8,20.9-1.5
			c13.1-10.8,20.3-26.8,31.8-39c5.7-6.1,12.8-11.7,21.3-12.8c7.3-0.9,15.5,1.3,19.5,7.8c3.1-2.4,6.1-4.7,9.2-7.1
			c-10.8-10.4-27.3-9.6-39-1.1c-11.6,8.4-23.4,25.9-18.4,40.8c2.2,6.5,7.2,12.1,14.1,13.8c7.6,1.8,14.9-2.2,20.1-7.4
			c11.3-11.2,18.7-27,22-42.4c1.4-6.6-7.1-10.3-10.8-4.6c-7.2,11.2-7,25.8-0.7,37.3c6.8,12.4,20.4,19.2,34.3,18.9
			c14.5-0.3,27.6-7.9,35.4-20.1c6.9-10.7,11.6-29.4,4.8-41.3c-7.6-13.3-25.6-6.9-33.1,2.7c-7.8,9.9-9.4,24-5.3,35.8
			c10,28.9,45.7,34.2,70.9,23.7c14.5-6.1,27-16.2,37.9-27.4c11.1-11.3,20.9-24.1,28.4-38.1c7.3-13.8,12.3-28.8,13.7-44.4
			c1.2-13.8,0.6-32.3-11.6-41.3c-10.9-8-25.9-5.3-37.3,0c-12.7,5.9-23.7,16.1-32.2,27.1c-17.4,22.7-24.8,52.3-18.9,80.4
			c5.8,27.6,24.3,52.5,48.8,66.3c29.9,16.8,65.2,14.7,97.8,8.7c8.6-1.6,17.2-3.5,25.7-5.4c7.5-1.7,4.3-13.2-3.2-11.5
			c-27.3,6.1-56,12.5-84,8c-24.1-3.9-45.6-16.7-59.5-36.9c-13.1-19-18.8-42.3-14.2-65.1c4.6-22.6,17.8-43.7,37.1-56.5
			c8-5.3,18.9-10.5,28.6-7.5c11.6,3.4,11.5,19.1,11.2,28.9c-0.8,25.7-13.7,49.9-30,69.1c-15.4,18.3-36.7,38.2-62.1,38.9
			c-10.9,0.3-22.2-2.9-29.9-10.9c-6.8-7.1-9.2-18-6.4-27.4c1.4-4.8,4.6-9.6,9.2-11.8c1.8-0.9,4.8-1.8,6.8-0.8
			c2.6,1.3,2.5,6.2,2.6,8.7c0.3,12.3-5.4,25.3-16.2,31.8c-10.4,6.2-25.3,6-34.4-2.6c-8.5-8-10.3-21.6-4-31.4
			c-3.6-1.5-7.2-3-10.8-4.6c-2.2,10.4-6.2,20.1-12.2,28.9c-4.2,6.1-16.3,20.5-21.4,7.1c-3.6-9.4,5.6-21.4,12.4-27
			c7.1-5.9,18.1-8.2,25.4-1.2c4.7,4.5,13-1.4,9.2-7.1c-9-13.7-27.2-16.5-41.6-10.2c-17.6,7.8-26.8,25.4-38.1,39.9
			c-2.7,3.4-5.6,6.8-8.8,9.7c-1.2,1.1-4.2,4.4-5.7,4.2c-1.6-0.2-2.5-4.4-2.9-5.9c-2.3-9.6,0.2-19.8,0.5-29.5
			c0.2-7.5-1.5-16.7-9.5-19.7c-9.3-3.4-17.4,4-23,10.5c-13.8,15.8-21.1,36.2-20.1,57.1c0.3,6.5,10,8.3,11.7,1.6
			c7.2-29,4.2-59.4,12.1-88.2c3.4-12.2,8.8-24.2,17.7-33.4c2-2.1,4.2-4.4,6.7-5.8c0.6-0.3,2.8-1.7,3.6-1.2c-0.6-0.4,3.9,7.8,0.2,1.2
			c1.2,2.2,0.2,7.7-0.2,10c-0.6,3.8-1.7,7.6-3.1,11.2c-5.1,13.1-14.2,24.8-23.4,35.2c-9.2,10.5-19.5,20.2-30.7,28.5
			c-9.9,7.4-20.6,14.6-32.3,18.7c-10.1,3.5-22.8,6-32.4-0.3c-11-7.2-11.6-23.2-4-33.2c8.7-11.2,24.8-12.4,37.1-7.5
			c4.5,1.8,8.9-4.3,6.3-8.2c-12.6-18.6-41.8-21.2-56.5-3.5c-8.4,10.2-10.6,24.3-19.5,34.1c-3.7,4.1-8.7,7-14.4,5.6
			c-6.7-1.6-7.1-6.8-5.3-12.7c4.9-15.4,14.3-29.5,26.1-40.5c-2.7-2.1-5.3-4.1-8-6.2c-9.2,13.3-18.7,26.3-29.1,38.7
			c-5.1,6.1-10.4,12.1-15.9,18c-2.5,2.7-9.9,11.5-14.5,9c-3.9-2.1-1.1-13.4-0.3-16.8c1.4-5.9,3.6-11.6,6.1-17.1
			c5.3-11.3,11.8-21.9,16.8-33.4c4.7-11,8.3-22.9,7-35c-1.2-12.1-7.9-24.1-21-25.9c-13.1-1.8-25.4,6.7-34.5,15.1
			c-10,9.2-18.8,20-26,31.6c-16.4,26.3-25.1,57.7-23.8,88.8c0.2,4.8,6.1,7.6,9.7,4c18.5-19,32.7-41.9,41.6-66.8
			c4.4-12.2,7.2-24.9,8.8-37.7c1.4-11.4,2.9-25.1-5.6-34.3c-16.4-17.8-44.2-0.4-58.5,10.9c-19,15.1-34.7,34.6-45.8,56.2
			c-12.8,24.8-19.7,52.5-19.5,80.5c0,5.9,7.2,7,10.4,2.8c11.6-15.6,21.8-32.3,30.3-49.8c8.2-16.8,15.8-35.1,15.7-54.2
			c-0.1-15.7-6.4-36.1-24.2-38.9c-15.4-2.4-31.3,6.4-41.2,17.7c-11.5,13.2-16.7,30.2-14.4,47.5c0.3,2,2.3,3.5,4,4
			c12.8,4,26.9-4,30.4-16.9C153.5,121.7,142.5,118.7,140.5,125.8L140.5,125.8z"/>
	</g>
</g>
</svg>
