<?xml version="1.0" encoding="utf-8"?>
<!-- Generator: Adobe Illustrator 19.0.0, SVG Export Plug-In . SVG Version: 6.00 Build 0)  -->
<svg version="1.1" id="Layer_1" xmlns="http://www.w3.org/2000/svg" xmlns:xlink="http://www.w3.org/1999/xlink" x="0px" y="0px"
	 viewBox="0 0 301 301" style="enable-background:new 0 0 301 301;" xml:space="preserve">
<style type="text/css">
	.st0{fill:none;}
	.st1{fill:url(#XMLID_25_);stroke:#000000;stroke-miterlimit:10;}
	.st2{fill:#FFFF00;}
	.st3{fill:#1B1464;stroke:#000000;stroke-miterlimit:10;}
	.st4{fill:url(#XMLID_26_);stroke:#000000;stroke-miterlimit:10;}
	.st5{fill:url(#export);}
</style>
<pattern  x="-3.3" y="1.5" width="100" height="100" patternUnits="userSpaceOnUse" id="export" viewBox="0 -119.7 100 100" style="overflow:visible;">
	<g id="XMLID_12_">
		<polygon id="XMLID_29_" class="st0" points="0,-119.7 100,-119.7 100,-19.7 0,-19.7 		"/>
		<g id="XMLID_27_">
			
				<linearGradient id="XMLID_25_" gradientUnits="userSpaceOnUse" x1="30.28" y1="-16085.5312" x2="-3.6913" y2="-16036.249" gradientTransform="matrix(1 0 0 -1 0 -16082)">
				<stop  offset="0" style="stop-color:#FF0000"/>
				<stop  offset="0.181" style="stop-color:#880077"/>
				<stop  offset="0.2266" style="stop-color:#7A1174"/>
				<stop  offset="0.4523" style="stop-color:#396066"/>
				<stop  offset="0.6128" style="stop-color:#10925D"/>
				<stop  offset="0.6917" style="stop-color:#00A55A"/>
				<stop  offset="0.7236" style="stop-color:#007B84"/>
				<stop  offset="0.7618" style="stop-color:#004FB0"/>
				<stop  offset="0.7988" style="stop-color:#002DD2"/>
				<stop  offset="0.8337" style="stop-color:#0014EB"/>
				<stop  offset="0.8656" style="stop-color:#0005FA"/>
				<stop  offset="0.8918" style="stop-color:#0000FF"/>
				<stop  offset="0.9045" style="stop-color:#0027D8"/>
				<stop  offset="0.9312" style="stop-color:#00738C"/>
				<stop  offset="0.9551" style="stop-color:#00AF50"/>
				<stop  offset="0.9752" style="stop-color:#00DA25"/>
				<stop  offset="0.9908" style="stop-color:#00F50A"/>
				<stop  offset="1" style="stop-color:#00FF00"/>
			</linearGradient>
			<path id="XMLID_28_" class="st1" d="M24.4-18.2c0,9.8-4.1,17.7-9.1,17.7S6.2-8.4,6.2-18.2s4.1-17.7,9.1-17.7S24.4-28,24.4-18.2z"
				/>
		</g>
		<g id="XMLID_13_">
			<g id="XMLID_16_">
				<path id="XMLID_24_" class="st2" d="M61.2-44.7H44.8c-9.3,0-16.8-7.5-16.8-16.8v-16.4c0-9.3,7.5-16.8,16.8-16.8h16.4
					c9.3,0,16.8,7.5,16.8,16.8v16.4C78-52.2,70.5-44.7,61.2-44.7z"/>
				<path id="XMLID_17_" d="M61.2-36c0,0-0.7,0-1.9,0c-0.6,0-1.4,0-2.3,0c-0.9,0-2,0-3.1-0.1c-2.3-0.1-5.2-0.2-8.4-0.2l-0.6,0
					c-0.3,0-0.7,0-1.1,0l-0.6,0l-0.3,0l-0.2,0l-0.3,0c-0.8-0.1-1.5-0.1-2.3-0.3c-0.8-0.1-1.4-0.2-2.1-0.4c-2.7-0.6-5.5-1.6-8.3-3.2
					c-2.7-1.6-5.4-3.6-7.7-6.3c-2.3-2.7-4.3-6-5.5-9.8c-0.3-1-0.6-1.9-0.7-2.9l-0.3-1.5l-0.1-0.8l-0.1-0.5c-0.2-1.2-0.4-2.4-0.5-3.6
					c-0.3-2.4-0.5-4.9-0.5-7.4c0-1.3,0-2.5,0-3.8l0-1l0-0.2l0-0.8l0-0.1l0-0.5l0.1-1l0-0.4l0.1-0.5l0.1-1.1c0.1-0.7,0.2-1.5,0.4-2.1
					l0.5-1.7c0.3-1.1,0.8-2.2,1.2-3.3c0.5-1.1,1-2.1,1.6-3.2c0.6-1,1.2-2,2-2.9c2.8-3.7,6.6-6.8,10.8-8.8c4.2-2,9-2.9,13.5-2.6
					c5.3,0.5,10.7,1.1,16,1.7l0.2,0l0.1,0l0.1,0c-0.4,0,0.7,0,0.6,0l0.5,0.1l1,0.2l0.7,0.1l0.9,0.2c0.6,0.1,1.2,0.3,1.8,0.4
					c2,0.6,3.9,1.4,5.7,2.4c3.5,2,6.5,4.7,8.7,7.8c2.2,3.1,3.6,6.6,4.3,10.2c0.3,1.8,0.5,3.5,0.4,5.2l0,0.6l0,0.4l-0.1,0.9
					c0,0.6-0.1,1.2-0.1,1.7c-0.2,2.3-0.3,4.5-0.4,6.7c-0.1,2.2-0.2,4.3-0.2,6.3l0,0.4l0,0.4l0,0.1l0,0.2l0,0.7l0,0.4
					c0,0.1,0,0.2,0,0.4c0,0.4-0.1,0.8-0.1,1.2c-0.1,0.4-0.1,0.8-0.2,1.2c-0.1,0.4-0.1,0.7-0.2,1c-0.2,0.6-0.3,1.3-0.5,1.9
					c-0.7,2.5-1.8,4.8-3,6.8c-2.5,4-5.9,6.8-8.9,8.4c-3.1,1.7-5.9,2.3-7.7,2.6c-0.9,0.1-1.7,0.2-2.2,0.2C61.5-36,61.2-36,61.2-36z
					 M61.2-53.4c0,0,0.3,0,0.9,0c0.3,0,0.7,0,1.1-0.1c0.2,0,0.5,0,0.7-0.1c0.3-0.1,0.5-0.1,0.8-0.2c1.1-0.3,2.6-0.9,3.9-2.2
					c0.6-0.6,1.3-1.4,1.7-2.4c0.1-0.2,0.2-0.5,0.3-0.8c0-0.1,0.1-0.3,0.1-0.4c0-0.1,0-0.2,0.1-0.3c0-0.1,0-0.2,0.1-0.3
					c0,0,0-0.2,0-0.3l0-0.4l0-0.7l0-0.2l0-0.1l0,0c0-0.3,0,0.4,0,0.3l0-0.4c0-2-0.1-4.1-0.2-6.3c-0.1-2.2-0.2-4.4-0.4-6.7
					c0-0.6-0.1-1.2-0.1-1.7l-0.1-0.9l0-0.4c0-0.1,0-0.2-0.1-0.3c-0.1-0.6-0.3-1.3-0.5-1.8c-0.5-1.2-1.2-2.2-2.2-3
					c-0.9-0.8-2.1-1.3-3.2-1.5c-0.5-0.1-1.1-0.1-1.7-0.1c-0.1,0-0.1,0.1-0.1,0.1c0,0,0,0,0,0l0,0l-0.2,0l-1,0.1l-0.5,0
					c-0.1,0,0.9,0,0.5,0l-0.1,0l-0.1,0l-0.2,0c-5.3,0.6-10.6,1.2-16,1.7c-0.8,0.3-1.4,0.7-1.9,1.1c-0.1,0.1-0.2,0.3-0.3,0.4
					c-0.1,0.2-0.2,0.2-0.3,0.4c-0.1,0.1-0.2,0.2-0.2,0.4c-0.1,0.1-0.1,0.3-0.2,0.4c-0.1,0.1-0.1,0.3-0.1,0.4c0,0.1-0.1,0.3-0.1,0.4
					c0,0.1-0.1,0.2,0,0.4c0,0.1,0,0.1,0,0.2c0,0,0.1-0.1,0.1-0.1c0,0,0-0.1,0-0.1l0-0.1l0,0l0,0.1l0,1l0,0.5l0,0.1
					c0,0.6,0-0.8,0-0.6l0,0.1l0,0.2l0,1c0,1.3,0.1,2.5,0,3.8c0,2.5-0.2,5-0.5,7.4c-0.2,1.2-0.3,2.4-0.5,3.6l-0.1,0.4
					c0,0,0,0.1-0.1,0.1l-0.2,0.2c-0.1,0.2-0.2,0.3-0.3,0.5c-0.3,0.7-0.6,1.6-0.5,2.5c0.1,0.9,0.4,1.9,1,2.6c0.6,0.8,1.3,1.3,2.1,1.7
					c0.2,0.1,0.4,0.2,0.6,0.2c0.1,0,0.2,0.1,0.3,0.1l0,0l0.2,0l0.3,0l0.6,0.1l0.3,0l0.2,0l0.1,0l0,0c0.1,0-0.8,0-0.4,0l0.6,0
					c3.3,0,6.1-0.2,8.4-0.2c1.2-0.1,2.2-0.1,3.1-0.1c0.9,0,1.7,0,2.3,0C60.5-53.5,61.2-53.4,61.2-53.4z"/>
			</g>
			<polygon id="XMLID_15_" class="st3" points="58.2,-63.3 50.2,-64.7 47.4,-72.3 52.6,-78.5 60.6,-77.1 63.4,-69.5 			"/>
			
				<linearGradient id="XMLID_26_" gradientUnits="userSpaceOnUse" x1="30.28" y1="-15985.5312" x2="-3.6913" y2="-15936.249" gradientTransform="matrix(1 0 0 -1 0 -16082)">
				<stop  offset="0" style="stop-color:#FF0000"/>
				<stop  offset="0.181" style="stop-color:#880077"/>
				<stop  offset="0.2266" style="stop-color:#7A1174"/>
				<stop  offset="0.4523" style="stop-color:#396066"/>
				<stop  offset="0.6128" style="stop-color:#10925D"/>
				<stop  offset="0.6917" style="stop-color:#00A55A"/>
				<stop  offset="0.7236" style="stop-color:#007B84"/>
				<stop  offset="0.7618" style="stop-color:#004FB0"/>
				<stop  offset="0.7988" style="stop-color:#002DD2"/>
				<stop  offset="0.8337" style="stop-color:#0014EB"/>
				<stop  offset="0.8656" style="stop-color:#0005FA"/>
				<stop  offset="0.8918" style="stop-color:#0000FF"/>
				<stop  offset="0.9045" style="stop-color:#0027D8"/>
				<stop  offset="0.9312" style="stop-color:#00738C"/>
				<stop  offset="0.9551" style="stop-color:#00AF50"/>
				<stop  offset="0.9752" style="stop-color:#00DA25"/>
				<stop  offset="0.9908" style="stop-color:#00F50A"/>
				<stop  offset="1" style="stop-color:#00FF00"/>
			</linearGradient>
			<path id="XMLID_14_" class="st4" d="M24.4-118.2c0,9.8-4.1,17.7-9.1,17.7s-9.1-7.9-9.1-17.7s4.1-17.7,9.1-17.7
				S24.4-128,24.4-118.2z"/>
		</g>
	</g>
</pattern>
<rect id="XMLID_1_" x="0.5" y="0.5" class="st5" width="300" height="300"/>
</svg>
