<?xml version="1.0" encoding="utf-8"?>
<!-- Generator: Adobe Illustrator 19.0.0, SVG Export Plug-In . SVG Version: 6.00 Build 0)  -->
<svg version="1.1" id="Layer_1" xmlns="http://www.w3.org/2000/svg" xmlns:xlink="http://www.w3.org/1999/xlink" x="0px" y="0px"
	 viewBox="0 0 1023.7 179.6" style="enable-background:new 0 0 1023.7 179.6;" xml:space="preserve">
<style type="text/css">
	.st0{fill:none;stroke:#FF0000;stroke-width:3;stroke-miterlimit:10;}
</style>
<path id="XMLID_3_" class="st0" d="M11.8,38.5C18.4,28,28.2,19.7,39.6,14.9c4.3-1.8,9.9-2.9,13.1,0.6c3.5,3.8,1.3,9.9-1.5,14.2
	C40.3,46.1,22.5,57.8,3,61.1c11.3-18.9,28.7-34.1,49-42.7c2.5-1,5.1-2,7.8-1.7c7.6,0.9,10.1,10.8,9.6,18.5
	c-1.8,27.6-18.1,53.9-42,67.8c24.4-42.6,63-76.9,108.1-96.2c3.2-1.4,7.2-2.5,9.8-0.3c3.5,2.9,1.4,8.5-1,12.4
	c-13.4,21.9-27.5,43.4-42.2,64.5c21.9-27.6,44.5-55.8,74.8-73.8c3.8-2.2,9.1-4.2,12.2-1.1c3.1,3.1,1.4,8.3-0.7,12.1
	c-12,23.1-27,45-34,70c-1.1,4-1.5,9.4,2.1,11.4c3.6,2,7.8-0.9,10.8-3.6c20.4-18.4,40.2-37.4,59.5-57c-17.9,20.4-36.7,42.7-39.2,69.7
	c9.5-10.7,18.9-21.3,28.4-32c4.1-4.6,9.3-9.7,15.4-8.8c7.4,1,12.6,10.3,19.9,8.9c-2.7-4.7-9.8-3-14.3-0.1c-9.3,5.8-17,14-22.3,23.6
	c-1.6,3-3,6.3-2.4,9.6c0.9,4.8,6.1,7.8,11,8c4.9,0.1,9.5-2,13.8-4.3c34.2-17.8,62.9-45.9,81.3-79.8c3.6-6.7,6.6-15.7,1.3-21.2
	c-24.2,35.4-42.4,74.8-53.5,116.2c3.9-18,14.1-34.6,28.3-46.3c1.6-1.3,3.4-2.6,5.5-2.5c4.7,0.2,5.8,6.6,5.5,11.3
	c-0.4,6.3-0.8,12.7-1.2,19c-0.3,5.5,1.1,12.9,6.6,13c2,0,3.8-1.1,5.4-2.3c11.2-8.3,19.1-20.2,28.6-30.4c9.5-10.2,22.1-19.2,36-18.6
	c-19.9,1-38.8,12.9-48.4,30.3c-1.2,2.2-2.3,4.7-1.9,7.2c1.2,6.9,11.3,6.9,17.8,4.3c19.1-7.6,35.6-21.6,46.1-39.3
	c-6.2,5.5-12.6,11.2-15.5,19c-2.9,7.7-1,17.9,6.4,21.7c4.1,2.1,9.1,1.8,13.7,0.9c20.5-3.8,38.8-17.9,47.7-36.7
	c1.5-3.2,2.8-7,1.2-10.2c-3.1-6.1-12.3-3.7-18.1,0c-10.4,6.8-20.8,18.5-16.8,30.3c2.5,7.5,10.5,12.3,18.4,13.1s15.8-1.6,23.2-4.5
	C492.6,96,524.8,67.6,544,32c4.7-8.7,7.8-21.4-0.4-27c-6.4-4.4-15.2-0.7-21.5,3.9c-12.9,9.3-23.4,22.5-27.9,37.8s-2.8,32.7,6.1,45.9
	c8.6,12.7,22.8,20.7,37.6,24.7c14.8,4,30.3,4.3,45.6,4.7"/>
<path id="XMLID_10_" class="st0" d="M620.5,24.9c-1.6,0.9-1,3.3,0.2,4.7c5.6,7,16.5,6.2,24.9,3.2c10.3-3.6,19.7-9.5,27.5-17
	c2.7-2.6,5.1-7,2.5-9.6c-8.8,8.4-12.4,21-14.2,33.1c-1.7,12.1-2,24.5-5.9,36.1c-5.4,16.4-19.9,31-37.1,31.4
	c-6.9,0.2-15.1-3.4-15.5-10.3c-0.3-5.2,4.5-9.6,9.6-10.6s10.4,0.9,15,3.2c9.1,4.5,17.1,10.8,25.9,15.7s19.3,8.1,29.1,5.6"/>
<path id="XMLID_19_" class="st0" d="M741,80.7c1.2-5-3.9-9.9-9.1-10.1c-5.2-0.3-9.9,2.8-13.8,6.3c-5.3,4.8-9.6,10.7-12.5,17.2
	c-1.5,3.2-2.6,6.7-2.4,10.3c0.3,3.5,2.2,7.1,5.4,8.5c4.3,1.9,9.3-0.5,13.1-3.4c8.9-7,15-17.4,16.7-28.6c-0.9,6.9-1.9,14-0.7,20.9
	c1.2,6.9,4.9,13.7,11.2,16.9c4.7,2.4,10.3,2.5,15.6,2"/>
<path id="XMLID_4_" class="st0" d="M825,32.3c2.9,4.8,0.9,11.5-3.4,15.2c-4.3,3.7-10.2,4.8-15.9,4.8c-3.8,0-7.7-0.5-11-2.4
	c-3.3-1.9-5.8-5.5-5.6-9.3c0.2-3.6,2.6-6.7,5.3-9.1c7-6.6,15.9-10.8,25-13.7c9.5-3,20.5-4.6,29.1,0.5c8.7,5.1,12.9,15.8,12.3,25.9
	s-5,19.4-10.3,28c-9.7,15.7-22.3,29.5-37.1,40.5"/>
<path id="XMLID_5_" class="st0" d="M907.2,19.9c-13.3,31.9-26.5,63.8-39.8,95.7c-6.8-14.3-16.5-27.2-28.3-37.6
	c26.2,8.5,53.9,17.2,81,12c-9.9,7.3-19.8,14.7-29.7,22c-3,2.2-6.1,4.6-7.4,8.1c-1.3,3.5,0.3,8.3,3.9,9c2,0.4,4-0.5,5.7-1.5
	c12.5-7.1,20.1-22,18.4-36.2c-1.8,7.3-5.4,14.1-6.1,21.6c-0.7,7.5,2.9,16.2,10.2,17.9c7.7,1.7,14.6-5.1,18.4-12
	c3.8-6.9,6.5-15,13-19.3c0.8-0.5,1.7-1,2.7-1.1c3.9-0.3,4.9,5.4,4.5,9.3c-0.9,7.4-1.8,14.7-2.7,22.1c-0.2,1.3-0.3,2.6,0.2,3.7
	c1.5,3.7,7,2.5,10.4,0.5c11-6.4,20.4-15.5,27.3-26.3c2.7,16.4-1.9,33.9-12.4,46.8c-10.5,12.9-26.7,21-43.3,21.7
	c0.9-5.6,5.4-9.8,9.7-13.6c25.9-23.1,51.8-46.2,77.7-69.3"/>
<path id="XMLID_6_" class="st0" d="M241.1,26.5c0-0.3,0-0.7,0-1"/>
</svg>
