<?xml version="1.0" encoding="utf-8"?>
<!-- Generator: Adobe Illustrator 19.0.0, SVG Export Plug-In . SVG Version: 6.00 Build 0)  -->
<svg version="1.1" id="full-signature" xmlns="http://www.w3.org/2000/svg" xmlns:xlink="http://www.w3.org/1999/xlink" x="0px" y="0px"
	 viewBox="0 0 679.9 98.8" style="enable-background:new 0 0 679.9 98.8;" xml:space="preserve">
<style type="text/css">
	.full-sig{fill:none;stroke:aqua;stroke-width:4;stroke-linecap:round;stroke-linejoin:round;stroke-miterlimit:10;}
</style>
<path id="michael"  in-view="ctrl.myMichaelIsVisible = $inview"  ng-class="{'michael': ctrl.myMichaelIsVisible}" class='full-sig' d="M23.1,30.9c4.2,3,5.9,9,4.1,13.8c-6.7,2.2-13.7,3.4-20.7,3.7c-0.9,0-1.8-0.1-2.6-0.5
	c-3.7-2-1.2-7.2,1.5-10C21.9,20.6,43.7,8.4,67,3.3c1.6-0.4,3.3-0.2,4.8,0.6c5.1,2.7,2.3,9.9-1,14.3C53.5,40.7,31.5,59.7,6.7,73.6
	c26.9-29,60.5-51.6,97.5-65.5C100.1,22.9,85.5,32,72.1,39.6C90.6,22,113.3,9,137.7,2c-13.8,12.7-27.3,25.9-40.3,39.5
	c-6.8,7.1-13.7,14.7-16.2,24.2c5.8,4.4,14.1,0.5,20.2-3.4c15.6-10,31.2-19.9,46.8-29.9c-17.7,7-33,19.8-43.1,35.9
	c18.1-2.7,33.4-14.3,47.8-25.5c2.3,2.3-2.4,9.6,0.4,2.1s-12.8,7.2-18,11.9c-1.6,1.4-3.1,3.3-2.2,5.8c0.5,1.5,1.8,2.7,3.4,3.3
	c3.1,1.1,6.4,0.1,9.4-1c14.1-4.9,28.3-10.1,40.3-19s21.6-22,22.9-36.9c-19.1,19.6-34.1,43.4-43.5,69.2
	c10.5-13.8,23.3-25.9,37.7-35.5c1.7,12.2-6.8,23.3-14.8,32.7c0,0,37-19,40.5-18s-6.4-2.1-12.1,1.2s-8.9,13.2-2.6,14.8
	c1.4,0.3,2.8,0.4,4.2,0.2c7.9-1,15.1-11.1,12.2-14.8c-2.9-3.6-0.1,15.6,4.4,16.9c4.5,1.3,9.3,0.1,13.5-1.8c7.6-3.5,14-9.2,18.3-16.3
	c0.9-1.4,1-3.2,0-4.6c-2-3-6.4-0.8-9,1.5c-5.2,4.5-10.8,11.9-5.8,17.5c2.5,2.8,6.6,3.6,10.2,2.3c25.8-9.5,47-30.8,56.6-56.6
	c0.6-1.5,0.6-3.3-0.1-4.8c-2.3-5-9.2-2.3-13,1.1c-11.1,10.1-19.3,23.3-23.4,37.8c-1.7,6-2.6,12.6-0.3,18.4
	c3.4,8.6,13.4,13.2,22.7,13.1c9.3,0,18.1-3.7,26.6-7.4"/>
<path id="l" in-view="ctrl.myLIsVisible = $inview"  ng-class="{'l': ctrl.myLIsVisible}" class='full-sig' d="M371.2,38.4c18.7,11.3,44.7,9,61.1-5.4c6.5-5.7,11.7-13.9,10.3-22.4c-0.5-3-2.6-6.4-5.7-6.1
	c-2.2,0.2-3.7,2.2-4.8,4.1c-6.8,12.1-6.2,27-11,40c-7.1,18.9-26.7,32.3-46.9,32c-3.9-0.1-8.6-1.2-9.7-5c-0.8-2.7,0.7-5.4,2.4-7.6
	c4.8-6.4,11.9-11.3,19.8-13c7.9-1.7,16.5,0.1,22.9,5.1c5.6,4.4,9.1,11,14.8,15.4c6.2,4.8,14.8,6.2,22.2,3.9"/>
<path id="a" in-view="ctrl.myAIsVisible = $inview"  ng-class="{'a': ctrl.myAIsVisible}" class='full-sig' d="M479.6,52.3c-9.2-0.5-18,7.1-19,16.2c-0.1,1-0.1,2.2,0.5,3.1c0.9,1.3,2.7,1.5,4.2,1.4
	c9.8-0.6,18.1-10.5,16.9-20.3c-5.5,5.6-6.3,15.3-1.7,21.7c4.6,6.4,14.1,8.8,21.1,5.3"/>
<path id="h" in-view="ctrl.myHIsVisible = $inview"  ng-class="{'h': ctrl.myHIsVisible}" class='full-sig' d="M531.9,24.6c2.4,4,4.6,9.6,1.2,12.9c-1.6,1.5-3.9,1.9-6.1,2.2c-4.1,0.6-9.2,0.8-11.5-2.7
	c-1.6-2.4-1.1-5.5-0.2-8.2c4.2-12.6,17.6-21.4,30.8-20.2c2.4,0.2,4.8,0.8,6.5,2.5c1.4,1.4,2.1,3.4,2.5,5.4
	c3.6,16.6-5,33.2-13.7,47.8c-4.2,7.1-8.6,14.2-13,21.2"/>
<path id="hay" in-view="ctrl.myHayIsVisible = $inview"  ng-class="{'hay': ctrl.myHayIsVisible}" class='full-sig' d="M586.7,20c-10.7,15.8-16.4,35.1-15.9,54.2c0.9-12.5-4.6-25.3-14.4-33.3
	c6.1,4.8,12.3,9.6,19.7,11.7s16.3,0.8,21.2-5.2c-4.7,3.2-8.4,7.8-10.6,13.1c-1.3,3-1.5,7.5,1.6,8.7c2.4,1,5-1,6.5-3
	c3.7-4.7,5.3-11,4.4-17c-1.9,4.5-3.1,9.3-3.5,14.1c-0.3,3.4,1.6,8.1,4.8,6.9c0.9-0.3,1.5-1,2.1-1.7c5.2-6.2,10.3-12.3,15.5-18.5
	c0.7,5.9,0,12.1-2.1,17.7c7.2,2.2,15.4-5.1,14-12.5c3.5,8.5,2.8,18.5-1.7,26.5s-12.8,13.6-21.9,15c0-3.7,2.6-6.8,5.2-9.5
	C630.8,68,658.4,59.1,677.9,40"/>
<path id="dot" in-view="ctrl.myDotIsVisible = $inview"  ng-class="{'dot': ctrl.myDotIsVisible}" class='full-sig' d="M158.1,24.1c-0.4-0.6-0.3-1.5,0.2-2c0.6,0,1.1,0.7,0.9,1.2c-0.1,0.6-0.8,0.9-1.4,0.7
	c0-0.3,0-0.7,0-1"/>
</svg>
