<?xml version="1.0" encoding="utf-8"?>
<!-- Generator: Adobe Illustrator 19.0.0, SVG Export Plug-In . SVG Version: 6.00 Build 0)  -->
<svg version="1.1" id="Layer_1" xmlns="http://www.w3.org/2000/svg" xmlns:xlink="http://www.w3.org/1999/xlink" x="0px" y="0px"
	 viewBox="-374 236 211 90" style="enable-background:new -374 236 211 90;" xml:space="preserve">
<style type="text/css">
	.st0{fill:#0000FF;}
	.st1{fill:orange;}
	.st2{fill:red;}
	.st3{fill:#FFFFFF;}
	.st4{fill:#FFFF00;}
</style>
<g id="XMLID_67_">
	<g id="XMLID_6_">
		<g id="XMLID_124_">
			<path id="XMLID_51_" class="st0" d="M-330.5,264.8c0.5,2.6,1.3,5.1,2.8,7.4c1.6,2.5,3.8,4.6,4.7,7.5c0.3,0.9,1.4,1.4,2.2,0.9
				c3.3-2.1,6.8-3.4,10.7-3.9c1.9-0.2,1.9-3.2,0-3c-4.5,0.5-8.5,1.9-12.3,4.3c0.7,0.3,1.5,0.6,2.2,0.9c-1.8-5.5-6.4-9-7.5-15
				C-327.9,262.1-330.8,262.9-330.5,264.8L-330.5,264.8z"/>
		</g>
	</g>
	<path class="st1" d="M-298.8,274.6c0.4-3.6,0.8-7.1,1.4-10.7c0.3-2.1,0.3-9.1,3.5-7.5c2.1,1,4.5,5.1,5.6,6.9c1.7,2.7,3,5.6,4,8.7
		c0.6,1.8,3.5,1,2.9-0.8c-1.5-4.4-3.5-8.4-6.2-12.1c-1.6-2.2-4.5-6.7-7.7-6.8c-3.2,0-3.9,3.7-4.3,6.1c-1,5.4-1.6,10.8-2.2,16.2
		C-302,276.6-299,276.5-298.8,274.6L-298.8,274.6z M-297.2,269.4c3.3-1.4,6.7-2.4,10.2-3.1c1.9-0.4,1.1-3.3-0.8-2.9
		c-3.8,0.7-7.4,1.9-11,3.4C-300.5,267.6-299,270.2-297.2,269.4L-297.2,269.4z"/>
	<g id="XMLID_10_">
		<g id="XMLID_92_">
			<path id="XMLID_30_" class="st2" d="M-271.3,253.7c0.3,5.2,0.4,10.4,0.4,15.7c0,1.9,3,1.9,3,0c0.1-5.2-0.1-10.4-0.4-15.7
				C-268.4,251.8-271.4,251.7-271.3,253.7L-271.3,253.7z"/>
		</g>
	</g>
	<g id="XMLID_21_">
		<g id="XMLID_80_">
			<path id="XMLID_20_" class="st3" d="M-268.6,263.2c3.6-0.9,7.2-1.2,10.9-1c1.9,0.1,1.9-2.9,0-3c-4-0.2-7.9,0.2-11.7,1.1
				C-271.2,260.8-270.4,263.7-268.6,263.2L-268.6,263.2z"/>
		</g>
	</g>
	<g id="XMLID_26_">
		<g id="XMLID_70_">
			<path id="XMLID_14_" class="st4" d="M-258.9,253.7c-0.1,5.3-0.2,10.7-0.3,16c0,1.9,3,1.9,3,0c0.1-5.3,0.2-10.7,0.3-16
				C-255.9,251.7-258.9,251.7-258.9,253.7L-258.9,253.7z"/>
		</g>
	</g>
	<g id="XMLID_27_">
		<g id="XMLID_61_">
			<path id="XMLID_12_" class="st4" d="M-243.1,272.7c3.8-5.9,7.9-11.5,12.3-16.8c-0.7,0-1.4,0-2.1,0c3.1,2.8,1.6,8.9,1.5,12.5
				c0,3.3,0.4,6.3,1.8,9.3c0.8,1.8,3.4,0.2,2.6-1.5c-3-6.6,2-17.2-3.8-22.4c-0.6-0.5-1.6-0.6-2.1,0c-4.6,5.6-8.9,11.4-12.8,17.4
				C-246.7,272.8-244.1,274.3-243.1,272.7L-243.1,272.7z"/>
		</g>
	</g>
	<g id="XMLID_29_">
		<g id="XMLID_53_">
			<path id="XMLID_8_" class="st4" d="M-240,270c3.4,0.1,6.9,0.2,10.3,0.3c1.9,0.1,1.9-2.9,0-3c-3.4-0.1-6.9-0.2-10.3-0.3
				C-241.9,266.9-241.9,269.9-240,270L-240,270z"/>
		</g>
	</g>
	<g id="XMLID_35_">
		<g id="XMLID_46_">
			<path id="XMLID_5_" class="st4" d="M-212.5,262.7c-0.1,3.7,0.2,7.4,0.9,11.1c0.4,1.9,3.3,1.1,2.9-0.8c-0.6-3.4-0.9-6.8-0.8-10.3
				C-209.4,260.7-212.4,260.7-212.5,262.7L-212.5,262.7z"/>
		</g>
	</g>
	<g id="XMLID_42_">
		<g id="XMLID_39_">
			<path id="XMLID_4_" class="st4" d="M-199.4,265.7c-5.6,3.8-10.8,8.1-15.8,12.7c0.8,0.5,1.7,1,2.5,1.5c0-0.2,0.1-0.3,0.1-0.5
				c0.4-1.9-2.5-2.7-2.9-0.8c0,0.2-0.1,0.3-0.1,0.5c-0.3,1.5,1.4,2.5,2.5,1.5c4.7-4.5,9.8-8.6,15.2-12.2
				C-196.3,267.2-197.8,264.6-199.4,265.7L-199.4,265.7z"/>
		</g>
	</g>
	<g id="XMLID_49_">
		<g id="XMLID_32_">
			<path id="XMLID_3_" class="st4" d="M-352.8,268.3c4.4,5.4,9.1,10.6,14.1,15.4c2.9,2.8,7.5,9.2,12.1,8.5c2.5-0.4,5-2.1,7.3-3.2
				c3.7-1.8,7.5-3.7,11.3-5.2c7.4-2.9,15.2-4.5,23.1-5.2c14.4-1.3,28.9,0.2,43.2,1.7c8.3,0.9,16.1,2.3,23.6,6
				c6.6,3.3,13,7.2,19.5,10.8c0.6,0.3,1.4,0.3,1.8-0.2c5.8-6.4,11.6-12.7,17.4-19.1c2.1-2.3,7.5-6.1,4.2-9.4
				c-2.1-2.1-6.8-3.2-9.6-4.4c-3.3-1.4-6.5-2.7-9.8-4.1c-7.5-3-14.9-5.9-22.5-8.7c-14.6-5.4-29.3-7.2-44.8-7.3
				c-14.6-0.1-29.5-0.3-43.9,2.4c-7.7,1.5-15.2,3.9-22.2,7.7c-7.8,4.2-15,9.5-23.8,11.7c-1.9,0.5-1.1,3.4,0.8,2.9
				c7.9-2,14.6-6.3,21.5-10.4c7.5-4.2,15.3-7.2,23.8-8.8c16.9-3.3,35.2-2.9,52.4-2.3c9.5,0.4,18.8,1.5,27.9,4.3
				c8.2,2.5,16.1,5.9,24.1,9c4.1,1.6,8.1,3.2,12.1,4.9c2.7,1.1,5.5,2.3,8.2,3.5c2.5,1.1,4.3,0.8,2.4,3.9c-2.3,3.7-6.4,7-9.4,10.3
				c-3.6,3.9-7.2,7.8-10.7,11.8c0.6-0.1,1.2-0.2,1.8-0.2c-12.2-6.8-23.7-14.4-37.8-16.4c-13.8-2-28-3.2-41.9-2.9
				c-13.7,0.3-26.6,3-39,8.8c-3.1,1.5-9.5,5.9-13,4.6c-2.3-0.9-5.3-4.8-7.1-6.4c-5.2-5-10.1-10.4-14.7-16
				C-351.9,264.7-354,266.8-352.8,268.3L-352.8,268.3z"/>
		</g>
	</g>
	<g id="XMLID_56_">
		<g id="XMLID_23_">
			<path id="XMLID_2_" class="st4" d="M-342,281.7c-7.4,7.8-14.8,15.6-22.2,23.4c-1,1,0,3.1,1.5,2.5c9.3-3.6,18.7-7.2,28-10.8
				c-0.6-0.5-1.3-1-1.9-1.4c-0.8,6.8-6.3,11.9-7.7,18.6c-0.3,1.5,1.3,2.4,2.5,1.5c4.1-3.3,6-8.2,9.7-11.8c5-4.8,12-5.4,18.5-6
				c1-0.1,1.7-0.9,1.4-1.9c-0.7-3.3-1.7-6.3-3-9.4c-0.8-1.8-3.4-0.2-2.6,1.5c1.2,2.8,2.1,5.7,2.7,8.6c0.5-0.6,1-1.3,1.4-1.9
				c-6.2,0.5-12.7,1.1-18,4.7c-5.3,3.6-7.4,10-12.3,13.9c0.8,0.5,1.7,1,2.5,1.5c1.5-7,7-12.2,7.8-19.4c0.1-0.9-1.1-1.8-1.9-1.4
				c-9.3,3.6-18.7,7.2-28,10.8c0.5,0.8,1,1.7,1.5,2.5c7.4-7.8,14.8-15.6,22.2-23.4C-338.5,282.4-340.6,280.3-342,281.7L-342,281.7z"
				/>
		</g>
	</g>
	<g id="XMLID_63_">
		<g id="XMLID_16_">
			<path id="XMLID_1_" class="st4" d="M-213.6,290.2c-1,3.8-2,7.7-2.8,11.5c-0.3,1.2,0.7,2,1.8,1.8c10.7-1.5,17.9,7.3,23.4,15
				c0.9,1.2,2.6,0.8,2.8-0.8c0.6-5.8,0.7-11.6,0.4-17.4c-0.6,0.5-1.3,1-1.9,1.4c6.3,2.4,12,5.6,17.3,9.7c1.1,0.8,2.4,0.3,2.6-1.1
				c0.4-4.8-3.3-8.6-5.8-12.3c-3.3-4.8-6.7-9.7-10-14.5c-1.1-1.6-3.7-0.1-2.6,1.5c2.6,3.8,5.3,7.6,7.9,11.5c2.5,3.6,8,9.1,7.5,13.8
				c0.9-0.4,1.7-0.7,2.6-1.1c-5.7-4.2-11.8-7.6-18.6-10.2c-0.9-0.3-1.9,0.5-1.9,1.4c0.3,5.8,0.1,11.6-0.4,17.4
				c0.9-0.3,1.9-0.5,2.8-0.8c-6.5-9.1-14.6-18.2-26.8-16.4c0.6,0.6,1.2,1.2,1.8,1.8c0.9-3.9,1.8-7.7,2.8-11.5
				C-210.2,289.1-213.1,288.3-213.6,290.2L-213.6,290.2z"/>
		</g>
	</g>
</g>
<filter id="pictureFilter" >
  <feGaussianBlur stdDeviation="1" />
</filter>
<filter id="imageFilter" >
  <feTurbulence type="fractalNoise" baseFrequency="0.015" numOctaves="2" result="turbulence_3" data-filterId="3" />
  <feDisplacementMap xChannelSelector="R" yChannelSelector="G" in="SourceGraphic" in2="turbulence_3" scale="15" />
<filter />
<filter id="imgFilter" >
  <feColorMatrix type="luminanceToAlpha" />
<feDiffuseLighting diffuseConstant="1" surfaceScale="10" result="diffuse3">
<feDistantLight elevation="28" azimuth="90" /></feDiffuseLighting>
<feComposite operator="in" in2="inputTo_3" />
<filter />
<filter id="svgFilter" >
  <feColorMatrix type="hueRotate" values="91" />
<filter />

</svg>
