<?xml version="1.0" encoding="utf-8"?>
<!-- Generator: Adobe Illustrator 19.0.0, SVG Export Plug-In . SVG Version: 6.00 Build 0)  -->
<svg version="1.1" id="Layer_1" xmlns="http://www.w3.org/2000/svg" xmlns:xlink="http://www.w3.org/1999/xlink" x="0px" y="0px"
	 viewBox="0 0 1070.6 236.1" style="enable-background:new 0 0 1070.6 236.1;" xml:space="preserve">
<style type="text/css">
	.st0{fill:none;stroke:#000000;stroke-width:2;stroke-miterlimit:10;}
</style>
<path id="mike" class="st0" d="M0.9,89.9c7.9-16.5,22.3-29.7,39.3-36.4c3.1-1.2,6.5-2.2,9.6-1.4c8.6,2.2,8.8,14.5,6.1,22.9
	c-8.1,25-25.2,47-47.4,61C19.4,101,43.4,70,74.8,50.7c3.7-2.3,8-4.5,12.3-3.4c7.7,2,8.8,12.3,7.8,20.1
	c-4.4,34.5-20.3,67.5-44.6,92.5c24-48.3,66-87.3,115.8-107.9c3.1,5.7,0.1,12.6-3,18.3c-9.4,17.1-20.4,33.2-33,48.1
	c23.1-26.7,50.9-49.3,81.7-66.6c5.8-3.3,12.6-6.4,19-4.4c-1.1,14.6-11.5,26.5-21,37.6c-18.2,21.5-34.8,44.5-49.5,68.5
	c-2.5,4.1-4.8,9.9-1.3,13.2c2.2,2.1,5.7,1.9,8.7,1.3c13.9-2.9,25.5-12.2,36.2-21.6c21-18.5,40.9-38.2,59.5-59.2
	c-24.7,25.4-45.7,54.2-62.5,85.4c16.4-11.3,32.8-22.6,49.2-33.9c14.8-10.2,29.8-20.4,46.7-26.5c8.1-2.9,17-4.8,25.2-2.4
	s15.3,10.4,14.2,18.9c-29.8-11.9-66.4-4.3-89,18.5c-3,3-5.9,6.8-5.3,10.9c0.5,3.6,3.5,6.4,6.7,8.3c17.1,10,38.8,1.5,55.9-8.5
	c48.4-28.2,89.9-68.2,119.9-115.6c-10,0.2-17.9,8.1-24.3,15.7c-28.3,33.8-49.6,73.5-61.9,115.8c11.8-28.3,31.3-53.4,55.9-71.7
	c5.6-4.2,14.1-7.8,18.9-2.8c2.2,2.3,2.7,5.8,2.6,8.9c-1.2,27.1-38.5,37.6-48.4,62.9c33.8-13.2,64.6-34.2,89.2-60.9
	c-3.3-3.7-9.4-0.8-13.1,2.5c-17.9,15.6-31.9,35.5-40.4,57.6c27.3-6.9,50.4-28.6,59-55.4c-6.7-1.4-13.7,2.8-17.5,8.5
	c-3.8,5.7-5.1,12.8-6.1,19.6c-0.9,5.8-1.2,12.7,3.1,16.7c5.1,4.6,13.1,2.5,19.4-0.3c51.8-22.5,93.8-66.4,114-119.2
	c-2.9-2.5-5.8-5.1-8.7-7.6c-20.3,8-34.5,26.5-45.7,45.3c-9.2,15.5-17.2,31.7-23.8,48.4c-4.9,12.4-8.3,28.5,1.6,37.5
	c9,8.1,23.2,4.9,34.3,0"/>
<path id="XMLID_2_" class="st0" d="M606.2,62c0.5,5.5,5.6,9.7,11,10.9s11-0.1,16.3-1.6c12.3-3.6,24.6-9.1,32.9-18.9
	c8.3-9.7,11.8-24.5,5.7-35.7c-2.9,29.3-6,59.6-19.9,85.6c-13.9,26-41.4,47.1-70.7,44.3c-5.5-0.5-11.7-2.5-13.9-7.5
	c-3.5-8,5.4-15.9,13.4-19.3c16.4-6.9,35.3-9.1,52.1-3.4c16.8,5.8,31.1,20.4,33.8,38c0.3-2.1,0.5-4.2,0.8-6.3"/>
<path id="XMLID_3_" class="st0" d="M720,111.3c1.5-1.5-0.7-3.8-2.7-4.3c-7.4-1.9-14.8,3-20.4,8.2c-3.1,2.9-6.2,6.1-7.9,10
	c-1.6,3.9-1.6,8.8,1.1,12.1c10.6,0.2,20.2-9.9,19.3-20.5c-1.3,9.9-0.9,20.1,1.3,29.9c0.6,2.6,1.4,5.4,3.4,7.2s5.6,2,7.1-0.2"/>
<path id="XMLID_4_" class="st0" d="M789.8,48.8c4.8,6,3.7,15.8-2.3,20.6s-15.8,3.8-20.6-2.2c-4.3-5.3-4.3-13.2-1.6-19.5
	c2.7-6.3,7.8-11.3,13-15.7C797,16.2,819.9,5.4,844,1.1c7.1,5.9,4.9,17.2,1.5,25.8c-9.5,23.7-24,45.4-42.4,63.1
	c-9.8,9.5-22,18.3-35.6,17.8c-4.1-20.1,6.1-40.7,19.7-56.1c14.2-16.1,32.3-28.6,52.3-36.2c13.9-5.3,31.6-7.4,42.1,3.2
	C871,69.5,849.2,118,818.3,159.7c2.2-4.2,4.3-8.5,6.5-12.7"/>
<path id="XMLID_5_" class="st0" d="M933.1,30c-4.6,38-8,76.1-10.3,114.4c-6-15.8-18.6-28.5-32.9-37.6c-14.3-9.1-30.3-15.1-46.2-21
	c61.2,11,123.8,19.2,185.6,11.8c-10.6-5.4-23.7-4.3-34.6,0.5c-10.9,4.8-20,13-28.3,21.5c-4.5,4.7-9.3,11.2-6.5,17.1
	c2.9,6.1,11.5,6.4,18,4.9c21.2-4.9,39.9-19.7,49.7-39.1c-5.7,2.6-10.8,6.4-14.8,11.2c-2,2.4-3.9,5.4-3.6,8.5
	c0.5,5.2,6.3,8.1,11.4,8.8c5.2,0.7,10.7,0.2,15.2,2.7c7.7,4.4,8.5,15.1,7.2,23.8c-6,38.2-38.4,70.7-76.6,76.9
	c-6.1,1-13.2,1.1-17.7-3.1c5.7-25.9,28.9-43.6,50.4-59c12.5-8.9,25-17.8,37.5-26.8c9-6.5,18.3-13.1,24.9-22s10.3-20.8,6.9-31.4"/>
<path id="XMLID_6_" class="st0" d="M274.8,70c-0.3,0.3-0.7,0.7-1,1"/>
</svg>
